<?xml version="1.0" encoding="utf-8"?>
<!-- Generator: Adobe Illustrator 24.3.0, SVG Export Plug-In . SVG Version: 6.00 Build 0)  -->
<svg version="1.1" id="Layer_1" xmlns="http://www.w3.org/2000/svg" xmlns:xlink="http://www.w3.org/1999/xlink" x="0px" y="0px"
	 viewBox="0 0 200 200" style="enable-background:new 0 0 200 200;" xml:space="preserve">
<style type="text/css">
	.st0{fill:#FEFEFE;}
	.st1{fill:#1056A4;}
	.st2{fill:#F28D20;}
</style>
<g>
	<g>
		<path class="st0" d="M83.5,85.8c0.1-5.8,8.3-7.4,12.5-9.9c3.3-1.5,4,3.2,4.8,5.3c6.2-7.4,21.1-13.5,26.7-2.4
			c5.5-9.8,25.9-15.2,28.8-0.9c1.6,7.5-3,27.1,2.2,31.4c2.5,2.2-4.7,2.2-6,2.7c-3.1-0.3-9.6,3.4-10.7-0.7
			c-0.8-10.2,2.1-20.9-0.1-30.8c-3.3-6.3-11.5-0.1-12.6,5c-1.4,9.6,0.9,21-1.6,29.9c-3.2,0-11.5,2.9-13.3,0.6
			c-2.2-7.1,5.9-35.4-5-34.3c-12.9,3-6.4,23.8-8.5,33.8c1.2,6.3-8.9,3.6-12.8,4.9c-3.8,0-1.4-7-2.4-9.6c1.4-0.3,2.8-1.9,4-1.9
			c1.3,1.9,3.3,1.6,5.4,1.6c0.3,0,0.4-0.2,0.3-0.4c-0.6-1.4-1.9-2.3-2.9-3.4c-0.3-0.3-0.3-0.4,0-0.7c2-2.4,2.6-5.6,1.5-8.5
			c-0.9-1.7-3.3-0.8-4.1,0.6c-0.6,2.4,2.5,2.9,0.2,6.2c-3.3-4.1-9.4-8.3-8.3-14.2c0.5-1.8,2.8-2,3.9-0.6
			C91.2,92.3,90.3,84.9,83.5,85.8z"/>
		<path class="st0" d="M83.4,111.5c-5.8,14.9-39.4,23-44.7,4.6c-0.7-15.6,3.9-31.1,6.9-46.3c0.8-2.6-2-3.5-3.7-4.7
			c-2.1-4.8,11.4-6.7,14.8-7.6c4-1.1,5.1,2.3,4.1,5.6c-1,7.5-2.2,14.9-3.3,22.4c7.3-4.8,18.2-6.5,24.9,0.4c-3.6,0.9-5.8,4.8-4.7,8.1
			c0.1,1.3,2,2.6,1.4,3.6C71.9,101.8,75.5,112,83.4,111.5z M72,99.8c1.5-14.6-13.2-14.8-16.2-2.1c-0.6,5.7-2,11.4-1.9,17.2
			c1.4,8,10.8,5.2,13.6-0.3C70.6,110.1,72,105.2,72,99.8z"/>
		<path class="st1" d="M72,99.8c0,5.4-1.3,10.3-4.5,14.7c-2.8,5.5-12.3,8.4-13.6,0.3c-0.1-5.8,1.3-11.5,1.9-17.2
			C58.7,85,73.4,85.2,72,99.8z M66.3,105c-5.3,1.8-7.3,0.7-7.3,7.2C62.7,111,65.9,109.3,66.3,105z M66.9,99.3
			C66.9,99.3,66.9,99.3,66.9,99.3c-0.2-0.6,0.3-1.8-0.4-1.9c-1.7,0.3-4.1-0.2-5.5,0.6c0.1,1.2-1,3.4-0.3,4.1
			C62.6,101.2,67.5,102.4,66.9,99.3z"/>
		<path class="st0" d="M84.9,108.2c-4.7,0.9-6.6-5-4.1-8.3c2.2,1.5,4.3,5.1,6.7,7.1c0.3,0.7-1.5,1-2.1,1.2c0-0.4,0-0.8-0.1-1.2
			C85.1,107.4,85,107.8,84.9,108.2z"/>
		<path class="st1" d="M84.9,108.2c0.1-0.4,0.3-0.8,0.4-1.3c0.1,0.4,0.1,0.8,0.1,1.2C85.2,108.2,85,108.2,84.9,108.2z"/>
	</g>
	<path class="st2" d="M83.4,111.5c-9.6-0.7-10.6-8.8-4.1-14.3c-5.9-6.4,3.9-15.7,9.8-9.4c1.4,1.9-2.2,3.4-3.4,1.8
		c-1.1-1.4-3.4-1.3-3.9,0.6c-1.2,5.8,4.9,10.1,8.3,14.2c2.3-3.3-0.8-3.8-0.2-6.2c0.7-1.4,3.2-2.3,4.1-0.6c1.1,2.9,0.6,6.1-1.5,8.5
		c-0.2,0.3-0.2,0.4,0,0.7c1,1.1,2.3,2,2.9,3.4c0.1,0.3,0,0.4-0.3,0.4c-2.1,0-4.1,0.4-5.4-1.6C87.8,109.4,85.7,111.4,83.4,111.5z
		 M85.4,108.1c0.6-0.1,2.4-0.5,2.1-1.2c-2.4-2-4.5-5.6-6.7-7.1C78,103.4,80.6,109.4,85.4,108.1z"/>
	<path class="st2" d="M73.7,76.5c-5.5-0.8-11.1,2.1-8.7-6.2C67.5,70.9,70.9,74.8,73.7,76.5z"/>
	<path class="st2" d="M137.3,114c-1.1-0.7-3-0.9-3.7-2c0.3-1.3-0.4-3.9,0.4-4.6C138.5,107.9,135.9,110.8,137.3,114z"/>
	<path class="st2" d="M137.3,89.7c-0.2,0.7,0.4,2.1-0.3,2.4c-0.8-0.2-2.6,0.7-2.9-0.2c0.3-1.2-0.4-3.1,0.4-4
		C136.8,87.6,137.9,86.6,137.3,89.7C137.3,89.7,137.3,89.7,137.3,89.7z"/>
	<path class="st2" d="M136.9,100.1c0.3,2.9-0.4,2.4-2.8,1.9c-0.8-0.8,0-2.8-0.2-4c0.3-0.9,2,0,2.8-0.2c0.7,0.3,0.1,1.6,0.3,2.3
		C137,100.1,137,100.1,136.9,100.1z"/>
	<path class="st2" d="M109,111.2c-1.6-2-3.4-3.7-2.7-6.5c0,0,0.1-0.1,0.1-0.1c2.1,1.8,3.3,3.6,2.8,6.5
		C109.2,111.2,109.1,111.2,109,111.2z"/>
	<path class="st2" d="M106.4,101.4c1.7,1.1,3.5,1.5,3,3.8c0,0-0.1,0-0.1,0C108,104.1,105.9,103.5,106.4,101.4z"/>
	<path class="st2" d="M109.5,100.6c-0.1,0.9-0.1,0.9-0.9,0.6c-0.9-0.5-2.5-0.6-2.1-2c0.4-0.7,2,0.5,2.7,0.5
		C109.7,99.8,109.4,100.3,109.5,100.6z"/>
	<path class="st2" d="M109.9,89.6c-0.1,0.9,0.1,0.7-0.7,1c-0.7,0-2.1,1.1-2.4,0.4c-0.1-1.4,1.8-1.3,2.7-1.9
		C110,88.6,109.8,89.2,109.9,89.6z"/>
	<path class="st2" d="M109.6,96.8c0,0.8,0,0.8-0.8,0.6c-0.7-0.3-2.1,0-2.3-0.7c0-0.9-0.1-0.8,0.8-0.7
		C108.1,96.2,109.9,95.6,109.6,96.8z"/>
	<path class="st2" d="M107.5,93.9c-0.7,0-1,0.1-0.9-0.7c0.4-0.8,2-0.5,2.8-0.8c0.2,0,0.3,0,0.3,0.3
		C110.1,94.3,108.6,93.7,107.5,93.9z"/>
	<path class="st2" d="M107.3,70.2C107.2,70.2,107.2,70.2,107.3,70.2C107.2,70.2,107.2,70.2,107.3,70.2
		C107.2,70.2,107.2,70.2,107.3,70.2z"/>
	<path class="st2" d="M66.3,105c-0.4,4.3-3.5,6-7.3,7.2C59,105.7,61,106.8,66.3,105z"/>
	<path class="st2" d="M66.9,99.3c0.7,3-3.5,1.9-5.4,2.7c-2.2,0.8-0.4-2.7-0.6-4c1.4-0.8,3.8-0.2,5.5-0.6
		C67.2,97.5,66.7,98.7,66.9,99.3C66.9,99.3,66.9,99.3,66.9,99.3z"/>
	<g>
		<path class="st2" d="M38.4,77.2c1.4-1,1-4.3,1.7-6.1c0.6-2.2-9.8-4.9-11.9-6.5c-1.3,2.7-2.5,5.4-3.5,8.3
			C29.3,74.4,33.8,75.8,38.4,77.2z"/>
		<path class="st2" d="M22.3,90.8c4.4,0.3,8.9,0.6,13.3,0.8c1.3-1.4,0.9-4.6,1.7-6.6c-3.9-2.1-10.4-1.9-15.1-3.2
			c-0.7,2.9-1.2,5.9-1.5,8.9C21.1,90.7,21.7,90.8,22.3,90.8z"/>
		<path class="st2" d="M126.9,70.6c-0.6,0.4,0.3,1.2,0.5,0.6c5.1-4.8,11.9-7.3,18.9-6.9c6.4-3,12.5-7.3,18.8-10.8
			c-1.9-2.7-4-5.2-6.2-7.6C148.3,54.1,137.6,62.4,126.9,70.6z"/>
		<path class="st2" d="M158.1,67.4c-0.5,0.2-1,0.4-1.5,0.7c1.7,1.8,3.2,3.7,4,6.1c0.1,0.4,0.3,0.5,0.7,0.3c4.3-1.3,8.7-2.7,13-4
			c-1.2-2.9-2.5-5.8-4-8.6C166.3,63.8,162.2,65.6,158.1,67.4z"/>
		<path class="st2" d="M37.3,59.4c0.6,0.4,0.6,0.4,1.1-0.1c2-2,4.7-3.1,7.3-4.1c-2.5-2-5.1-3.9-7.6-5.8c-1.9,2.4-3.7,4.8-5.4,7.4
			C34.3,57.6,35.8,58.5,37.3,59.4z"/>
		<path class="st2" d="M173.2,81c-9.9,2.8-12.3-1.7-11.7,9.3c5.3,0.8,12.1-0.7,17.9-0.7c-0.4-3.2-1-6.3-1.8-9.3
			C176.1,80.5,174.6,80.8,173.2,81z"/>
		<path class="st2" d="M141.9,36.3c-8.2,10.5-16.6,20.9-24.7,31.4c1.9-0.3,4.2,0.8,6,0.2c9.7-9.5,19.5-18.9,29.2-28.4
			c-2.6-2.3-5.4-4.4-8.3-6.3C142.8,35,141.9,36.3,141.9,36.3z"/>
		<path class="st2" d="M53.4,52.8c10.6-1.5,13.4,2.2,12.7,12.3c5,4.3,9.1,10,14.6,13.4c0.5,0.1,2.3-1,1.7-1.5
			C71.9,63.6,61.3,50.3,50.8,36.9c-2.5,2-4.9,4.1-7.1,6.3C46.9,46.4,50.2,49.6,53.4,52.8z"/>
		<path class="st2" d="M60.7,36.3C98,99,90.2,79.6,66.8,27.2c-3,1.4-5.9,2.9-8.7,4.7C59.3,34,60.7,36.2,60.7,36.3z"/>
		<path class="st2" d="M123,36.2c-5.2,11.3-10.6,22.6-15.7,34c0,0,0,0,0,0c1.4-0.8,3.4-0.9,4.6-2c9.6-14.9,14.4-22.4,25.2-39.1
			c-3-1.6-6.1-3-9.3-4.2C125.5,30.4,123,36.2,123,36.2z"/>
		<path class="st2" d="M107,36.4c-2.1,11.6-4.2,23.1-6.2,34.7c-0.2,0.8,1.2,1.1,1.6,1.8c8-17.6,9.6-28.9,17.3-50.4
			c-3.2-0.8-6.6-1.4-10-1.8C108.5,27.5,107,36.3,107,36.4z"/>
		<path class="st2" d="M78,36.4c3.2,9.5,6.5,19.1,9.7,28.6c1.3,2,1.6,9.6,4.4,7.1c-2.2-17.6-5.6-30-8.8-50.3c-3.1,0.7-6.1,1.5-9,2.5
			C75.9,29.4,78,36.3,78,36.4z"/>
		<path class="st2" d="M91.7,20.4c3.8,69.3,5,65.4,9.9-0.4C98.3,20,94.9,20.1,91.7,20.4z"/>
	</g>
	<g>
		<path class="st2" d="M145.3,125c-4.2-2.2-8.5-5.8-12.6-7.3c-0.9,1.6-2.5,2.2-4.1,2.9c11.7,9.3,23.4,18.5,35.1,27.8
			c2.1-2.8,4-5.7,5.7-8.7C161.4,134.8,153.4,129.9,145.3,125z"/>
		<path class="st2" d="M51,131.5c0.1-0.1,0.3-0.1,0.3-0.3c-3.1-0.4-6.1-1-8.9-2.5c-4.7,1.5-9.1,5.3-13.7,7.6c1.5,2.9,3.2,5.8,5,8.5
			C39.5,140.4,45.2,135.9,51,131.5z"/>
		<path class="st2" d="M25.8,127.1c12-6.2,9.9-0.8,7.8-11.5c-3.2-0.2-7.7,2.4-11.3,3.1c0.7,3,1.6,6,2.7,8.8
			C25.2,127.4,25.5,127.3,25.8,127.1z"/>
		<path class="st2" d="M20.5,109.1c4.3-0.7,8.5-1.5,12.8-2.2c1.3-1.7,0.6-5,1.3-7.2c-3.9-1.1-10.1,0.6-14.7,0.4l0,0
			C20,103.1,20.2,106.1,20.5,109.1z"/>
		<path class="st2" d="M156.9,156.2c-11.2-11.8-22.6-23-33.9-34.6c-0.6-0.4-5.8,0.2-5.5,0.7c11.6,15.2,17.9,23.4,31.4,41
			C151.7,161.1,154.4,158.7,156.9,156.2z"/>
		<path class="st2" d="M46.1,159.1c8.6-10.6,15.5-19.3,23.7-29.8c-3.2,1.2-6.9,1.2-10.1,2.3c-6.9,6.7-13.9,13.4-20.8,20.1
			C41.2,154.4,43.6,156.8,46.1,159.1z"/>
		<path class="st2" d="M106.1,112.5c-0.2,2-0.5,4.3,0,6.3c10.2,21.4,14.9,30.1,25.6,54.7c3.4-1.5,6.7-3.2,9.9-5.1
			C130.7,151.2,113.5,124.2,106.1,112.5z"/>
		<path class="st2" d="M69.7,154.7c4.5-10,9.1-20,13.6-30c0.4-0.9-1.2-1.3-1.3-2.2c-0.6-0.6-2.8,2-3.5,2.6
			c-9.4,15-15.1,23.7-25,39.9c3.1,2.2,6.3,4.2,9.7,6C66.1,163.8,69.7,154.8,69.7,154.7z"/>
		<path class="st2" d="M116,154.7c-4-10.8-7.7-21.9-11.8-32.6c-1,1.1-2.2,1.7-3.7,2.1c-0.3,0.1-0.2,0.2-0.2,0.4
			c3.9,18.8,6.4,30.6,11.5,54.5c3.8-0.6,7.4-1.4,11-2.5C120.4,168.6,116,154.8,116,154.7z"/>
		<path class="st2" d="M86.2,154c1.6-9.4,3.3-18.8,5-28.2c-0.4-1-2.8,0.2-3.8-0.1c-0.4,0-0.6,0.1-0.7,0.5
			c-5.9,18.3-8.7,26.7-15.8,48.3c3.9,1.5,7.9,2.8,12.1,3.7C84,169.5,86.1,154.2,86.2,154z"/>
		<path class="st2" d="M100.8,180c-0.8-20.8-1.1-27.3-2.1-43c-0.2-4-0.5-7.9-0.7-11.9c-0.5-1.2-2.7,0.1-3.8-0.1
			c-2.5,18.4-2,30.8-3.7,54.4C93.9,179.8,97.4,180,100.8,180z"/>
		<path class="st2" d="M161.9,115.9c-5-0.2-10.1,1.9-15.2,2.1c9,4.2,18.3,8.1,27.3,12.2c1.3-3.1,2.4-6.3,3.2-9.6
			C172.2,119.1,167,117.5,161.9,115.9z"/>
		<path class="st2" d="M176.3,100.3c-4.9-0.3-9.7-0.6-14.6-0.9c-1,1.1,0,3.8-0.3,5.5c3.7,5.1,12.2,3.4,17.9,5.4
			c0.4-3.2,0.6-6.4,0.6-9.7C178.8,100.4,177.5,100.4,176.3,100.3z"/>
	</g>
	<g>
		<g>
			<path class="st1" d="M126.8,45c-5,7.7-10,15.5-15,23.2c-1.2,1-3.3,0.9-4.7,2c7.6-16.8,12.9-27.2,20.7-45.2
				c-2.8-1.1-5.8-2-8.7-2.7c-19.9,67-23,67.2-9.3-1.7C107,20.3,104,20,101,20c-3.5,66-6.4,69-8.9,0.4c-3,0.3-6,0.8-9,1.4
				c13.2,68.1,11.1,65.4-8.7,2.4c-2.7,0.9-5.4,2-8,3.2c30.7,65.7,24.4,60.8-8.3,4.4c-2.6,1.6-5,3.3-7.4,5.1
				C61.3,50.3,71.9,63.6,82.4,77c0.7,0.7-0.9,1-1.2,1.5c-5.9-2.5-9.9-9.3-15.1-13.4c-0.8-1.4,0.3-3.1,0.1-4.7
				c0.5-6.7-6.7-9.3-12.3-7.5c-3.7-2.6-6.8-6.6-10.3-9.7c-2,1.9-3.8,4-5.5,6.1c2.5,2,5.1,3.9,7.6,5.8c-8.6,2.6-5,6.9-13,1.5
				c-1.6,2.6-3.2,5.2-4.5,8c2.1,1.6,12.5,4.2,11.9,6.5c-0.7,1.8-0.4,5.1-1.7,6.1c-4.6-1.4-9.1-2.9-13.7-4.3c-1,2.9-1.9,5.8-2.6,8.9
				c2.9,1.1,14.6,1.4,15.1,3.5c-1,1.8-0.4,5.1-1.6,6.3c-5-0.3-10-0.6-15-1c-0.4,3-0.5,6.2-0.5,9.3c4.6,0.2,10.8-1.4,14.7-0.4
				c-0.7,2.2-0.1,5.6-1.3,7.2c-4.3,0.7-8.5,1.5-12.8,2.2c0.4,3.3,0.9,6.5,1.7,9.6c13.7-3.4,9.3-6.7,13.4,3.7
				c-2.8,2.1-7.4,3.3-10.7,5.1c1.1,3,2.4,6,3.8,8.8c4.6-2.3,9-6.1,13.7-7.6c2.8,1.4,5.8,2.1,8.9,2.5c-5.7,4.6-11.7,9.1-17.6,13.7
				c1.6,2.4,3.4,4.7,5.3,7c6.9-6.7,13.9-13.4,20.8-20.1c3.1-1.1,6.9-1.1,10.1-2.3c-8.3,10.5-15,19.2-23.8,29.7
				c2.4,2.2,4.9,4.3,7.6,6.1c9.4-16.5,15.4-25.1,24.8-40.1c0.7-0.5,3-3.2,3.5-2.5c0.2,0.9,1.7,1.3,1.3,2.1
				c-8.1,18-12,25.6-20.2,46.2c2.5,1.3,5,2.4,7.6,3.5c6.9-20.9,10-30.4,15.8-48.3c0.8-1.1,2.9-0.3,4.2-0.8c0.3,0,0.4,0,0.4,0.4
				c-3.5,19.7-5.2,29-8.4,52.4c2.6,0.6,5.3,1,8,1.3c1.5-22.5,1.1-36.6,3.5-54.4c1.1,0.2,3.3-1,3.8,0.1c0.2,4,0.5,7.9,0.7,11.9
				c1,15.9,1.2,21.6,1.9,43c3.8,0,7.6-0.3,11.3-0.9c-5.3-24.5-7.6-35.3-11.5-54.5c0-0.2-0.1-0.3,0.2-0.4c1.4-0.4,2.7-1,3.7-2.1
				c7.8,21.2,11,29.5,18.6,54.6c3.1-0.9,6.1-2,9-3.3c-10.3-23.2-15.9-33.9-25.7-54.6c-0.5-2-0.2-4.3,0-6.3
				c7.2,11.4,24.3,38.4,35.3,55.9c2.6-1.6,5.2-3.4,7.6-5.2c-13.4-17.1-20.1-25.9-31.5-40.9c-0.5-0.6,5-1.1,5.5-0.7
				c11.3,11.6,22.8,22.8,33.9,34.6c2.4-2.5,4.7-5.1,6.8-7.9c-11.7-9.3-23.4-18.5-35.1-27.8c1.6-0.6,3.2-1.3,4.1-2.9
				c0.2-0.3,0.3-0.1,0.5,0c12.1,7.3,24.2,14.7,36.3,22c1.7-3,3.2-6.1,4.6-9.4c-9.1-4.1-18.4-8-27.3-12.2c14.6-3,16.6-2.2,30.6,2.6
				c0.9-3.4,1.6-6.9,2.1-10.5c-5.3-1.2-11-1.6-16.1-3.2c-2.4-1.9-1.8-4.6-1.9-7.3c5.5-0.8,12.6,0.8,18.6,0.8c0-3.7-0.2-7.4-0.7-10.9
				c-5.8,0.3-11.6,0.7-17.5,1c-0.3,0-0.5-0.1-0.4-0.6c0.8-2.1-0.5-5.4,0.5-7c5.2-0.9,10.3-1.8,15.5-2.8c-0.8-3.3-1.9-6.6-3.1-9.7
				c-4.4,0.8-9.7,4-13.8,3.7c-0.8-2.4-2.3-4.3-4-6.1c4.6-2,9.2-4.1,13.8-6.1c-1.6-2.9-3.4-5.8-5.3-8.5c-6.3,3.5-12.3,7.8-18.8,10.8
				c-7.3-0.7-14.1,2.9-19.3,7c8.8-8.9,21.8-16.8,31.9-25.4c-2.1-2.3-4.3-4.4-6.6-6.4c-9.7,9.5-19.5,18.9-29.2,28.4
				c-1.7,0.6-4-0.5-6-0.2c9-11.8,18-22.4,27-34.4c-2.3-1.5-4.7-3-7.2-4.2C133,35.3,128,43.1,126.8,45z M64.3,74.8
				c0.4-1,0.2-4.6,1.1-4.6c2.8,2.2,5.6,4.2,8.3,6.4C70.6,75.7,66.2,77.8,64.3,74.8z M109.2,111.2c-0.1,0-0.1,0-0.2,0
				c-1.6-2-3.4-3.7-2.7-6.5c0,0,0.1-0.1,0.1-0.1C108.5,106.5,109.8,108.3,109.2,111.2z M109.4,105.2c0,0-0.1,0-0.1,0
				c-1.3-1.2-3.3-1.8-2.9-3.9C108.1,102.5,109.9,102.9,109.4,105.2z M109.5,100.1c-0.1,0.8,0.2,1.8-0.9,1.1c-0.9-0.5-2.5-0.6-2.1-2
				C106.4,98.5,109.6,99.6,109.5,100.1z M109.6,96.6c0,0.7,0.1,1.1-0.8,0.8c-0.7-0.3-2.1,0-2.3-0.7c0-0.9-0.1-0.8,0.8-0.7
				C108,96.2,109.7,95.6,109.6,96.6z M108.6,93.8c-0.8-0.1-2.2,0.6-2-0.6c0-0.5,3.1-1.1,3.1-0.6C109.8,93.8,109.8,93.8,108.6,93.8z
				 M109.9,89.3c0.3,1.7-1.7,1.3-2.8,1.9c-0.7,0.2-0.4-1.3,0.3-1.3C108.1,89.8,109.9,88.3,109.9,89.3z M135.7,113.2
				c-0.6-0.4-1.9-0.4-2-1.2c0.3-1.3-0.4-3.9,0.4-4.6c4.4,0.5,1.9,3.5,3.3,6.6C136.7,113.7,136.2,113.5,135.7,113.2z M137.1,100.1
				c0,0-0.1,0-0.1,0c0.3,2.9-0.4,2.4-2.8,1.9c-0.8-0.8,0-2.8-0.2-4c0.3-0.9,2,0,2.8-0.2C137.4,98.1,136.9,99.4,137.1,100.1z
				 M137.5,87.7c0,0.7-0.1,1.3-0.1,2c0,0,0,0-0.1,0c0.4,2.8-0.5,2.4-2.9,2.6c-0.9-0.6,0-2.8-0.3-4C134.1,87.8,137.5,87.2,137.5,87.7
				z M120.7,73.1c3.2,0.8,5.3,3,6.9,5.8c5.5-9.8,25.9-15.2,28.8-0.9c1.6,7.5-3,27.1,2.2,31.4c2.5,2.2-4.7,2.2-6,2.7
				c-3.1-0.3-9.6,3.4-10.7-0.7c-0.8-10.2,2.1-20.9-0.1-30.8c-3.3-6.3-11.5-0.1-12.6,5c-1.4,9.6,0.9,21-1.6,29.9
				c-3.2,0-11.5,2.9-13.3,0.6c-2.2-7.1,5.9-35.4-5-34.3c-12.9,3-6.4,23.8-8.5,33.8c1.2,6.3-8.9,3.6-12.8,4.9c-3.8,0-1.4-7-2.4-9.6
				c-0.7,0.3-1.4,0.4-2.2,0.6c-5.8,14.9-39.4,23-44.7,4.6c-0.7-15.6,3.9-31.1,6.9-46.3c0.8-2.6-2-3.5-3.7-4.7
				c-2.1-4.8,11.4-6.7,14.8-7.6c4-1.1,5.1,2.3,4.1,5.6c-1,7.5-2.2,14.9-3.3,22.4c7.3-4.8,18.2-6.5,24.9,0.4c0.4-0.1,0.7-0.1,1.1-0.2
				c0.1-5.8,8.3-7.4,12.5-9.9c3.3-1.5,4,3.2,4.8,5.3C105.7,75.9,113.2,71.7,120.7,73.1z"/>
		</g>
	</g>
</g>
</svg>
