<?xml version="1.0" encoding="utf-8"?>
<!-- Generator: Adobe Illustrator 24.3.0, SVG Export Plug-In . SVG Version: 6.00 Build 0)  -->
<svg version="1.1" id="Layer_1" xmlns="http://www.w3.org/2000/svg" xmlns:xlink="http://www.w3.org/1999/xlink" x="0px" y="0px"
	 viewBox="0 0 200 200" style="enable-background:new 0 0 200 200;" xml:space="preserve">
<g>
	<path d="M29.7,87.9c0,0.1,0,0.2,0,0.3c0,3.1,0,6.2,0,9.2c0,0.1,0,0.2,0,0.3c0.1,0,0.1,0,0.1,0c0-0.1,0.1-0.1,0.1-0.2
		c0.6-1.1,1.5-1.8,2.6-2.2c0.6-0.2,1.2-0.3,1.7-0.4c1.4-0.2,2.9-0.2,4.3-0.2c0.7,0,1.3,0,2,0.1c1.1,0.1,2.2,0.2,3.3,0.5
		c0.3,0.1,0.7,0.2,1,0.3c1.4,0.6,2.3,1.5,2.7,2.9c0.2,0.6,0.3,1.1,0.4,1.7c0.2,1.2,0.2,2.4,0.2,3.6c0,0.6,0,1.2-0.1,1.8
		c-0.1,0.8-0.2,1.6-0.4,2.4c-0.1,0.2-0.2,0.5-0.3,0.7c-0.4,1-1.1,1.6-2,2.1c-0.6,0.3-1.2,0.5-1.8,0.6c-0.6,0.1-1.3,0.3-1.9,0.3
		c-0.7,0.1-1.3,0.1-2,0.2c-0.1,0-0.2,0-0.3,0c-1.1,0-2.2,0-3.3,0c0,0-0.1,0-0.1,0c-0.3,0-0.5,0-0.8-0.1c-0.6,0-1.3-0.1-1.9-0.3
		c-0.5-0.1-1-0.3-1.5-0.5c-0.7-0.4-1.2-0.9-1.5-1.5c-0.1-0.2-0.2-0.4-0.4-0.7c0,0,0-0.1-0.1-0.1c0,0.1,0,0.2,0,0.2
		c0,0.8,0,1.5,0,2.3c0,0.1,0,0.2,0,0.3c-0.1,0-0.2,0-0.2,0c-1.4,0-2.8,0-4.2,0c-0.1,0-0.2,0-0.2,0c0-7.9,0-15.9,0-23.8
		C26.6,87.9,28.2,87.9,29.7,87.9z M36.5,108.5c0.8,0,1.5-0.1,2.2-0.1c0.6,0,1.2-0.1,1.8-0.2c0.4-0.1,0.9-0.2,1.3-0.4
		c0.5-0.3,0.9-0.7,1.2-1.2c0.2-0.4,0.3-0.8,0.3-1.2c0.1-0.5,0.1-0.9,0.1-1.4c0-0.9,0-1.8-0.1-2.7c-0.1-0.4-0.1-0.7-0.3-1.1
		c-0.3-0.6-0.7-1.1-1.3-1.4c-0.2-0.1-0.4-0.2-0.6-0.2c-0.7-0.2-1.4-0.3-2.1-0.3c-0.7,0-1.4,0-2.1,0c-1,0-1.9,0-2.9,0.1
		c-0.5,0-0.9,0.1-1.4,0.2c-0.4,0.1-0.7,0.2-1.1,0.4c-0.6,0.3-1,0.8-1.2,1.4c-0.1,0.3-0.2,0.7-0.3,1c-0.1,0.5-0.1,1-0.1,1.5
		c0,0.8,0,1.7,0.1,2.5c0.1,0.4,0.1,0.8,0.3,1.2c0.2,0.6,0.7,1,1.2,1.3c0.3,0.1,0.6,0.2,0.9,0.3c0.6,0.1,1.3,0.2,1.9,0.2
		C35.1,108.5,35.8,108.5,36.5,108.5z"/>
	<path d="M59.6,112.1c-0.1,0-0.2,0-0.2,0c-0.6,0-1.3-0.1-1.9-0.1c-1-0.1-2-0.2-2.9-0.5c-0.4-0.1-0.7-0.2-1.1-0.4
		c-1.1-0.5-1.8-1.3-2.2-2.4c-0.2-0.5-0.4-1.1-0.4-1.6c-0.1-0.7-0.2-1.5-0.2-2.2c0-1.1,0-2.1,0-3.2c0-0.9,0.1-1.7,0.3-2.6
		c0.1-0.5,0.3-0.9,0.5-1.3c0.3-0.6,0.8-1.1,1.4-1.5c0.7-0.5,1.5-0.8,2.3-0.9c0.6-0.1,1.2-0.2,1.8-0.3c0.7-0.1,1.4-0.1,2.1-0.2
		c1.2-0.1,2.3-0.1,3.5-0.1c0.6,0,1.2,0,1.8,0c0.7,0,1.5,0.1,2.2,0.1c0.7,0.1,1.4,0.2,2.1,0.3c0.6,0.1,1.2,0.3,1.7,0.6
		c0.3,0.1,0.6,0.3,0.8,0.5c0.8,0.6,1.4,1.3,1.7,2.3c0.1,0.4,0.2,0.9,0.3,1.4c0.2,1.2,0.2,2.4,0.2,3.5c0,0.6,0,1.2-0.1,1.8
		c-0.1,1-0.2,2-0.5,3c-0.1,0.3-0.2,0.7-0.4,1c-0.2,0.4-0.5,0.7-0.8,1c-0.8,0.6-1.7,1.1-2.8,1.3c-0.6,0.1-1.2,0.2-1.8,0.3
		c-1.2,0.1-2.3,0.2-3.5,0.3c-0.1,0-0.2,0-0.3,0C62.1,112.1,60.9,112.1,59.6,112.1z M61.9,108.5C61.9,108.5,61.9,108.5,61.9,108.5
		c0.5,0,1,0,1.4,0c0.8,0,1.7-0.1,2.5-0.2c0.4-0.1,0.7-0.1,1-0.3c0.6-0.2,1.1-0.7,1.4-1.3c0.1-0.2,0.1-0.4,0.2-0.5
		c0.2-0.5,0.2-1.1,0.2-1.6c0-0.9,0-1.9,0-2.8c0-0.5-0.1-1-0.3-1.4c-0.3-0.8-0.8-1.3-1.5-1.6c-0.4-0.1-0.8-0.2-1.2-0.3
		c-0.7-0.1-1.3-0.2-2-0.2c-0.9,0-1.8,0-2.7,0c-0.8,0-1.7,0.1-2.5,0.2c-0.4,0.1-0.8,0.2-1.2,0.3c-0.7,0.2-1.1,0.7-1.5,1.3
		c-0.1,0.2-0.2,0.4-0.3,0.7c-0.2,0.6-0.2,1.1-0.2,1.7c0,0.8,0,1.7,0,2.5c0,0.4,0.1,0.9,0.2,1.3c0.3,0.8,0.8,1.4,1.6,1.7
		c0.4,0.1,0.8,0.2,1.2,0.3c0.7,0.1,1.3,0.1,2,0.2C60.9,108.5,61.4,108.5,61.9,108.5z"/>
	<path d="M161.2,112.1c-0.1,0-0.1,0-0.2,0c-0.4,0-0.8,0-1.2-0.1c-1.1-0.1-2.2-0.2-3.3-0.4c-0.5-0.1-1.1-0.3-1.5-0.5
		c-1-0.5-1.7-1.3-2.1-2.3c-0.2-0.5-0.4-1.1-0.5-1.6c-0.1-0.6-0.2-1.3-0.2-2c-0.1-0.9-0.1-1.9,0-2.8c0-0.8,0.1-1.6,0.2-2.4
		c0.1-0.6,0.2-1.2,0.5-1.8c0.4-0.9,1-1.6,1.8-2c0.8-0.4,1.6-0.7,2.4-0.9c0.9-0.1,1.8-0.2,2.7-0.3c1.4-0.1,2.8-0.2,4.2-0.2
		c1.1,0,2.2,0,3.3,0.1c1,0.1,1.9,0.2,2.9,0.3c0.8,0.1,1.5,0.4,2.2,0.7c0.3,0.1,0.6,0.3,0.8,0.5c0.8,0.6,1.3,1.4,1.5,2.3
		c0.2,0.6,0.2,1.1,0.3,1.7c0,0.4,0,0.8,0.1,1.2c0,0.1,0,0.2,0,0.3c0,1,0,1.9,0,2.9c0,0.1,0,0.2,0,0.3c0,0.2,0,0.4,0,0.6
		c-0.1,0.5-0.1,1-0.2,1.5c-0.1,0.6-0.3,1.2-0.5,1.7c-0.2,0.6-0.6,1-1.1,1.4c-0.9,0.6-1.8,1-2.8,1.2c-1,0.2-2,0.3-3,0.3
		c-0.7,0.1-1.4,0.1-2.1,0.1c-0.1,0-0.2,0-0.3,0C163.7,112.1,162.4,112.1,161.2,112.1z M163.4,108.5
		C163.4,108.5,163.4,108.5,163.4,108.5c0.5,0,1,0,1.4,0c0.8,0,1.7-0.1,2.5-0.2c0.4-0.1,0.8-0.1,1.1-0.3c0.6-0.2,1-0.6,1.3-1.2
		c0.1-0.2,0.2-0.4,0.3-0.7c0.2-0.6,0.2-1.2,0.2-1.8c0-1,0-1.9-0.1-2.9c-0.1-0.4-0.1-0.9-0.3-1.3c-0.3-0.7-0.7-1.2-1.4-1.5
		c-0.1,0-0.2-0.1-0.3-0.1c-0.4-0.2-0.9-0.2-1.3-0.3c-0.6-0.1-1.3-0.1-1.9-0.1c-0.8,0-1.7,0-2.5,0c-0.8,0-1.6,0.1-2.5,0.2
		c-0.5,0.1-0.9,0.2-1.3,0.3c-0.4,0.2-0.7,0.4-1,0.7c-0.3,0.3-0.5,0.7-0.6,1.1c-0.1,0.5-0.2,1-0.2,1.5c-0.1,1-0.1,2,0,2.9
		c0,0.4,0.1,0.9,0.3,1.3c0.3,0.7,0.7,1.2,1.5,1.5c0.4,0.2,0.8,0.3,1.3,0.3c0.7,0.1,1.3,0.1,2,0.2
		C162.4,108.5,162.9,108.5,163.4,108.5z"/>
	<path d="M85,112.1c-0.1,0-0.1,0-0.2,0c-0.6,0-1.2-0.1-1.9-0.1c-1.1-0.1-2.1-0.2-3.1-0.5c-0.4-0.1-0.8-0.3-1.1-0.5
		c-0.9-0.5-1.6-1.2-2-2.1c-0.2-0.5-0.4-1.1-0.5-1.7c-0.1-0.8-0.2-1.6-0.2-2.4c0-0.9,0-1.9,0-2.8c0-0.9,0.1-1.8,0.3-2.6
		c0.1-0.5,0.2-0.9,0.4-1.4c0.4-0.8,0.9-1.4,1.7-1.8c0.8-0.5,1.6-0.8,2.5-0.9c0.7-0.1,1.4-0.2,2.1-0.3c1.6-0.2,3.2-0.2,4.8-0.2
		c1.1,0,2.2,0,3.3,0.1c1,0.1,2,0.2,2.9,0.3c0.6,0.1,1.3,0.3,1.8,0.5c0.3,0.1,0.5,0.2,0.8,0.4c1,0.6,1.6,1.4,1.9,2.5
		c0.1,0.5,0.2,1,0.3,1.5c0.2,1.6,0.2,3.2,0.1,4.9c0,1.1-0.2,2.1-0.5,3.1c-0.1,0.4-0.2,0.8-0.4,1.1c-0.2,0.4-0.5,0.8-0.9,1.1
		c-0.8,0.6-1.7,1.1-2.7,1.3c-0.6,0.1-1.2,0.2-1.8,0.3c-1.2,0.1-2.3,0.2-3.5,0.3c-0.1,0-0.2,0-0.3,0C87.5,112.1,86.2,112.1,85,112.1z
		 M87.3,108.5c1.2,0,2.4,0,3.6-0.2c0.5-0.1,0.9-0.1,1.4-0.3c0.7-0.2,1.2-0.7,1.5-1.4c0.1-0.3,0.2-0.7,0.3-1.1
		c0.1-0.4,0.1-0.9,0.1-1.3c0-1,0-2-0.1-3.1c-0.1-0.4-0.2-0.7-0.3-1.1c-0.3-0.6-0.7-1-1.3-1.3c-0.1-0.1-0.2-0.1-0.4-0.2
		c-0.4-0.2-0.9-0.2-1.4-0.3c-0.6-0.1-1.3-0.1-1.9-0.1c-0.8,0-1.7,0-2.5,0c-0.8,0-1.6,0.1-2.5,0.2c-0.5,0.1-0.9,0.2-1.3,0.3
		c-0.4,0.2-0.7,0.4-1,0.7c-0.3,0.3-0.4,0.7-0.6,1.1c-0.1,0.5-0.2,0.9-0.2,1.4c-0.1,1-0.1,2.1,0,3.1c0,0.4,0.1,0.8,0.2,1.1
		c0.3,0.8,0.8,1.3,1.5,1.6c0.4,0.2,0.8,0.3,1.3,0.3c0.7,0.1,1.4,0.1,2.1,0.2C86.3,108.5,86.8,108.5,87.3,108.5z"/>
	<path d="M135.7,112.1c-0.1,0-0.1,0-0.2,0c-0.6,0-1.2-0.1-1.9-0.1c-1-0.1-2-0.2-3-0.5c-0.4-0.1-0.8-0.3-1.2-0.5
		c-1-0.5-1.6-1.2-2.1-2.2c-0.2-0.6-0.4-1.2-0.5-1.8c-0.1-0.8-0.2-1.6-0.2-2.4c0-0.9,0-1.8,0-2.7c0-0.9,0.1-1.9,0.3-2.8
		c0.1-0.4,0.2-0.8,0.4-1.2c0.4-0.8,0.9-1.3,1.6-1.8c0.8-0.5,1.6-0.8,2.5-0.9c0.9-0.1,1.8-0.2,2.7-0.3c1.4-0.1,2.8-0.2,4.2-0.2
		c1.1,0,2.2,0,3.3,0.1c1,0.1,1.9,0.2,2.9,0.3c0.8,0.1,1.5,0.4,2.2,0.7c0.4,0.2,0.8,0.5,1.2,0.8c0.6,0.5,1,1.2,1.2,2
		c0.2,0.5,0.2,1,0.3,1.5c0.2,1.5,0.2,3,0.1,4.5c0,1.1-0.2,2.1-0.4,3.2c-0.1,0.4-0.3,0.8-0.4,1.2c-0.2,0.5-0.6,0.9-1,1.2
		c-0.8,0.6-1.7,1-2.7,1.2c-0.7,0.1-1.5,0.2-2.2,0.3c-1,0.1-2.1,0.1-3.1,0.2c-0.1,0-0.2,0-0.2,0C138.2,112.1,136.9,112.1,135.7,112.1
		z M138,108.5c1.1,0,2.1,0,3.2-0.1c0.4,0,0.9-0.1,1.3-0.2c0.3-0.1,0.6-0.2,0.9-0.3c0.6-0.3,0.9-0.8,1.1-1.4c0.2-0.5,0.3-1.1,0.3-1.6
		c0.1-1,0.1-2.1,0-3.1c0-0.4-0.1-0.8-0.2-1.2c-0.3-0.9-0.8-1.5-1.7-1.8c-0.5-0.2-0.9-0.2-1.4-0.3c-0.6-0.1-1.3-0.1-1.9-0.1
		c-0.8,0-1.7,0-2.5,0c-0.8,0-1.6,0.1-2.5,0.2c-0.4,0.1-0.9,0.2-1.3,0.3c-0.4,0.2-0.7,0.4-1,0.7c-0.3,0.3-0.4,0.7-0.6,1.1
		c-0.1,0.4-0.2,0.9-0.2,1.3c-0.1,1.1-0.1,2.3,0,3.4c0,0.4,0.1,0.7,0.2,1.1c0.3,0.7,0.7,1.2,1.5,1.5c0.4,0.2,0.9,0.3,1.3,0.3
		c0.7,0.1,1.4,0.1,2,0.2C137,108.5,137.5,108.5,138,108.5z"/>
	<path d="M106.6,87.9c0,0.1,0,0.2,0,0.3c0,3.2,0,6.3,0,9.5c0,0.1,0,0.2,0,0.3c0.1,0,0.1,0,0.1-0.1c0.1-0.1,0.1-0.2,0.2-0.3
		c0.5-1.2,1.4-1.9,2.6-2.3c0.5-0.2,1-0.3,1.6-0.4c1.4-0.2,2.8-0.2,4.3-0.2c0.5,0,0.9,0,1.4,0.1c1,0.1,2.1,0.2,3.1,0.6
		c0.3,0.1,0.5,0.2,0.8,0.3c1.2,0.6,2,1.5,2.4,2.7c0.2,0.5,0.3,1.1,0.4,1.6c0.1,0.7,0.1,1.5,0.1,2.2c0,3.1,0,6.2,0,9.3
		c0,0.1,0,0.2,0,0.3c-0.1,0-0.1,0-0.1,0c-0.1,0-0.2,0-0.4,0c-1.3,0-2.6,0-3.8,0c-0.1,0-0.2,0-0.3,0c0-0.1,0-0.1,0-0.2
		c0-0.1,0-0.1,0-0.2c0-2.8,0-5.5,0-8.3c0-0.5,0-1,0-1.5c0-0.4-0.1-0.8-0.2-1.1c-0.2-0.5-0.5-1-1-1.3c-0.4-0.2-0.8-0.4-1.3-0.5
		c-0.5-0.1-0.9-0.2-1.4-0.2c-1-0.1-2-0.1-3,0c-0.8,0-1.5,0.1-2.3,0.3c-0.3,0.1-0.6,0.2-0.9,0.3c-1,0.4-1.7,1.2-1.9,2.3
		c-0.1,0.6-0.2,1.2-0.2,1.7c0,2.8,0,5.5,0,8.3c0,0.1,0,0.2,0,0.3c-0.1,0.1-0.2,0-0.3,0c-1.2,0-2.5,0-3.7,0c-0.2,0-0.3,0-0.5,0
		c0,0-0.1,0-0.2,0c0-0.1,0-0.1,0-0.1c0-0.1,0-0.2,0-0.3c0-7.7,0-15.4,0-23c0-0.1,0-0.2,0-0.3C103.5,87.9,105,87.9,106.6,87.9z"/>
</g>
</svg>
