<?xml version="1.0" encoding="utf-8"?>
<!-- Generator: Adobe Illustrator 27.9.0, SVG Export Plug-In . SVG Version: 6.00 Build 0)  -->
<svg version="1.1"
	 id="svg4" xmlns:rdf="http://www.w3.org/1999/02/22-rdf-syntax-ns#" xmlns:svg="http://www.w3.org/2000/svg" xmlns:cc="http://creativecommons.org/ns#" xmlns:dc="http://purl.org/dc/elements/1.1/"
	 xmlns="http://www.w3.org/2000/svg" xmlns:xlink="http://www.w3.org/1999/xlink" x="0px" y="0px" viewBox="0 0 200 200"
	 style="enable-background:new 0 0 200 200;" xml:space="preserve">
<style type="text/css">
	.st0{fill:#25A7A5;}
	.st1{fill:#FDFEFE;}
	.st2{fill:#E9AF02;}
</style>
<rect class="st0" width="200" height="200"/>
<g>
	<path class="st1" d="M141,91.9c-1.1,0.8-1.4,1.9-0.8,3.3c-1.4-0.2-2.6-0.6-3.9-1c0,0.2,0.1,0.2,0.2,0.3c0.6,0.4,1.2,0.7,1.8,1.1
		c0.2,0.1,0.3,0.2,0.3,0.4c0.7,3.3-0.1,6.2-2.4,8.7c-0.4,0.5-0.9,0.9-1.6,0.8c-0.4,0-0.8,0.1-1.2,0.1c0.3,0.2,0.7,0.3,1,0.4
		c0.6,0.1,1.1,0.4,1.5,0.9c2.6,2.7,3.5,5.8,2.5,9.4c-1,3.6-3.5,5.8-7.1,6.5c-5.2,1.1-10.3-2.5-11.1-7.8c-0.2-1.2-0.1-2.4,0.2-3.7
		c0-0.1,0-0.1,0.1-0.2c0.3,0.5,0.6,1,1.2,1.2c0.6,0.2,1.2,0.1,1.8-0.1c-0.1,0.4-0.1,0.8-0.1,1.1c0,3.4,2.8,6.1,6.1,6
		c3.2-0.1,5.6-2.5,5.8-5.6c0.2-3-1.8-5.6-4.8-6.2c-0.4-0.1-0.9-0.1-1.3-0.1c-4.1-0.1-7.6-2.9-8.7-6.8c-1.5-5.5,2.1-11,7.7-11.8
		c1.7-0.3,3.3,0,4.8,0.6c2.5,1,5.1,1.7,7.7,2.2C140.8,91.8,140.9,91.7,141,91.9z M129.4,104.1c3.3,0,6-2.7,6-6c0-3.3-2.7-6-6-6
		c-3.3,0-6,2.7-6,6C123.4,101.4,126.1,104.1,129.4,104.1z M136.2,94.2C136.2,94.2,136.2,94.2,136.2,94.2c-0.1-0.1-0.1-0.1-0.1,0
		C136.1,94.2,136.1,94.2,136.2,94.2C136.2,94.3,136.2,94.3,136.2,94.2z"/>
	<path class="st1" d="M28.1,91.8c-0.2,0-0.3,0.1-0.5,0.2c-0.5,0.3-1,0.6-1.6,0.9c-0.1,0-0.1,0.1-0.2,0c0-5.3,0-10.6-0.1-16
		c0.4,0.2,0.6,0.4,0.9,0.6c0.3,0.1,0.6,0.2,1,0.2c0.4,0,0.7-0.1,1-0.3c0.3-0.2,0.5-0.4,0.9-0.7c0,2.4,0,4.6,0,6.9c0,2.3,0,4.6,0,6.8
		c0.1,0.1,0.2,0,0.3-0.1c2.1-1.6,4.5-2.2,7.1-2.1c4.8,0.2,8.9,3.9,9.8,8.7c1,5.8-2.6,11.1-8.4,12.3c-5.8,1.1-11.2-2.6-12.4-8.1
		c-0.2-0.7-0.2-1.4,0.4-1.9c0.2-0.2,0.4-0.5,0.5-0.8c0.1-0.1,0.1-0.2,0-0.3c0,0,0,0.1,0.1,0.1c0,0,0,0,0,0c0,0,0,0-0.1-0.1
		c0,0.1-0.1,0.1-0.1,0.2c-0.8,0.5-1.5,1-2.3,1.5c-0.7,0.4-1.5,0.8-2.2,1.2c-0.1,0.1-0.3,0.1-0.5,0.2c0-0.5,0.1-0.9,0-1.3
		c-0.1-0.4-0.3-0.8-0.6-1.2c-0.3-0.3-0.7-0.5-1.1-0.8c0.1-0.2,0.3-0.2,0.4-0.2c2.6-1.2,4.9-2.9,6.9-5C27.6,92.3,27.9,92,28.1,91.8
		C28.1,91.8,28.1,91.8,28.1,91.8C28.1,91.7,28.1,91.8,28.1,91.8z M36.3,91.9c-3.9,0-6.8,3-6.9,6.5c-0.2,3.9,2.8,7,6.4,7.2
		c3.8,0.2,7.2-2.7,7.3-6.7C43.1,95,40.1,92,36.3,91.9z"/>
	<path class="st1" d="M73.3,88.4c1.4,0.9,2.8,1,4.2,0.1c2.8,5.5,5.5,11,8.3,16.6c0.1-0.2,0-0.3,0-0.4c-0.2-0.7-0.3-1.3-0.5-2
		c-0.1-0.3-0.1-0.5,0.1-0.7c1.8-3.8,3.7-7.7,5.5-11.5c0.3-0.6,0.6-1.2,0.9-1.9c0.1-0.2,0.2-0.3,0.4-0.3c1.2,0,2.4,0.1,3.5,0.1
		c0.1,0,0.1,0,0.2,0c0,0.2-0.1,0.2-0.1,0.4c-5.6,11.8-11.2,23.7-16.8,35.5c-0.1,0.3-0.3,0.4-0.6,0.4c-1.2-0.1-2.4-0.1-3.5-0.1
		c-0.1-0.2,0.1-0.3,0.1-0.5c2.3-4.8,4.6-9.6,6.8-14.5c0.3-0.6,0.6-1.2,0.9-1.8c0.1-0.3,0.1-0.5,0-0.8c-1.5-3-3-5.9-4.5-8.9
		c-1.6-3-3.1-6.1-4.7-9.1C73.4,88.7,73.3,88.6,73.3,88.4z M85.9,105C85.9,105,85.9,105,85.9,105C85.9,105.1,85.9,105.1,85.9,105
		C85.9,105.1,85.9,105.1,85.9,105C85.9,105,85.9,105,85.9,105z"/>
	<path class="st1" d="M116.5,109.6c-1.5-0.7-2.1-0.7-3.7,0.1c0-1.4,0-2.8,0-4.3c-0.1,0.1-0.2,0.2-0.2,0.3c-0.1,0.5-0.3,1-0.4,1.5
		c-0.1,0.2-0.2,0.4-0.4,0.5c-1.4,0.9-3,1.5-4.7,1.7c-3.3,0.3-6.1-0.6-8.5-2.9c-2.3-2.3-3.4-5.1-3.2-8.3c0.3-4.6,3.7-8.7,8.4-9.7
		c5.8-1.2,11.7,2.8,12.6,8.7c0.1,0.7,0.2,1.3,0.2,2c0,3.3,0,6.7,0,10C116.5,109.3,116.5,109.5,116.5,109.6z M105.9,91.8
		c-4,0-7.2,3.2-7.2,7.1c0,4,3.2,7.2,7.1,7.2c4,0,7.2-3.2,7.2-7.1C113,95,109.9,91.8,105.9,91.8z"/>
	<path class="st1" d="M50,94.2c0-1.7,0-3.4,0-5.2c0-0.2,0-0.3,0-0.5c0-0.2,0.1-0.3,0.3-0.3c0.9,0,1.9,0,2.8,0c0.2,0,0.3,0.1,0.3,0.3
		c0,0.1,0,0.2,0,0.4c0,3.2,0,6.4,0,9.7c0,1.4,0.2,2.7,0.8,4c0.7,1.7,1.9,2.9,3.7,3.4c3.1,0.9,7-0.6,8.3-4.3c0.4-1.1,0.6-2.3,0.6-3.5
		c0-3.1,0-6.2,0-9.3c0-0.6-0.1-0.6,0.6-0.6c0.9,0,1.8,0,2.7,0c0.4,0,0.4,0,0.4,0.4c0,3.4,0.1,6.8,0,10.2c-0.1,2.4-0.8,4.7-2.1,6.8
		c-1.5,2.3-3.7,3.5-6.3,3.9c-1.7,0.3-3.4,0.3-5-0.2c-2.9-0.8-4.9-2.7-6-5.6c-0.5-1.4-0.8-2.8-0.8-4.3C49.9,97.7,50,96,50,94.2z"/>
	<path class="st1" d="M161.6,82.6c-0.2-0.1-0.2-0.2-0.4-0.3c-0.6-0.5-1.2-0.6-1.9-0.3c-0.7,0.3-1,0.8-1,1.5c0,1.7,0,3.4,0,5.1
		c0,0.3,0,0.3,0.3,0.3c1.1,0,2.1,0,3.2,0c0.2,0,0.3,0,0.5,0c-0.1,0.4-0.4,0.6-0.5,1c-0.1,0.4-0.1,0.8,0,1.2c0.1,0.4,0.3,0.7,0.5,1
		c-0.1,0.1-0.2,0.1-0.4,0.1c-1.1,0-2.2,0-3.4,0c-0.4,0-0.4,0-0.4,0.4c0,1.9,0,3.8,0,5.8c0,3.6,0,7.2,0,10.8c0,0.1,0,0.2,0,0.4
		c0,0.2-0.1,0.2-0.2,0.2c-1.1,0-2.2,0-3.3,0c-0.2,0-0.3-0.1-0.2-0.2c0-0.4,0-0.8,0-1.2c0-3.9,0-7.9,0-11.8c0-1,0-2.1,0-3.1
		c0-0.4,0-0.4,0.4-0.6c0.6-0.2,1.2-0.4,1.7-0.6c-0.2-0.1-0.3-0.1-0.5-0.1c-1.8,0-3.6,0-5.5,0c-0.1,0-0.2,0-0.3,0
		c-0.2,0-0.3-0.1-0.3-0.3c0-0.9,0-1.8,0-2.8c0-0.2,0.1-0.3,0.3-0.3c0.8,0,1.7,0,2.5,0c0.4,0,0.7,0,1.1,0c0.4,0,0.4,0,0.4-0.4
		c0-1.6,0-3.2,0-4.8c0-0.4,0-0.9,0.1-1.3c0.5-2.2,1.9-3.6,4-4.2c2.2-0.6,4.1,0.1,5.6,1.7c0.1,0.1,0.1,0.1,0.2,0.2
		c0.1,0.1,0.1,0.2,0,0.2c0,0,0,0,0,0C163.4,81.1,162.5,81.9,161.6,82.6z"/>
	<path class="st1" d="M179.2,89.1c-0.9,1.1-0.8,2.2,0,3.3c-0.2,0.1-0.3,0.1-0.4,0.1c-1.4,0-2.9,0-4.3,0c-0.1,0-0.2,0-0.3,0
		c-0.2,0-0.3,0.1-0.2,0.2c0,0.1,0,0.2,0,0.3c0,3.7,0,7.4,0,11.1c0,0.2,0,0.3,0,0.5c0.1,0.7,0.4,1.2,1.1,1.5c0.7,0.3,1.3,0.2,1.8-0.3
		c0.1-0.1,0.1-0.2,0.3-0.2c0.2,1.7,1.4,2.2,2.9,2.3c0,0.2-0.1,0.3-0.2,0.4c-1.6,1.7-3.5,2.3-5.7,1.6c-2.2-0.6-3.5-2.2-3.9-4.4
		c-0.1-0.3-0.1-0.7-0.1-1.1c0-3.8,0-7.6,0-11.4c0-0.1,0-0.1,0-0.2c0-0.2-0.1-0.3-0.3-0.3c-0.1,0-0.2,0-0.3,0c-1.2,0-2.5,0-3.7,0
		c-0.5,0-0.5,0-0.5-0.5c0-0.8,0-1.7,0-2.5c0-0.3,0-0.4,0.4-0.4c1.2,0,2.4,0,3.6,0c0.1,0,0.3,0,0.4,0c0.3,0,0.4,0,0.4-0.4
		c0-1.5,0-2.9,0-4.4c0-0.1,0-0.2,0-0.4c0-0.2,0.1-0.2,0.3-0.2c1.1,0,2.2,0,3.3,0c0.2,0,0.2,0.1,0.2,0.3c0,0.1,0,0.2,0,0.3
		c0,1.4,0,2.8,0,4.2c0,0.6-0.1,0.6,0.6,0.6c1.4,0,2.8,0,4.2,0C178.8,89.1,179,89.1,179.2,89.1z"/>
	<path class="st2" d="M142.9,88.2c-0.6-0.9-1.4-1.2-2.4-1c0.5-1.1,0.9-2.1,1.3-3.2c-1.5,0.2-2.7-0.2-3.8-1.2
		c-0.7-0.7-1.1-1.5-1.2-2.4c-0.3-1.8,0.6-3.6,2.3-4.5c1.5-0.8,3.7-0.8,5.4,1.2c0.9-1.1,2-1.6,3.4-1.6c0.9,0,1.8,0.3,2.5,0.8
		c1.5,1.1,2.2,3,1.6,4.8c-0.3,1-1,1.8-1.9,2.4c-0.9,0.6-1.9,0.7-3.1,0.5c0.5,1,1,1.9,1.6,3c-1-0.1-1.8,0.2-2.3,1.2
		c-0.6-1.2-1.2-2.3-1.9-3.4C143.9,85.9,143.4,87.1,142.9,88.2z M143.4,79.8c0-1.3-1.1-2.4-2.4-2.4c-1.3,0-2.4,1.1-2.4,2.4
		c0,1.3,1.1,2.4,2.4,2.4C142.3,82.2,143.4,81.1,143.4,79.8z M150.2,79.8c0-1.3-1-2.4-2.3-2.4c-1.3,0-2.4,1-2.4,2.4
		c0,1.3,1,2.4,2.3,2.4C149.1,82.2,150.2,81.1,150.2,79.8z"/>
	<path class="st1" d="M146.5,89.6c0.1,0.2,0,0.4,0.1,0.6c0,6.3,0,12.6,0,18.9c0,0.7,0.1,0.6-0.6,0.6c-0.9,0-1.8,0-2.7,0
		c-0.5,0-0.4,0-0.4-0.5c0-0.9,0-1.8,0-2.7c0-5.4-0.1-10.9-0.1-16.3c0-0.2,0-0.3,0-0.6c0.6,0.5,1.2,0.8,1.9,0.8
		C145.3,90.3,145.9,90,146.5,89.6z"/>
</g>
</svg>
