<?xml version="1.0" encoding="utf-8"?>
<!-- Generator: Adobe Illustrator 24.3.0, SVG Export Plug-In . SVG Version: 6.00 Build 0)  -->
<svg version="1.1" id="Layer_1" xmlns="http://www.w3.org/2000/svg" xmlns:xlink="http://www.w3.org/1999/xlink" x="0px" y="0px"
	 viewBox="0 0 200 200" style="enable-background:new 0 0 200 200;" xml:space="preserve">
<style type="text/css">
	.st0{fill:#FFFFFF;}
	.st1{fill:#016491;}
	.st2{fill:#E21937;}
</style>
<g>
	<path class="st0" d="M25,101.4c-0.6,0-1.2-0.3-1.6-0.7l-2.5-2.5c-2.3-2.3-4.7-4.7-7-7c-1-1-0.9-2.4,0.1-3.4
		c0.7-0.7,4.7-4.7,4.7-4.7c1.8-1.8,3.5-3.5,5.3-5.3c0.1-0.1,0.1-0.1,0.2-0.1l11.1-11.1c0.5-0.5,1.1-0.7,1.7-0.7
		c0.6,0,1.2,0.3,1.7,0.8l9.4,9.4c0.5,0.5,0.7,1,0.8,1.7c0,0.7-0.3,1.3-0.8,1.8c-1.9,1.9-7.7,7.7-7.7,7.7c-0.8,0.8-1.5,1.5-2.3,2.3
		l-0.1,0.1l-0.1,0.1l-1,1l-0.1,0.1c-3.3,3.3-6.6,6.6-9.9,9.9C26.5,100.9,25.9,101.4,25,101.4L25,101.4L25,101.4z"/>
	<g>
		<path class="st1" d="M52.3,90.8c0-3,0-6,0-9c0-0.6,0.1-0.7,0.7-0.7c2.7,0,5.3,0,8,0c2,0,4,0.4,5.8,1.3c2.9,1.6,4.4,4.1,4.7,7.3
			c0.2,2-0.1,4-1.1,5.8c-1.3,2.5-3.5,3.9-6.3,4.6c-1,0.3-2.1,0.4-3.2,0.4c-2.7,0-5.4,0-8,0c-0.6,0-0.7-0.1-0.7-0.7
			C52.3,96.8,52.3,93.8,52.3,90.8z M58.2,90.8c0,1.4,0,2.8,0,4.3c0,0.3,0.1,0.4,0.4,0.4c0.8,0,1.6,0,2.4,0c0.6,0,1.3-0.1,1.9-0.3
			c2-0.7,3.1-2.8,2.9-4.9c-0.3-2.2-1.5-3.6-3.8-3.9c-1.2-0.2-2.3,0-3.5-0.1c-0.3,0-0.2,0.2-0.2,0.3C58.2,88,58.2,89.4,58.2,90.8z"/>
		<path class="st1" d="M94.3,88c1.5-1.4,3.3-2,5.3-1.8c1.6,0.1,2.8,0.9,3.4,2.4c0.8-1.1,1.9-1.8,3.2-2.2c1.2-0.3,2.4-0.3,3.6,0.1
			c1.4,0.5,2.3,1.8,2.4,3.4c0,1.6,0,3.2,0,4.7c0,1.8,0,3.5,0,5.3c0,0.6-0.1,0.7-0.7,0.7c-1.3,0-2.5,0-3.8,0c-0.6,0-0.8-0.1-0.8-0.8
			c0-2.4,0-4.8,0-7.3c0-0.2,0-0.5-0.1-0.7c-0.2-0.8-1-1.2-2-1c-0.6,0.1-1.1,0.5-1.6,0.9c-0.1,0.1-0.1,0.3-0.1,0.4c0,2.5,0,5.1,0,7.6
			c0,0.6-0.1,0.7-0.7,0.7c-1.3,0-2.5,0-3.8,0c-0.6,0-0.7-0.1-0.7-0.7c0-2.4,0-4.8,0-7.2c0-1.5-0.9-2.2-2.4-1.7
			c-0.5,0.2-0.9,0.5-1.2,0.9c-0.1,0.1-0.1,0.3-0.1,0.5c0,2.5,0,5.1,0,7.6c0,0.6-0.1,0.8-0.8,0.8c-1.3,0-2.5,0-3.8,0
			c-0.6,0-0.7-0.1-0.7-0.7c0-4.2,0-8.4,0-12.6c0-0.6,0.1-0.7,0.7-0.7c1.3,0,2.6,0,3.9,0c0.5,0,0.7,0.2,0.7,0.7
			C94.3,87.4,94.3,87.7,94.3,88z"/>
		<path class="st2" d="M47.5,77.7c0,0.4-0.2,0.7-0.5,1c-2.3,2.3-4.6,4.6-7,7c-1,1-2,2-3,3c-0.2,0.2-0.3,0.2-0.5,0
			c-3.6-3.6-7.2-7.2-10.8-10.8c-0.2-0.2-0.2-0.3,0-0.5c3.4-3.3,6.7-6.7,10.1-10c0.6-0.6,1.2-0.5,1.8,0c3.1,3.1,6.3,6.3,9.4,9.4
			C47.3,77.1,47.5,77.4,47.5,77.7z M36.8,74.9c-1.5,0-2.8,1.2-2.8,2.8c0,1.5,1.2,2.8,2.8,2.8c1.5,0,2.8-1.2,2.8-2.8
			C39.6,76.2,38.3,74.9,36.8,74.9z"/>
		<path class="st1" d="M24.9,100.3c-0.3,0-0.6-0.1-0.8-0.4c-3.2-3.2-6.4-6.3-9.5-9.5c-0.5-0.5-0.5-1.2,0.1-1.7
			c1.1-1.1,2.1-2.1,3.2-3.2c2.3-2.3,4.5-4.5,6.8-6.8c0.2-0.2,0.3-0.2,0.5,0c3.6,3.6,7.1,7.1,10.7,10.7c0.2,0.2,0.2,0.3,0,0.6
			c-3.3,3.3-6.6,6.6-9.9,9.9C25.7,100,25.4,100.3,24.9,100.3z M23.6,89.5c0-1.5-1.2-2.8-2.8-2.8c-1.5,0-2.8,1.2-2.8,2.8
			c0,1.5,1.3,2.8,2.8,2.8C22.4,92.2,23.6,91,23.6,89.5z M29,92.4c1.5,0,2.8-1.2,2.8-2.7c0-1.5-1.2-2.8-2.8-2.8
			c-1.5,0-2.8,1.2-2.8,2.8C26.2,91.1,27.5,92.4,29,92.4z"/>
		<path class="st1" d="M127.1,88.1c0.9-1,2-1.5,3.2-1.8c1-0.2,2.1-0.2,3.1,0c2,0.4,3.2,1.9,3.2,3.9c0,3.3,0,6.5,0,9.8
			c0,0.4-0.2,0.6-0.6,0.6c-1.4,0-2.7,0-4.1,0c-0.4,0-0.6-0.2-0.6-0.7c0-2.3,0-4.6,0-6.9c0-0.2,0-0.3,0-0.5c-0.1-0.8-0.5-1.4-1.4-1.6
			c-1-0.2-1.9,0-2.6,0.8c-0.2,0.2-0.2,0.3-0.2,0.6c0,2.5,0,5.1,0,7.6c0,0.6-0.1,0.8-0.8,0.8c-1.3,0-2.5,0-3.8,0
			c-0.5,0-0.7-0.2-0.7-0.7c0-4.2,0-8.5,0-12.7c0-0.5,0.1-0.7,0.7-0.7c1.3,0,2.6,0,3.9,0c0.5,0,0.7,0.2,0.7,0.7
			C127.1,87.4,127.1,87.7,127.1,88.1z"/>
		<path class="st1" d="M72.7,93.5c0-4.1,3.3-7.4,7.4-7.4c4.1,0,7.4,3.3,7.4,7.4c0,4.1-3.3,7.4-7.4,7.4C76,100.9,72.7,97.6,72.7,93.5
			z M80.1,95.9c1.4,0,2.5-1.1,2.5-2.5c0-1.4-1.1-2.5-2.5-2.5c-1.4,0-2.5,1.1-2.5,2.5C77.6,94.8,78.7,95.9,80.1,95.9z"/>
		<path class="st1" d="M153,93.5c0,4.1-3.3,7.4-7.4,7.4c-4.1,0-7.4-3.3-7.4-7.4c0-4.1,3.3-7.4,7.4-7.4C149.7,86.1,153,89.4,153,93.5
			z M148.1,93.4c0-1.4-1.1-2.5-2.5-2.5c-1.4,0-2.5,1.1-2.5,2.5c0,1.4,1.1,2.5,2.5,2.5C147,96,148.1,94.8,148.1,93.4z"/>
		<path class="st1" d="M162.3,100.9c-2.2,0-4.4-0.5-6.3-1.6c-0.5-0.3-0.5-0.5-0.2-1c0.5-0.8,1-1.6,1.5-2.4c0.3-0.4,0.5-0.5,0.9-0.2
			c1.2,0.7,2.5,1.2,3.9,1.4c0.6,0.1,1.2,0,1.7-0.1c0.3-0.1,0.7-0.2,0.7-0.6c0-0.4-0.4-0.6-0.7-0.7c-0.8-0.3-1.6-0.3-2.4-0.5
			c-1.1-0.2-2.2-0.4-3.2-0.9c-1.9-1-2.8-3-2.1-5c0.4-1.1,1.2-1.9,2.3-2.4c0.8-0.4,1.7-0.6,2.6-0.6c2.4-0.2,4.7,0.2,6.9,1.5
			c0.5,0.3,0.5,0.5,0.3,1c-0.4,0.7-0.8,1.5-1.3,2.2c-0.3,0.4-0.5,0.5-0.9,0.2c-1-0.7-2-1.1-3.2-1.1c-0.4,0-0.8,0-1.2,0.1
			c-0.1,0-0.3,0.1-0.4,0.2c-0.2,0.1-0.3,0.3-0.3,0.5c0,0.2,0.2,0.3,0.4,0.4c0.5,0.2,1,0.2,1.5,0.3c1,0.1,2,0.2,2.9,0.5
			c0.2,0.1,0.4,0.1,0.6,0.2c1.6,0.6,2.6,1.6,2.8,3.4c0.2,1.7-0.4,3.2-1.9,4.2c-1.2,0.8-2.5,1.1-3.9,1.2
			C163,100.9,162.6,100.9,162.3,100.9z"/>
		<path class="st1" d="M113.6,113.6c0-0.5,0.1-0.6,0.6-0.6c2.9-0.4,5.8-0.8,8.7-1.2c2.9-0.4,5.8-0.8,8.7-1.1
			c2.7-0.4,5.4-0.7,8.1-1.1c2.7-0.4,5.4-0.7,8.1-1.1c2.7-0.4,5.4-0.7,8.1-1.1c2.5-0.3,5.1-0.7,7.6-1c2.7-0.4,5.4-0.7,8.1-1.1
			c2.5-0.3,5-0.7,7.5-1c2.3-0.3,4.7-0.6,7-0.9c0.2,0,0.5-0.1,0.5,0.2c0.1,0.6,0,0.8-0.4,0.9c-1,0.1-1.9,0.3-2.9,0.4
			c-2.7,0.4-5.5,0.7-8.2,1.1c-2.7,0.4-5.4,0.7-8.1,1.1c-2.7,0.4-5.4,0.7-8.1,1.1c-2.7,0.4-5.4,0.7-8.1,1.1c-2.7,0.4-5.4,0.7-8.1,1.1
			c-2.5,0.3-5,0.7-7.6,1c-2.7,0.4-5.4,0.7-8.1,1.1c-2.5,0.3-5.1,0.7-7.6,1c-1.7,0.2-3.5,0.5-5.2,0.7
			C113.7,114.2,113.6,114.2,113.6,113.6z"/>
		<path class="st1" d="M113.6,133.6c0-0.5,0-0.5,0.5-0.6c3.5-0.5,7-0.9,10.6-1.4c3.1-0.4,6.2-0.8,9.2-1.2c2.9-0.4,5.8-0.8,8.7-1.1
			c2.7-0.4,5.4-0.7,8.1-1.1c2.7-0.4,5.4-0.7,8.1-1.1c2.5-0.3,5.1-0.7,7.6-1c2.5-0.3,5.1-0.7,7.6-1c2.5-0.3,5-0.7,7.6-1
			c1.6-0.2,3.1-0.4,4.7-0.6c0.2,0,0.5,0,0.5,0.3c0,0.5,0.1,0.8-0.4,0.9c-0.6,0.1-1.3,0.2-1.9,0.3c-2.7,0.4-5.5,0.7-8.2,1.1
			c-2.7,0.4-5.4,0.7-8.1,1.1c-2.7,0.4-5.4,0.7-8.1,1.1c-2.5,0.3-5.1,0.7-7.6,1c-2.7,0.4-5.4,0.7-8.1,1.1c-2.5,0.3-5,0.7-7.6,1
			c-2.7,0.4-5.5,0.7-8.2,1.1c-2.7,0.4-5.4,0.7-8.1,1.1c-2.1,0.3-4.1,0.5-6.2,0.8C113.7,134.3,113.6,134.2,113.6,133.6z"/>
		<path class="st1" d="M124.3,116.4c-0.2,1-0.4,2-0.5,3c-0.6,3-1.1,6.1-1.7,9.1c-0.1,0.3-0.2,0.4-0.5,0.4c-0.3,0-0.6,0.1-0.9,0.1
			c-0.3,0.1-0.5,0-0.5-0.4c-0.3-2-0.7-3.9-1-5.9c0-0.2-0.1-0.4-0.3-0.4c-0.2,0-0.2,0.2-0.3,0.4c-0.3,2-0.6,4.1-0.9,6.1
			c-0.1,0.4-0.2,0.6-0.6,0.6c-0.2,0-0.5,0-0.7,0.1c-0.4,0.1-0.5-0.1-0.6-0.4c-0.2-1.3-0.5-2.5-0.7-3.8c-0.5-2.5-1-5-1.4-7.5
			c-0.1-0.4,0-0.5,0.4-0.5c0.5-0.1,0.9-0.1,1.4-0.2c0.3-0.1,0.5,0.1,0.5,0.4c0.2,1.4,0.5,2.9,0.7,4.3c0,0.2-0.1,0.6,0.3,0.6
			c0.4,0,0.3-0.4,0.3-0.6c0.2-1.6,0.4-3.1,0.6-4.7c0-0.2,0.1-0.3,0.3-0.3c0.5-0.1,1-0.1,1.4-0.2c0.3,0,0.4,0.2,0.4,0.4
			c0.2,1.1,0.3,2.3,0.5,3.4c0.1,0.4,0.1,0.9,0.2,1.3c0,0.2,0,0.3,0.2,0.4c0.2,0,0.3-0.2,0.3-0.4c0.2-1.4,0.5-2.8,0.7-4.2
			c0.1-0.3,0.1-0.7,0.2-1c0-0.2,0.2-0.3,0.4-0.4c0.5-0.1,1-0.1,1.5-0.2C124.3,116,124.4,116.1,124.3,116.4z"/>
		<path class="st1" d="M114.4,93.5c0-2.1,0-4.2,0-6.3c0-0.6,0.1-0.7,0.7-0.7c1.3,0,2.6,0,3.8,0c0.5,0,0.7,0.2,0.7,0.7
			c0,4.2,0,8.5,0,12.7c0,0.5-0.2,0.7-0.7,0.7c-1.3,0-2.6,0-3.9,0c-0.5,0-0.7-0.2-0.7-0.7C114.4,97.7,114.4,95.6,114.4,93.5z"/>
		<path class="st1" d="M175.8,115.6c0,1.8,0,3.6,0,5.4c0,0.6-0.1,0.7-0.7,0.8c-0.3,0-0.5,0.1-0.8,0.1c-0.5,0-0.7-0.2-0.7-0.7
			c0-1.3,0-2.6,0-4c0-0.6-0.2-0.8-0.8-0.8c-1,0.1-1.1,0.2-1.1,1.2c0,1.3,0,2.6,0,3.8c0,0.5-0.2,0.7-0.7,0.8c-0.3,0-0.6,0.1-0.8,0.1
			c-0.4,0-0.7-0.2-0.7-0.6c0-0.1,0-0.2,0-0.3c0-3.6,0-7.2,0-10.8c0-0.7,0.1-0.8,0.8-0.9c0.2,0,0.5-0.1,0.7-0.1
			c0.5,0,0.7,0.2,0.7,0.7c0,1.1,0,2.1,0,3.2c0,0.6,0.2,0.8,0.8,0.7c0.9-0.1,1.2,0,1.2-1.3c0-1,0-2,0-3c0-0.5,0.2-0.7,0.7-0.7
			c0.3,0,0.5-0.1,0.8-0.1c0.5-0.1,0.8,0.2,0.8,0.7c0,1.5,0,2.9,0,4.4C175.8,114.8,175.8,115.2,175.8,115.6z"/>
		<path class="st1" d="M150.3,118.8c0,1.1,0,2.3,0,3.4c-0.1,2.2-2.3,3.9-4.5,3.4c-1.2-0.3-1.9-1.3-2-2.6c0-2.3,0-4.5,0-6.8
			c0-2.2,2.2-3.9,4.3-3.4c1.2,0.2,2,1.2,2.1,2.5c0,0,0,0.1,0,0.1C150.3,116.6,150.3,117.7,150.3,118.8
			C150.3,118.8,150.3,118.8,150.3,118.8z M146.1,119.3c0,1.1,0,2.2,0,3.3c0,0.7,0.6,1.1,1.3,0.8c0.5-0.2,0.6-0.7,0.6-1.2
			c0-2.1,0-4.1,0-6.2c0-0.1,0-0.3-0.1-0.4c-0.1-0.4-0.4-0.6-0.8-0.6c-0.6,0-1.1,0.5-1.1,1.1C146.1,117.2,146.1,118.3,146.1,119.3z"
			/>
		<path class="st1" d="M140.9,125.1c-0.3,0.7-0.7,1.2-1.5,1.5c-1.9,0.7-3.5-0.4-3.6-2.5c-0.1-2.2,0-4.5,0-6.7c0-0.3,0.1-0.6,0.1-0.8
			c0.5-1.9,2.3-3.1,4.3-2.7c1.1,0.2,1.8,1,2,2.3c0.1,0.5,0.1,1,0.1,1.5c0,0.2-0.1,0.2-0.2,0.3c-0.6,0.1-1.2,0.1-1.8,0.2
			c-0.2,0-0.2,0-0.2-0.2c0-0.3,0-0.7,0-1c0-0.5-0.3-0.8-0.7-0.9c-0.4-0.1-0.9,0.1-1.2,0.5c-0.1,0.3-0.2,0.5-0.2,0.8c0,2,0,4,0,6.1
			c0,0.6,0.3,1,0.7,1.1c0.6,0.1,1.1-0.3,1.3-0.9c0.1-0.6,0-1.2,0.1-1.8c0-0.1,0-0.2-0.2-0.1c0,0-0.1,0-0.1,0
			c-0.7,0.1-0.7,0.1-0.7-0.7c0-0.2,0-0.4,0-0.7c0-0.4,0.2-0.6,0.6-0.7c0.7-0.1,1.3-0.2,2-0.2c0.5,0,0.7,0.2,0.7,0.7
			c0,1.8,0,3.6,0,5.4c0,0.5-0.2,0.7-0.8,0.7c-0.4,0-0.6-0.2-0.7-0.6C140.9,125.5,140.9,125.3,140.9,125.1z"/>
		<path class="st1" d="M183.6,120.9c-1.8,0-2.8-0.9-2.9-2.5c-0.1-1.1,0.2-1.4,1.3-1.4c0.7,0,0.9,0.2,0.9,0.9c0,0.5,0.2,0.7,0.6,0.8
			c0.5,0,0.8-0.2,1-0.6c0.2-0.7,0.1-1.3-0.3-1.8c-0.3-0.4-0.7-0.8-1.1-1.1c-0.4-0.3-0.9-0.7-1.3-1.1c-1.9-2-1-5.3,1.6-6
			c0.4-0.1,0.9-0.2,1.3-0.1c1.4,0.2,2.3,1.3,2.1,2.7c0,0.3-0.2,0.5-0.4,0.6c-0.5,0.1-0.9,0.2-1.4,0.2c-0.2,0-0.3-0.1-0.4-0.3
			c0-0.1,0-0.2,0-0.3c0-0.3-0.1-0.6-0.5-0.7c-0.4-0.1-0.7,0.1-0.9,0.5c-0.2,0.5-0.1,0.9,0.2,1.3c0.3,0.5,0.8,0.9,1.2,1.3
			c0.4,0.3,0.8,0.6,1.2,1c1.6,1.6,1.2,4.4-0.1,5.7C185,120.6,184.2,120.9,183.6,120.9z"/>
		<path class="st1" d="M125.6,122c0-1.8,0-3.7,0-5.5c0-0.5,0.1-0.7,0.6-0.8c1.4-0.2,2.7-0.4,4.1-0.5c0.4-0.1,0.7,0.2,0.7,0.6
			c0,0.3,0,0.6,0,0.9c0,0.4-0.2,0.6-0.6,0.6c-0.6,0.1-1.2,0.2-1.9,0.2c-0.6,0.1-0.8,0.2-0.8,0.8c0,0.4,0,0.8,0,1.2
			c0,0.5,0.3,0.7,0.7,0.6c0.3,0,0.5-0.1,0.8-0.1c0.4,0,0.7,0.2,0.7,0.6c0,0.3,0,0.6,0,0.9c0,0.3-0.2,0.5-0.5,0.6
			c-0.3,0.1-0.7,0.1-1,0.1c-0.5,0.1-0.6,0.3-0.6,0.7c0,0.7,0,1.4,0,2.1c0,0.5,0.2,0.7,0.7,0.6c0.5-0.1,1.1-0.1,1.6-0.2
			c0.6-0.1,0.9,0.1,0.9,0.7c0,0.2,0,0.4,0,0.6c0,0.6-0.1,0.7-0.7,0.8c-1.3,0.2-2.7,0.4-4,0.5c-0.5,0.1-0.7-0.2-0.7-0.7
			C125.6,125.7,125.6,123.8,125.6,122z"/>
		<path class="st1" d="M163.8,118.2c0-1.5,0-2.9,0-4.4c0-0.7-0.2-0.9-0.9-0.8c-0.9,0.1-1.3,0.1-1.2-1c0-0.1,0-0.2,0-0.4
			c0-0.4,0.2-0.6,0.6-0.7c1.7-0.2,3.4-0.4,5.1-0.7c0.5-0.1,0.8,0.2,0.8,0.7c0,0.3,0,0.5,0,0.8c0,0.4-0.2,0.6-0.5,0.6
			c-0.3,0-0.6,0.1-0.8,0.1c-0.5,0.1-0.7,0.2-0.7,0.8c0,1.6,0,3.1,0,4.7c0,1.4,0,2.9,0,4.3c0,0.6-0.2,0.7-0.7,0.8
			c-0.3,0-0.5,0.1-0.8,0.1c-0.5,0.1-0.8-0.2-0.8-0.7C163.8,121.1,163.8,119.6,163.8,118.2z"/>
		<path class="st1" d="M153.2,119.5c0-1.4,0-2.9,0-4.3c0-0.7-0.3-0.9-0.9-0.8c0,0-0.1,0-0.1,0c-0.9,0.1-1.1,0-1.1-0.9c0,0,0,0,0-0.1
			c0-0.9,0.1-1,1-1.1c1.5-0.2,3-0.4,4.5-0.6c0.7-0.1,0.9,0.1,0.9,0.8c0,0.1,0,0.2,0,0.4c0,0.7-0.1,0.8-0.8,0.9
			c-0.2,0-0.4,0.1-0.6,0.1c-0.5,0.1-0.7,0.2-0.7,0.8c0,1.1,0,2.1,0,3.2c0,1.9,0,3.9,0,5.8c0,0.6-0.2,0.7-0.7,0.8
			c-0.3,0-0.5,0.1-0.8,0.1c-0.5,0-0.8-0.2-0.8-0.7C153.2,122.5,153.2,121,153.2,119.5z"/>
		<path class="st1" d="M154.2,79.7c1.9,0,3.2,1.5,3,3.3c-0.2,2.2-1.6,3.5-3.5,4.4c-0.2,0.1-0.3,0-0.4-0.1c-0.1-0.1-0.1-0.2-0.2-0.2
			c-0.3-0.5-0.3-0.5,0.1-0.8c0.3-0.2,0.5-0.5,0.6-0.8c0.1-0.2,0-0.2-0.2-0.3c-0.5-0.1-1-0.2-1.4-0.5c-0.9-0.7-1.3-1.6-1-2.6
			c0.2-1.2,1-1.9,2.1-2.2C153.7,79.7,154,79.6,154.2,79.7z"/>
		<path class="st1" d="M179.5,115.1c0,1.8,0,3.7,0,5.5c0,0.6-0.1,0.7-0.7,0.8c-0.2,0-0.5,0.1-0.7,0.1c-0.6,0.1-0.8-0.1-0.8-0.7
			c0-2.3,0-4.6,0-7c0-1.4,0-2.7,0-4.1c0-0.5,0.1-0.7,0.6-0.7c0.3,0,0.6-0.1,0.8-0.1c0.6-0.1,0.8,0.2,0.8,0.7
			C179.5,111.4,179.5,113.2,179.5,115.1z"/>
		<path class="st1" d="M117.2,85.5c-1.6,0-2.9-1.3-3-2.9c0-1.6,1.3-2.9,2.9-2.9c1.6,0,2.9,1.3,3,2.9
			C120.1,84.2,118.8,85.5,117.2,85.5z"/>
		<path class="st1" d="M33.3,99c0,0.8-0.7,1.5-1.5,1.5c-0.8,0-1.5-0.7-1.5-1.5c0-0.8,0.7-1.5,1.5-1.5C32.6,97.5,33.3,98.2,33.3,99z
			 M31.8,97.8c-0.7,0-1.2,0.5-1.2,1.2c0,0.7,0.6,1.2,1.2,1.2c0.7,0,1.2-0.6,1.2-1.2C33,98.3,32.5,97.8,31.8,97.8z"/>
		<path class="st1" d="M170.9,85.4c0.8,0,1.5,0.7,1.5,1.5c0,0.8-0.7,1.5-1.5,1.5c-0.8,0-1.5-0.7-1.5-1.5
			C169.4,86.1,170.1,85.4,170.9,85.4z M170.9,85.7c-0.7,0-1.2,0.5-1.2,1.2c0,0.7,0.5,1.2,1.2,1.2c0.7,0,1.2-0.6,1.2-1.2
			C172.1,86.3,171.6,85.7,170.9,85.7z"/>
		<path class="st1" d="M32,99.1c0.2,0.2,0.3,0.4,0.4,0.7c-0.4,0.2-0.5-0.1-0.6-0.3c0-0.1-0.1-0.3-0.2-0.2c-0.1,0,0,0.2-0.1,0.3
			c0,0.1,0.1,0.3-0.2,0.3c-0.3,0-0.2-0.2-0.2-0.3c0-0.4,0-0.7,0-1.1c0-0.1,0-0.2,0.1-0.2c0.3,0,0.7-0.1,1,0.1
			C32.5,98.5,32.4,98.9,32,99.1z M32,98.7c0-0.2-0.1-0.2-0.3-0.2c-0.2,0-0.2,0.1-0.2,0.2c0,0.1,0,0.2,0.2,0.2
			C31.8,98.9,32,98.9,32,98.7z"/>
		<path class="st1" d="M170.2,86.9C170.2,86.9,170.2,86.9,170.2,86.9c0-0.3-0.1-0.6,0.1-0.7c0.3-0.2,0.6-0.1,0.9,0
			c0.3,0.1,0.5,0.5,0.2,0.7c-0.2,0.2-0.2,0.2,0,0.4c0,0,0.1,0.1,0.1,0.2c0,0.1,0.2,0.2,0,0.3c-0.1,0.1-0.3,0.1-0.4-0.1
			c-0.1-0.1-0.1-0.2-0.2-0.4c0-0.1-0.1-0.1-0.2-0.1c-0.1,0-0.1,0.1-0.1,0.2c0,0.1,0,0.1,0,0.2c0,0.2-0.1,0.2-0.2,0.2
			c-0.1,0-0.2-0.1-0.2-0.2C170.2,87.4,170.2,87.2,170.2,86.9z M171.1,86.6c0-0.2-0.2-0.2-0.3-0.2c-0.2,0-0.2,0.1-0.2,0.2
			c0,0.1,0,0.2,0.2,0.2C170.9,86.8,171.1,86.8,171.1,86.6z"/>
	</g>
</g>
</svg>
