<?xml version="1.0" encoding="utf-8"?>
<!-- Generator: Adobe Illustrator 24.3.0, SVG Export Plug-In . SVG Version: 6.00 Build 0)  -->
<svg version="1.1" id="Layer_1" xmlns="http://www.w3.org/2000/svg" xmlns:xlink="http://www.w3.org/1999/xlink" x="0px" y="0px"
	 viewBox="0 0 200 200" style="enable-background:new 0 0 200 200;" xml:space="preserve">
<style type="text/css">
	.st0{fill:#FE0132;}
</style>
<g>
	<path class="st0" d="M34.2,80.9c2.6,0,5.3,0.8,7.7,2.4c0.2,0.1,0.2,0.1,0.4,0c1.4-1.3,2.7-2.6,4.1-3.8c0.1-0.1,0.2-0.2,0.3-0.3
		c0.5-0.4,1.1-0.4,1.5,0c0.9,0.8,1.7,1.7,2.4,2.7c0.4,0.5,0.3,1.2-0.2,1.7c-0.7,0.7-1.4,1.4-2.1,2.1c-0.7,0.7-1.4,1.3-2,2
		c-0.1,0.1-0.2,0.2-0.1,0.4c1.4,2.7,1.9,5.7,1.4,8.7c-0.8,4.9-3.6,8.4-8.3,10.2c-4.4,1.7-8.8,1.4-12.9-1.1c-3.6-2.2-5.6-5.5-6.1-9.6
		c-0.4-3,0.1-5.9,1.7-8.5c1.9-3.2,4.6-5.2,8.2-6.2C31.3,81.1,32.6,80.9,34.2,80.9z M33.9,86.3c-4.5,0-8.1,3.6-8.1,8.1
		c0,4.5,3.6,8.1,8.1,8.1c4.5,0,8.1-3.6,8.1-8.1C42.1,90,38.4,86.3,33.9,86.3z"/>
	<path class="st0" d="M152.2,94.5c0-6.3,4-11.5,10-13.1c4.2-1.1,8.3-0.6,12,1.8c3.3,2.2,5.3,5.3,5.8,9.3c0.4,3.3-0.2,6.4-2,9.2
		c-2.1,3.1-5,5.1-8.7,5.8c-4,0.8-7.7,0.2-11.1-2.1c-3.3-2.3-5.3-5.4-5.8-9.4c0-0.2,0-0.3-0.1-0.5C152.2,95.2,152.2,94.8,152.2,94.5z
		 M157.9,94.4c0,4.5,3.7,8.1,8.1,8.1c4.5,0,8.1-3.6,8.1-8.1c0-4.5-3.6-8.1-8.1-8.1C161.6,86.3,157.9,89.9,157.9,94.4z"/>
	<path class="st0" d="M51.9,94.2c0-3.3,1.1-6.4,3.5-8.9c2.1-2.3,4.8-3.7,7.8-4.2c3.3-0.5,6.4-0.1,9.3,1.5c4,2.2,6.3,5.6,6.8,10.1
		c0.4,3-0.1,5.9-1.7,8.5c-2,3.5-5.1,5.6-9,6.4c-4,0.8-7.7,0.2-11.1-2.1c-3-2.1-4.8-4.9-5.5-8.5C52,96.1,51.9,95.2,51.9,94.2z
		 M65.7,86.3c-4.5,0-8.1,3.6-8.1,8.1c0,4.5,3.6,8.1,8.1,8.1c4.5,0,8.1-3.6,8.1-8.1C73.8,90,70.2,86.3,65.7,86.3z"/>
	<path class="st0" d="M83.8,90.1c0-2.3,0-4.6,0-6.9c0-1.2,0.4-1.6,1.6-1.6c1,0,1.9,0,2.9,0c0.9,0,1.3,0.4,1.3,1.3c0,0.2,0,0.3,0,0.5
		c0,4.4,0,8.7,0,13.1c0,0.9,0.1,1.7,0.3,2.5c0.6,2,2.1,3.1,4.1,3.4c1,0.2,2,0.1,3.1-0.1c2-0.5,3.4-2.1,3.7-4.3
		c0.1-0.6,0.1-1.1,0.1-1.7c0-4.3,0-8.6,0-12.9c0-0.2,0-0.4,0-0.6c0-0.8,0.4-1.2,1.2-1.2c1.1,0,2.3,0,3.4,0c0.7,0,1,0.4,1.2,1.1
		c0,0.2,0,0.3,0,0.5c0,4.5,0,8.9,0,13.4c0,1.9-0.3,3.8-1.1,5.5c-1.3,2.6-3.3,4.3-6,5.2c-3.4,1.1-6.8,1-10.1-0.7
		c-2.9-1.4-4.6-3.8-5.3-7c-0.2-1-0.3-2.1-0.3-3.2C83.8,94.4,83.8,92.3,83.8,90.1z"/>
	<path class="st0" d="M121,80.9c2.6,0,5.1,0.9,7.3,2.6c0.7,0.5,0.7,0.8,0.3,1.5c-0.5,0.8-1.1,1.6-1.6,2.4c-0.3,0.5-0.8,0.5-1.3,0.2
		c-0.6-0.4-1.2-0.8-1.9-1.1c-1.6-0.7-3.2-1-4.9-0.5c-1.6,0.4-2,1.7-1.7,3c0.1,0.5,0.5,0.9,0.9,1.2c0.7,0.5,1.5,0.7,2.3,1
		c1.6,0.6,3.2,1.1,4.7,1.9c0.7,0.4,1.4,0.8,2.1,1.3c1.5,1.2,2.4,2.7,2.6,4.6c0.2,2.5-0.4,4.7-2.2,6.4c-1.2,1.2-2.7,1.8-4.3,2.2
		c-3,0.6-5.9,0.4-8.7-0.8c-1.5-0.7-2.8-1.6-3.9-2.8c-0.6-0.6-0.6-1-0.1-1.6c0.6-0.8,1.3-1.5,1.9-2.2c0.4-0.4,0.8-0.5,1.3-0.1
		c0.4,0.3,0.7,0.6,1.1,0.9c1.2,1,2.4,1.7,3.9,2c1.2,0.2,2.4,0.2,3.5-0.1c2-0.7,2.3-3.1,0.8-4.3c-0.7-0.6-1.6-1-2.5-1.4
		c-1.5-0.6-3-1.1-4.4-1.8c-0.8-0.4-1.5-0.8-2.2-1.3c-1.9-1.3-2.6-3.2-2.6-5.4c0.1-3.4,2-6,5.3-7.1C118.1,81,119.4,80.9,121,80.9z"/>
	<path class="st0" d="M134.5,88.7c0-3.7,0-7.4,0-11c0-0.2,0-0.4,0-0.5c0-0.8,0.4-1.2,1.2-1.2c1.1,0,2.3,0,3.4,0
		c0.7,0,1.1,0.4,1.2,1.1c0,0.2,0,0.4,0,0.5c0,1.3,0,2.5,0,3.8c0,0.2,0.1,0.3,0.3,0.3c2.1,0,4.2,0,6.3,0c0.1,0,0.2,0,0.3,0
		c0.8,0,1.2,0.5,1.2,1.3c0,0.9,0,1.8,0,2.7c0,0.8-0.4,1.3-1.3,1.3c-2.2,0-4.4,0-6.5,0c-0.2,0-0.3,0-0.3,0.3c0,4.2,0,8.4,0,12.6
		c0,0.3,0.1,0.7,0.2,1c0.3,1.1,1.2,1.6,2.3,1.7c1.4,0.2,2.8,0,4.1-0.6c0.3-0.1,0.6-0.2,0.8-0.3c0.5-0.1,0.9,0,1.1,0.5
		c0.5,1,1,2.1,1.3,3.2c0.2,0.6,0,0.9-0.6,1.3c-1.1,0.6-2.4,1-3.6,1.2c-2,0.4-4,0.4-6-0.2c-2.9-0.8-4.6-2.8-5.2-5.8
		c-0.2-0.8-0.2-1.7-0.2-2.6C134.5,95.6,134.5,92.2,134.5,88.7z"/>
	<path class="st0" d="M22.8,109.4c0.5,0,1,0,1.6,0c0.9,0,1.3,0.4,1.3,1.3c0.1,4,3.1,7.4,7.1,7.9c4.3,0.6,8.3-2.2,9.2-6.5
		c0.1-0.5,0.2-1,0.2-1.5c0-0.8,0.4-1.2,1.1-1.2c1.2,0,2.3,0,3.5,0c0.7,0,1.1,0.4,1.1,1.2c0,1.2-0.1,2.4-0.5,3.5
		c-1.7,5.4-5.4,8.7-11,9.7c-4.9,0.9-9.2-0.5-12.7-4.1c-2.2-2.2-3.4-4.9-3.6-8c0-0.4-0.1-0.8,0-1.2c0-0.8,0.4-1.2,1.2-1.2
		C21.7,109.4,22.3,109.4,22.8,109.4C22.8,109.4,22.8,109.4,22.8,109.4z"/>
</g>
</svg>
