<?xml version="1.0" encoding="utf-8"?>
<!-- Generator: Adobe Illustrator 25.1.0, SVG Export Plug-In . SVG Version: 6.00 Build 0)  -->
<svg version="1.1" id="Layer_1" xmlns="http://www.w3.org/2000/svg" xmlns:xlink="http://www.w3.org/1999/xlink" x="0px" y="0px"
	 viewBox="0 0 200 200" style="enable-background:new 0 0 200 200;" xml:space="preserve">
<style type="text/css">
	.st0{fill:#F08A07;}
</style>
<g>
	<path class="st0" d="M129.1,89.3c0-0.1-0.1-0.3-0.2-0.5c-0.1,0-0.2,0-0.2,0c-1,6.8-3.4,0.9-3.5-2.3c-0.6-0.1-0.9-0.8-0.6-1.7
		c2.1,0.6,3.4,1.7,4.3,3.8c0.1-3.8-3.6-3.1-5.2-4.5c-0.9-1.6-3.1-0.3-4.5-1c0.3,1.8-0.9,0.5-1.9,1.2c0,0,0,0.1,0,0.1
		c-0.2-0.1-0.4-0.2-0.6-0.3c0.1-0.3,0.1-0.6,0.2-0.9c-0.5,0-0.9,0-1.3,0c-0.1,0.8-0.8,2.4,0.6,2.2c-0.1-0.2-0.1-0.4-0.2-0.6
		c0.1,0,0.1-0.1,0.2-0.1c1,0.8-0.1,1.3-0.5,1.9c-0.2,1.7,0,3.6-1.7,4.3c0.7,0.4,0.7,0.7,0.3,1.3c0.9,0.6,0,1.2,0,1.8
		c-0.3-0.2-0.5-0.3-0.8-0.6c0.9,3.2-4.2,2.8-3.5,5.9c0.8-0.4,2.5,0,2.5-1.2c-0.1-1.6,1.6-2.6,2.4-4c0.8,2-2.1,2.5-1.6,4.7
		c1.5-0.4,5.9,0.8,4-2c0.8-2.6,1.6-0.8,1.2,0.8c-0.6,1.6,6.1,1.9,5.4,0.6c-0.5-1.4-2.5-2.2-1.9-3.8c0.2,0.3,0.4,0.6,0.6,0.9
		c0,0,0.1-0.1,0.1-0.1c-0.2-1.1-0.4-2.1-0.6-3.3c7.1,2.7,3.7,11.8,5.8,16.6c0.1,0,0.2,0,0.2,0c-0.1,0.1-0.3,0.2-0.4,0.3
		c2-2.6,1.4-11-0.3-14.1C126.3,92.6,129.2,91.6,129.1,89.3z"/>
	<path class="st0" d="M149.8,96.7c-0.1-6.4-6.6-7.6-11.7-7.1c-1.1,0.7-0.3,2.6-0.5,3.7c9.2,0.5,6.6,4.7,7,12.2c0,5.7-5.4,2.7-7,4.5
		c0,0-0.1,0-0.1,0c-0.3,4.4,1.6,3.7,5.3,3.4c6.6,0,7.5-6.7,7.2-11.9c0,0-0.1,0-0.1,0C149.8,100,150,98.3,149.8,96.7z"/>
	<path class="st0" d="M66.8,110.9c0.8-0.9,0-1.8,0.1-2.7c-0.8,0.2-0.9-0.4-1-0.8c0.2-0.3,1-0.8,0.6-1.6c-0.3-0.7-1.1-0.4-0.9-1.2
		c0.1,0.1,0.3,0.1,0.6,0.3c-0.6-1.3-1.3-2.3-2.6-2.6c9.7-6.3,1.2-14.3-7.9-12.5c-0.5,0-0.6,0.2-0.6,0.7c-0.8,4.5,1.6,3.6,5,3.8
		c4.1,0.8,2.3,6.9-1.6,6.3c-4,0.4-3.4-0.4-3.4,3.7c0.6,1.5,5.9-0.8,6.3,3c0.8,2.2,0.3,8.1,3.9,6c0.2-0.8,0.9-1.3,1.5-0.8
		c-0.1,0.1-0.2,0.4-0.2,0.4c-0.8-0.1-0.6,0.6-0.9,0.9c0.9,0.5,0.9-0.5,1.5-0.9c0,0.4,0,0.6,0,1c0.5-0.1,0.9-0.2,1.2-0.3
		C67.4,112.8,68,111.5,66.8,110.9z"/>
	<path class="st0" d="M53.2,89.7c-1.3,0.4-4.5-1-4.6,1c0,5.1,0,10.2,0,15.3c0.3,5.2-2,8.9,5.1,7.7C53.4,106.1,54.9,96.6,53.2,89.7z"
		/>
	<path class="st0" d="M33.1,95.1c0.9-0.7,2.7-0.8,2.7-2.2c-0.2-1.5,0.7-3.7-1.6-2.9c-7.4,0.7-9.7,8.9-9,14.2
		c0.3,1.5,2.5-0.5,3.3,0.5c-0.6,0.4-1.6,0.4-1.5,1.2c0.9,0.1,1.6-0.7,2.3-1c0.3,0.6,0.9,1,0.8,1.4c-0.5-0.1-0.9-0.3-1.4-0.5
		c0,0.2,0,0.5,0,0.7c-0.8,0.4-1.2,0.4-1.8-0.2c-0.1,0.3-0.2,0.5-0.3,0.8c-0.3-0.2-0.6-0.4-0.7-0.5c0.3-0.4,0.5-0.8,0.7-1.2
		c-0.1-0.1-0.2-0.1-0.3-0.2c-2,4,4.4,7.6,7.7,8.6c0.1-0.1,0.2-0.2,0.2-0.3c-0.3-0.5-0.6-0.9-0.9-1.4c1.1,0.3,3.2-1.8,1.4-2
		c-0.7,0.5-0.9,1.1-1.5,0.2c0.6-0.4,1.1-0.7,1.7-1c-3.5,0-4.5-4.1-4.9-6.9c-1.4,0.5-2.3,0-3.6,0.6c0.5-0.6,0.9-1,0.2-1.6
		c1.8-0.5,4,1.9,3.4-1.9C31.2,97.9,31.3,95.7,33.1,95.1z"/>
	<path class="st0" d="M136.5,91.1c0.3-2.2-6-2.3-5.2-0.2c0.5-0.1,0.9-0.3,1.3,0c-3.2,2.6-0.7,8.5-1.3,12.3c0.2-0.4,0.4-0.7,0.6-1.1
		c0.1,0,0.2,0.1,0.3,0.1c-0.4,0.5,0.4,1.5-0.8,1.7c-0.4,2.5,0,5.4-0.2,8c0.3-0.1,0.5-0.1,0.9-0.2c-0.3,0.7-0.6,1.2-0.9,1.9
		c1.9,0,3.6,0,5.3,0c0-3.1,0-6.2,0-9.4c-0.3,0.3-0.4,0.5-0.6,0.7c-0.4-0.4-0.8-0.7-1.3-1.1C138.5,103.2,135.7,94.5,136.5,91.1z"/>
	<path class="st0" d="M117.8,115.4c0,0-0.1,0-0.1-0.1C117.7,115.5,117.6,115.7,117.8,115.4z"/>
	<path class="st0" d="M122,111.9c-0.5-0.8-1.5-0.5-2.5-0.7c0.4-0.4,0.7-0.8,0.9-1.1c0,0.1,0,0.2,0,0.2c0.7,0.1,1.3,0.2,2.2,0.3
		c-0.2-0.5-0.3-0.8-0.4-1.1c0.1,0,0.1,0,0.2,0.1c0.3-0.5,0.6-1,0.8-1.4c-0.8-0.2-1.4-0.4-2-0.6c0.2-1.1,1.5-0.4,2.2-0.4c0-1,0-2,0-3
		c-0.9-0.4-3.1,0.4-3.1-1c1.1,0.1,2.2,0.1,3.3,0.2c1.1-4.3-2-3.6-5.2-3.7c0.1,1.2-0.4,3,0.6,3.6c-0.4,0.3-0.8,0.6-1.2,1
		c-0.8-1.1-3-0.2-4.3-0.3c-0.5,4.2,1.4,2.2,3.9,3.4c-1.1,0.5-2.6,0-3.8,0.6c-0.2,1.4,0.4,2.7,1.8,3.2c-0.5,0.1-0.8,0.2-1.2,0.3
		c1.1,2,0.3,5.9,3.3,5.7c-0.2-0.3-0.4-0.5-0.7-0.8c0.4,0.1,0.6,0.1,0.9,0.2c-0.6-0.5-1-0.8-1.5-1.2c0.2-0.5,1,0,1.4,0.1
		c-0.1-1,0.3-2,0.2-3c0.1,0,0.2-0.1,0.3-0.1c0.6,0.9,0.5,1.8,0.5,2.8c0.5-0.4,1,0.4,1.5,0.6c-0.3,0.4-0.9,0.3-1.3,0.8
		c1.6,1.4,2.7-2,2.1-3.1c0.2,0,0.4-0.1,0.6-0.1C121.3,112.6,121.9,112.3,122,111.9z"/>
	<path class="st0" d="M107,90.5c0-0.1,0.1-0.3,0.2-0.5c-1.3-0.1-4.9-1-5.2,0.6c0.5,1.7-0.9,4.5,1,5.4c-3.1,5.5,1.5,11,4.1,15.7
		C107.3,104.8,107.6,97.4,107,90.5z"/>
	<path class="st0" d="M46.8,102.9c-0.1,0-0.1-0.1-0.2-0.2c0.2-0.1,0.4-0.2,0.7-0.4c-1.4,0-2.6,0-3.9,0c0.2,0.3,0.4,0.5,0.6,0.7
		c-0.4-0.2-1.2,0.1-1.3-0.7c-0.1,0.3-0.1,0.6-0.2,0.9c0.3,0,0.4,0,0.7,0c-0.3,0.4-0.5,0.6-0.7,0.9c0.2,0.2,0.4,0.4,0.6,0.5
		c-0.4,0.3-0.7,0.5-1,0.8c0.3,0.2,0.5,0.4,0.8,0.6c-0.9,0.1-1.2-0.2-1.1-1c-0.1-1.8-2.6-0.9-3.7-2.5c0-0.1,0.1-0.2,0.1-0.2
		c1.2,0.3,2.3,1.1,3.5,1.4c0.2-2.1-3.2-1.2-4.6-1.4c0.8,1.2-0.9,4.1,0.9,4.1c0.8,0,0.6-0.7,0.5-1.3c0.1,0,0.2,0,0.3-0.1
		c0.1,0.4,0.2,0.9,0.2,1.3c0.9,0,2,0,3-0.1c-0.5,1.2-3,3.2-3.6,3.2c-0.4,0.9-1,1.6-0.3,2.5c-3.7,3.3,4.4,1.2,5.5-0.4
		C45.4,109.8,49.2,104.9,46.8,102.9z"/>
	<path class="st0" d="M99.2,100.2c-0.7-0.3-0.7-1.1-1.1-1.5c-1.3,0.3-2.9,0.7-4.3,0.9c2.8,4.5,5.2,9.6,8.6,13.7
		c0.3,1.1,3.4,0.1,4.8,0.5C104.6,109.1,101.8,104.7,99.2,100.2z"/>
	<path class="st0" d="M92.8,101.3c0-1.9-1.9-1.9-3-1.3c1,0.2,1.2,0.5,0.9,1c-5.3-3.6-1.9,9.3-2.8,12.1c0.6,1.4,3.3,0.3,4.6,0.6
		C94,110.6,92.6,105.1,92.8,101.3z"/>
	<path class="st0" d="M156,107.9c-0.1-0.1-0.1-0.3-0.2-0.7c0.3,0.3,0.4,0.4,0.6,0.5c0-1.8,0-3.6,0-5.5c-0.4,0.2-0.9,0.5-1.4,0.7
		c0.4-1.6-1.9-1.4-1.4-2.8c0.3-0.5,0-0.5-0.3-0.4c-0.2,0.7-0.2,1.2-0.9,1c0.1-0.3,0.1-0.6,0.2-1c-0.6-0.2-1.4-1-0.1-1.3
		c-0.1-0.6-0.2-1.1-0.4-1.7c-0.1,0-0.3,0.1-0.4,0.1c-0.1,1.9-1.1,4.4-0.3,7c0,0,0,0,0,0c-0.5,2-0.4,4.3,0.1,6.4c0,0-0.1,0-0.1-0.1
		c-0.1,0.6-0.2,1.2-0.3,2c0.3-0.3,0.5-0.4,0.5-0.5c0.3,0.2,0.6,0.3,0.8,0.5c0-0.1,0.1-0.2,0.1-0.2c-0.2-0.2-0.4-0.4-0.5-0.6
		c0.5-0.6,1-1.2,2.1-0.9c-0.3,0.4-0.5,0.6-0.7,1c0.8,0.6,1.7-1,2.4-1.3c0.3,0.6,0.3,0.6-0.5,1.3c0.1,0.2,0.2,0.3,0.3,0.7
		c-0.4-0.2-0.6-0.3-1-0.5c0.8,1.4-0.8,1.1-0.9,1.9c0.3-0.1,0.6-0.3,1.1-0.5c-0.1,0.3-0.2,0.5-0.3,0.7c0.7-0.3,1.7,0.7,1.8-0.5
		C156,111.3,157.1,109.5,156,107.9z"/>
	<path class="st0" d="M73.6,107.9c-0.1-0.1,0-0.3,0-0.4c0.1,0,0.3,0,0.4,0c-0.2-1.7,0.4-3.6-0.3-5.2c-0.3,0.3-0.6,0.4-1,0.5
		c0.4-1.1-2.1-1.5-1.4-2.7c0-0.1-0.2-0.3-0.3-0.5c-0.2,0-0.3,0.1-0.5,0.1c1,0.6,0.1,1.2-0.5,1c0.4-0.9-0.2-1.3-0.6-2
		c0.2-0.1,0.4-0.2,0.7-0.4c-0.1-0.5-0.2-1.1-0.3-1.6c-0.1,0-0.3,0.1-0.4,0.1c0.3,0.9,0.3,1-0.7,1.7c0.6,1.6-0.2,3.7,0.4,5.3
		c0,0,0,0,0,0c-0.5,2-0.4,4.3,0.1,6.4c0,0-0.1,0-0.1-0.1c-0.1,0.6-0.2,1.2-0.3,2c0.3-0.3,0.5-0.4,0.5-0.5c0.3,0.2,0.6,0.3,0.8,0.4
		c0-0.1,0.1-0.2,0.1-0.2c-0.2-0.2-0.4-0.4-0.5-0.6c0.8-1,1-1,2.1-0.9c-0.3,0.3-0.5,0.6-0.7,0.9c0.8,0.6,1.7-1,2.5-1.4
		c0.9,0.8-0.9,1.1-0.3,1.9c-0.2-0.1-0.5-0.2-0.8-0.4c0.8,1.3-0.9,1-1.1,1.9c0.5-0.2,0.8-0.4,1.2-0.6c-0.1,0.4-0.1,0.4-0.3,0.7
		c0.9-0.4,1.6,0.8,1.8-0.5c-0.2,0-0.4-0.1-0.6-0.1C74.2,111.5,74.3,109.4,73.6,107.9z"/>
	<path class="st0" d="M37.5,94.1c4.9,0.7,3.2,7.1,8.4,2.9C49.2,93.5,32.8,84.6,37.5,94.1z"/>
	<path class="st0" d="M158.3,94c3.2-0.5,8.2,1,10.4-0.6c-0.3-1,0.7-3.5-0.7-3.7c-2.7,0.3-5.6-0.6-8.2,0.5c-0.3-0.6-1.1-0.7-2.2-0.4
		C157.9,91.1,156.8,93.7,158.3,94z"/>
	<path class="st0" d="M75.8,94c3.3-0.5,8,1,10.4-0.6c-0.3-1.1,0.8-3.5-0.8-3.7c-2.8,0.2-5.6-0.2-8.2,0.4c-0.2-0.4-1-0.6-2.1-0.2
		C75.5,91.1,74.4,93.8,75.8,94z"/>
	<path class="st0" d="M86.2,110.8c0,0,0.1,0,0.1,0c0-0.4,0-0.9,0-1.3c-1.2,0.3-2.2,0.1-3.6-0.1c0.1,0.4,0.2,0.5,0.3,0.7
		c-2.4-0.7-6.9-1.6-7.5,1.3c-0.6,0.4-0.4,0.7-0.2,1.3c-0.1,1,0,1.1,1.1,0.9c-0.1-1-1-2.1,0-3c1,0.6,0.8,1.8,0.8,2.8
		c1.1-0.9,1.6,0,2.4,0.4c0.1-1.2,0.4-1.4,1.7-0.8c-0.3,1.3,1.3,0.5,1.9,0.5C85.7,114,87.5,113.6,86.2,110.8z"/>
	<path class="st0" d="M168.9,111.4C168.9,111.4,168.9,111.4,168.9,111.4c-0.3-0.7-0.1-1.3-0.1-1.8c-0.4,0-0.8,0.1-1.2,0.1
		c0,0,0,0,0,0.1c-0.8-0.1-1.5-0.2-2.4-0.4c0.1,0.4,0.2,0.5,0.2,0.7c-2.3-0.7-6.9-1.6-7.5,1.3c-0.6,0.4-0.3,0.8-0.2,1.4
		c-0.1,1,0.1,1.1,1.1,0.9c-0.1-1-0.9-2.1,0-3c1,0.6,0.7,1.9,0.8,2.8c1-1.3,1.5,0.7,2.5,0.2c-0.3-1.3,0.8-0.8,1.6-0.8
		c-0.5,1.4,1.1,0.7,1.8,0.7C167.7,113.8,169.6,114.1,168.9,111.4z"/>
	<path class="st0" d="M97.2,97.1c-2.5-3.6-3.7-9-9.3-7.2c2,2.6,2.6,6.6,6.1,7.3c0,0.1,0,0.2-0.1,0.3c-0.4,0-0.8,0.1-1.3,0.1
		C92.7,98.9,97.5,98,97.2,97.1z"/>
	<path class="st0" d="M158,102.1c0.7-0.2,1-0.6,0.5-1.4c1.6,0.6,0.1,1.6-0.4,2.5c1.6-0.6,2.9,0.8,4.5-0.4c0.3,0.9,1.1,0.4,1.6,0.4
		c1.1,0,0-1.3,0.7-1.3c0.1,0.4,0.2,0.9,0.3,1.3c3.7,0.9,3.4-3.4,1.2-2.2c-0.3-0.5-1.1-0.9-1.1-1.4c0.9,0.3,1.7,0.6,2.6,1
		c0-0.4,0-0.7,0-1.2c-3.1-0.7-6,0.3-9.1-0.4c0.6,1.3-0.6,1-0.9,0.2c0.2,1.3,0.2,1.3,0,1.6c-0.1-0.1-0.1-0.2-0.2-0.3
		c0,0.9,0,1.6,0,2.4C157.7,102.5,157.8,102.2,158,102.1z"/>
	<path class="st0" d="M75.6,102.1c0.8-0.4,0.9-0.5,0.5-1.3c1.6,0.4,0,1.5-0.5,2.3c1.6-0.6,2.9,0.8,4.5-0.4c0.3,0.8,1,0.4,1.5,0.4
		c1.2,0.1,0-1.3,0.8-1.3c0.1,0.4,0.2,0.9,0.3,1.3c3.8,0.9,3.4-3.4,1.2-2.2c-0.3-0.5-1.1-0.9-1.1-1.4c0.9,0.3,1.7,0.6,2.6,1
		c0-0.4,0-0.7,0-1c-2.9-1.3-6.1,0.3-8.9-0.6c-0.1,0.4-0.1,0.6-0.1,0.8c-0.3-0.2-0.7-0.4-1.1-0.6c0,0.5,0.8,1,0.1,1.5
		c-0.1-0.1-0.2-0.2-0.3-0.3c0,0.8,0,1.6,0,2.3C75.3,102.5,75.4,102.2,75.6,102.1z"/>
	<path class="st0" d="M154.1,95.6c-0.3,0.1-0.7,0.2-1,0.4c0.3,0.5,0.8,0.6,1.3,0.9c-0.3,0.7-1.1,0.9-0.6,1.8
		c-0.4-0.2-0.6-0.3-0.8-0.4c0.2,1.8,1.6,0.2,2.3-0.3c0.1,0.2,0.3,0.4,0.5,0.7c-0.9,0.6-2.1,0.8-1.5,2.2c0.2-0.1,0.4-0.2,0.7-0.4
		c0,0.3,0,0.6-0.1,0.9c0.5,0,0.9-0.3,1.3,0c0.2-2.1,1-4.9-0.3-6.6c1-0.3,0.9-1.9,0.3-2.6c-0.3-0.4,0-0.5,0.4-0.5
		c0.9-2.9-4.2-2.4-3.1,0.2c0,0.1-0.6,0.4-0.6,0.3c-1.5-1-0.3,1.6-0.9,2.4C153,93.8,153.3,94.9,154.1,95.6z"/>
	<path class="st0" d="M151.9,94.5C151.9,94.5,151.9,94.5,151.9,94.5L151.9,94.5C151.9,94.5,151.9,94.5,151.9,94.5z"/>
	<path class="st0" d="M69.5,94.5C69.5,94.5,69.5,94.5,69.5,94.5L69.5,94.5C69.5,94.6,69.5,94.5,69.5,94.5z"/>
	<path class="st0" d="M71.7,95.6c-0.4,0.1-0.8,0.1-1.1,0.4c0.3,0.5,0.8,0.6,1.3,0.9c-0.4,0.6-0.8,1.1-0.7,1.7
		c-0.2-0.2-0.5-0.3-0.7-0.5c0.4,1.7,1.5,0.4,2.4-0.2c0.1,0.2,0.3,0.4,0.5,0.7c-1.6-0.1-2.4,3-1,1.8c0,0,0.1,0,0.1,0
		c0,0.3,0,0.6-0.1,0.9c0.4,0,0.7-0.1,1.3-0.2c0.2-2.4,1.4-6.3-1.9-6.8c3-0.5,1.7-1.4,2-3.1c-0.2-0.4-0.4-0.6-0.5-0.9
		c1.9-0.8-1.3-0.8-2.1-0.8c0.4,0.6-0.2,0.6-0.5,0.7c0.1,0.5,0.2,0.9,0.2,1.4c0,0.1-0.6,0.4-0.6,0.3c-1.5-1-0.3,1.6-0.8,2.4
		C70.6,93.8,70.9,95,71.7,95.6z"/>
	<path class="st0" d="M115.5,103.1c2.8,0,2.6-0.8,2.1-3c-0.7-1.2-3-0.3-4.1-0.5C113.2,102.2,112.7,102.9,115.5,103.1z"/>
	<path class="st0" d="M110.1,103.4c3.5-0.1,2.5-1,2.3-3.7C110.4,99.6,108.3,102.1,110.1,103.4z"/>
	<path class="st0" d="M88.6,97.5c3.7-0.6,0.1-3.8-0.7-5.7C88,93,87,97.4,88.6,97.5z"/>
	<path class="st0" d="M112.6,106.9c1-0.1,0.2-1.4,0.2-1.9c0.2-1.6-0.8-0.8-1.8-0.8C108.3,104.9,109.8,108.2,112.6,106.9z"/>
	<path class="st0" d="M113.5,115.2c0.4-0.1,0.6-0.2,0.9-0.4c-0.6-1.5-0.4-4.2-2.7-3.3c0.2,1.9,1.5,4.3,3.3,5.1
		C114.6,116,114.1,115.8,113.5,115.2z"/>
	<path class="st0" d="M110.8,108.1c-1.3,1.5,0.8,3,2.5,2.2c0-0.8-0.1-1.7-0.1-2.5c0.2,0,0.4,0,0.6,0
		C112.8,107.5,111.7,108,110.8,108.1z"/>
	<path class="st0" d="M113.7,107.8C113.7,107.8,113.7,107.8,113.7,107.8C113.8,107.8,113.8,107.8,113.7,107.8
		C113.7,107.8,113.7,107.8,113.7,107.8z"/>
	<path class="st0" d="M126.2,100.8c-0.2-0.3-0.8-0.4-1.2-0.6c-0.5,0.9-0.5,2.1-0.4,3c1.1,0.5,1.9,0.3,1.8-1.2c0,0,0.1,0,0.1,0
		C126.5,101.6,126.5,101.1,126.2,100.8z"/>
	<path class="st0" d="M125.7,104.5c-0.3-0.2-0.8-0.2-1.3-0.3c0.1,1-0.3,1.9,0.3,2.7c-0.2,0-0.3,0.1-0.6,0.1
		C126.1,108.2,127.2,105.6,125.7,104.5z"/>
	<path class="st0" d="M125.2,108.3c0.1,0.2,0.1,0.4,0.2,0.6c-0.1,0-0.1,0.1-0.2,0.1c-0.3-0.3-0.7-0.7-1.1-1.1
		c-0.3,1-0.5,1.7-0.7,2.4c1.4,1.3,2.4-1.1,1.9-2.1C125.3,108.3,125.3,108.3,125.2,108.3z"/>
	<path class="st0" d="M89.8,98.2c0-0.2-0.1-0.3-0.1-0.3c-0.6,0.8-2.2,0.7-1.8,1.8c1.4-0.3,2.7-0.6,4.1-1c-0.1-0.9-0.9-0.3-1-0.4
		C90.6,97.9,90.2,98.1,89.8,98.2z"/>
	<path class="st0" d="M126,99.4c0.1-1.8-0.6-3.1-1.9-2.9C124.8,97.5,124.4,99.7,126,99.4z"/>
	<path class="st0" d="M172.4,84.2c-0.2,0-0.5,0.1-0.7,0.2c1.9,1.3,1,1.2-0.2,1.9c1,0,1.3,0.7,1.4,1.4c0.1,0,0.2,0,0.3,0
		C172.9,86.4,174.2,84.3,172.4,84.2z"/>
	<path class="st0" d="M171.3,84.6c0-0.1-0.2-0.3-0.3-0.4c-0.5,0.9-0.5,2.7,0.1,3.5C171.7,86.8,171.3,85.6,171.3,84.6z"/>
	<path class="st0" d="M122.6,113.5c0.3,0.1,0.6,0.1,1.1,0.3c-0.5-0.8,0.5-1.3,0.9-2C123.2,111.4,122.8,111.8,122.6,113.5z"/>
	<path class="st0" d="M68.9,90.9c0.4-0.3,1-0.6,1.5-0.8c-0.3-0.4-1.1-0.1-1.6-0.3c0,0.8,0,1.4,0,2.1C69.7,91.5,68.8,91.3,68.9,90.9z
		"/>
	<path class="st0" d="M151.3,90.9c0.5-0.3,1-0.6,1.6-0.9c-0.3-0.4-1.1-0.1-1.6-0.3c0,0.8,0,1.4,0,2.1
		C151.7,91.6,151.7,91.6,151.3,90.9z"/>
	<path class="st0" d="M122,115c0,0.2,0.1,0.4,0.1,0.6c0.9-0.1,0.5-0.9,0.1-1.4c0,0,0.1-0.1,0.1-0.1c0.3,0.2,0.5,0.4,0.8,0.5
		c0.1-0.1,0.1-0.2,0.2-0.3c-0.3-0.2-0.6-0.4-1-0.6C122.2,114.3,122.1,114.7,122,115z"/>
	<path class="st0" d="M69.5,94.6c-0.8,0.1-0.7,0.6-0.7,1.2C69.5,95.6,69.6,95.1,69.5,94.6z"/>
	<path class="st0" d="M69.5,94.5C69.5,94.5,69.5,94.6,69.5,94.5C69.5,94.6,69.5,94.6,69.5,94.5z"/>
	<path class="st0" d="M151.9,94.6c-0.7,0.1-0.7,0.6-0.6,1.2C151.9,95.5,152,95.1,151.9,94.6z"/>
	<path class="st0" d="M151.9,94.5C151.9,94.5,151.9,94.5,151.9,94.5C151.9,94.6,151.9,94.5,151.9,94.5
		C151.9,94.5,151.9,94.5,151.9,94.5z"/>
	<path class="st0" d="M69.1,112.4c-0.5,0.5,0.6,0.8,0.9,1.1C70.1,113.1,69.6,112.3,69.1,112.4z"/>
	<path class="st0" d="M151.5,112.4c-0.4,0.5,0.6,0.7,0.9,1.1C152.5,113.1,152,112.2,151.5,112.4z"/>
	<path class="st0" d="M114.8,83.5c-0.1,0-0.2-0.1-0.3-0.1c-0.1,0.5-0.2,1-0.3,1.5c0.1,0,0.1,0,0.2,0.1
		C114.4,84.5,114.6,84,114.8,83.5z"/>
	<path class="st0" d="M171.9,82.7c-4.3-0.1-4.3,6.7,0,6.6C176.2,89.4,176.2,82.7,171.9,82.7z M171.9,88.9c-3.7,0.1-3.7-5.7,0-5.6
		C175.6,83.2,175.6,88.9,171.9,88.9z"/>
</g>
</svg>
