<?xml version="1.0" encoding="utf-8"?>
<!-- Generator: Adobe Illustrator 25.0.1, SVG Export Plug-In . SVG Version: 6.00 Build 0)  -->
<svg version="1.1" id="Layer_1" xmlns="http://www.w3.org/2000/svg" xmlns:xlink="http://www.w3.org/1999/xlink" x="0px" y="0px"
	 viewBox="0 0 200 200" style="enable-background:new 0 0 200 200;" xml:space="preserve">
<style type="text/css">
	.st0{fill:#242424;}
	.st1{fill:#329837;}
	.st2{fill:#5CB629;}
	.st3{fill:#95DB14;}
	.st4{fill:#7CAD12;}
</style>
<g>
	<path class="st0" d="M174.9,90.8c0,1.1-0.4,2.2-0.9,3.2c-1.1,2.3-2.9,3.7-5.2,4.6c-1.4,0.5-2.9,0.7-4.4,0.7c-1.9,0-3.7-0.5-5.3-1.4
		c-2.4-1.3-3.8-3.4-4.4-6c-0.4-1.9-0.3-3.7,0.2-5.6c0.8-2.7,2.6-4.6,5.2-5.7c1.8-0.8,3.6-1,5.5-0.9c2.2,0.1,4.3,0.9,6,2.3
		c1.8,1.5,2.9,3.4,3.2,5.8c0,0.1,0,0.3,0,0.4c0,0.2,0,0.4,0.1,0.5c0,0.5,0,1.1,0,1.6C174.9,90.5,174.9,90.6,174.9,90.8z M169.7,89.5
		c0-0.3,0-0.7-0.1-1.1c-0.3-1.7-1.2-3-2.8-3.7c-0.8-0.3-1.6-0.5-2.4-0.4c-2,0.2-3.4,1.1-4.2,2.9c-0.6,1.4-0.6,2.9-0.1,4.3
		c0.5,1.4,1.4,2.3,2.8,2.9c0.7,0.3,1.5,0.3,2.3,0.3c1.8-0.1,3.1-1,3.9-2.5C169.6,91.3,169.8,90.4,169.7,89.5z"/>
	<path class="st1" d="M174.9,90.8c0-0.2,0-0.4,0.1-0.5C175,90.5,175,90.7,174.9,90.8C175,90.8,175,90.8,174.9,90.8z"/>
	<path class="st2" d="M175,88.7c-0.1-0.2-0.1-0.3-0.1-0.5c0,0,0,0,0.1-0.1C175,88.3,175,88.5,175,88.7z"/>
	<path class="st0" d="M117.7,112.4c0.7,1.4,1.8,2.5,3.4,2.8c0.2,0,0.4,0.1,0.5,0.1c0.2,0,0.2,0.1,0.2,0.2c0,1.4,0,2.8,0,4.3
		c0,0.2,0,0.2-0.3,0.2c-1.9,0-3.6-0.5-5.1-1.5c-1.8-1.2-3.1-2.8-3.9-4.8c0-0.1-0.1-0.2-0.1-0.2c0-0.1-0.1-0.2-0.2-0.2
		c-0.2,0-0.5,0-0.7,0c-0.1,0-0.2,0.1-0.2,0.2c0,0.1,0,0.2,0,0.3c0,1.9,0,3.8,0,5.6c0,0.1,0,0.2,0,0.3c0,0.1,0,0.1-0.1,0.1
		c-0.1,0-0.1,0-0.2,0c-1.6,0-3.2,0-4.7,0c-0.1,0-0.1,0-0.2,0c-0.1,0-0.2,0-0.2-0.2c0-0.1,0-0.1,0-0.2c0-5.9,0-11.9,0-17.8
		c0-0.4-0.1-0.4,0.4-0.4c2.6,0,5.2,0,7.8,0c1.3,0,2.7,0.1,3.9,0.6c1.4,0.5,2.6,1.4,3.3,2.7c0.9,1.6,1,3.3,0.2,5
		c-0.3,0.7-0.8,1.2-1.4,1.6c-0.7,0.5-1.4,0.8-2.1,1.1C117.8,112.3,117.8,112.3,117.7,112.4z M111.3,107.4c0,0.7,0,1.4,0,2.1
		c0,0.1,0,0.3,0.2,0.3c0.9,0,1.7,0,2.6,0c0.7,0,1.4-0.3,1.9-0.9c0.8-0.8,0.8-2,0.1-2.8c-0.6-0.6-1.3-0.9-2.1-1c-0.8,0-1.6,0-2.3,0
		c-0.2,0-0.2,0.1-0.2,0.2C111.3,106,111.3,106.7,111.3,107.4z"/>
	<path class="st0" d="M102.9,90.9c-0.6,0.2-1.1,0.4-1.7,0.5c-1.5,0.4-3,0.6-4.5,0.7c-0.3,0-0.3,0-0.3,0.4c0,1.9,0,3.9,0,5.8
		c0,0.1,0,0.1,0,0.2c0,0.2,0,0.2-0.2,0.2c-1.7,0-3.3,0-5,0c-0.2,0-0.3-0.1-0.2-0.3c0-0.1,0-0.1,0-0.2c0-5.9,0-11.8,0-17.8
		c0-0.5-0.1-0.4,0.4-0.4c1.5,0,3.1,0,4.6,0c0.4,0,0.4-0.1,0.4,0.4c0,2.3,0,4.6,0,6.9c0,0.1,0,0.1,0,0.2c0,0.3,0,0.3,0.3,0.3
		c1.1,0,2.1-0.2,3.2-0.4c1-0.2,1.9-0.4,2.8-0.7c0.3-0.1,0.3-0.1,0.3-0.4c0-1.9,0-3.9,0-5.8c0-0.1,0-0.2,0-0.3c0-0.2,0-0.2,0.2-0.2
		c0.3,0,0.6,0,0.9,0c1.3,0,2.7,0,4,0c0.4,0,0.3,0,0.3,0.3c0,6,0,12,0,18c0,0.1,0,0.1,0,0.2c0,0.1-0.1,0.1-0.2,0.1
		c-0.1,0-0.1,0-0.2,0c-1.6,0-3.1,0-4.7,0c-0.1,0-0.1,0-0.2,0c-0.1,0-0.2,0-0.2-0.1c0-0.1,0-0.2,0-0.3c0-2.4,0-4.7,0-7.1
		C103,91.2,103,91.1,102.9,90.9z"/>
	<path class="st0" d="M169.2,112c-0.1,0-0.3,0-0.4,0.1c-1.9,0.6-3.8,1-5.8,1.1c-0.4,0-0.4,0-0.4,0.4c0,2,0,3.9,0,5.9
		c0,0.1,0,0.2,0,0.3c0,0.1-0.1,0.1-0.2,0.1c-0.1,0-0.2,0-0.3,0c-1.5,0-3.1,0-4.6,0c-0.4,0-0.4,0.1-0.4-0.4c0-6,0-11.9,0-17.9
		c0,0,0-0.1,0-0.1c0-0.2,0.1-0.2,0.2-0.2c1.7,0,3.3,0,5,0c0.2,0,0.3,0,0.3,0.3c0,2.3,0,4.6,0,6.9c0,0.1,0,0.2,0,0.3
		c0,0.3,0,0.3,0.3,0.3c1.2,0,2.3-0.2,3.5-0.5c0.9-0.2,1.7-0.4,2.5-0.7c0.3-0.1,0.3-0.1,0.3-0.4c0-1.9,0-3.9,0-5.8c0-0.1,0-0.2,0-0.3
		c0-0.1,0-0.2,0.2-0.2c0.1,0,0.1,0,0.2,0c1.6,0,3.1,0,4.7,0c0.1,0,0.1,0,0.2,0c0.1,0,0.2,0,0.2,0.2c0,0.1,0,0.2,0,0.3
		c0,5.9,0,11.9,0,17.8c0,0.5,0,0.4-0.4,0.4c-1.5,0-3.1,0-4.6,0c0,0-0.1,0-0.1,0c-0.3,0-0.3,0-0.3-0.3c0-0.1,0-0.1,0-0.2
		c0-2.3,0-4.7,0-7C169.2,112.2,169.2,112.1,169.2,112z"/>
	<path class="st0" d="M154,104.5c-1.3,0.7-2.6,1.4-3.8,2c0-0.1-0.1-0.1-0.1-0.1c-0.3-1.1-1.1-1.7-2.2-2c-0.7-0.2-1.4-0.2-2.1,0
		c-0.4,0.1-0.7,0.3-0.9,0.5c-0.6,0.6-0.5,1.6,0.2,2.1c0.5,0.3,1,0.5,1.6,0.6c1.2,0.2,2.4,0.5,3.5,0.7c0.7,0.1,1.3,0.3,2,0.6
		c0.9,0.3,1.7,0.9,2.4,1.6c0.6,0.7,0.9,1.5,1,2.4c0.1,0.7,0,1.5-0.2,2.2c-0.4,1.3-1.1,2.4-2.3,3.2c-1.1,0.8-2.3,1.2-3.5,1.4
		c-2,0.4-4,0.3-5.9-0.3c-1.4-0.4-2.7-1.1-3.7-2.2c-0.4-0.4-0.8-0.9-1.1-1.5c-0.1-0.1-0.1-0.2,0.1-0.3c1.4-0.7,2.7-1.4,4-2.1
		c0.1,0,0.1,0.1,0.1,0.1c0.3,1.1,1,1.8,2,2.2c1.1,0.5,2.3,0.5,3.5,0.2c0.4-0.1,0.8-0.3,1.1-0.5c0.8-0.6,0.7-1.8-0.1-2.3
		c-0.5-0.3-1.1-0.5-1.6-0.6c-1.2-0.3-2.5-0.5-3.7-0.8c-0.6-0.1-1.1-0.3-1.7-0.5c-1-0.4-1.8-0.9-2.4-1.7c-0.5-0.6-0.7-1.2-0.8-2
		c-0.2-1.1-0.1-2.2,0.3-3.2c0.6-1.7,1.8-2.7,3.5-3.4c1.2-0.5,2.5-0.7,3.9-0.6c1.4,0,2.8,0.3,4.1,0.9c1.2,0.6,2.2,1.4,2.9,2.6
		C153.9,104.2,154,104.4,154,104.5z"/>
	<path class="st0" d="M115.9,87.5c0.2,0,0.3,0,0.4,0c2,0,4,0,6.1,0c0.1,0,0.1,0,0.2,0c0.2,0,0.2,0.1,0.2,0.2c0,1,0,2,0,3
		c0,0.3,0,0.3-0.3,0.3c-2.1,0-4.1,0-6.2,0c-0.5,0-0.4-0.1-0.4,0.4c0,0.9,0,1.9,0,2.8c0,0.3,0,0.3,0.3,0.3c2.5,0,5,0,7.5,0
		c0.5,0,0.4-0.1,0.4,0.4c0,1.1,0,2.3,0,3.4c0,0.4,0,0.4-0.3,0.4c-2.9,0-5.8,0-8.7,0c-1.3,0-2.7,0-4,0c-0.5,0-0.4,0.1-0.4-0.4
		c0-3.8,0-7.5,0-11.3c0-2.2,0-4.4,0-6.5c0-0.4,0-0.4,0.4-0.4c4.3,0,8.5,0,12.8,0c0.4,0,0.4,0,0.4,0.4c0,1.1,0,2.3,0,3.4
		c0,0.4,0,0.4-0.3,0.4c-2.5,0-5.1,0-7.6,0c-0.5,0-0.4-0.1-0.4,0.4C115.9,85.7,115.9,86.6,115.9,87.5z"/>
	<path class="st0" d="M124,110.5c0-2.9,0-5.9,0-8.8c0-0.1,0-0.1,0-0.2c0-0.3,0-0.3,0.3-0.3c4.2,0,8.4,0,12.5,0c0.1,0,0.1,0,0.2,0
		c0.1,0,0.1,0.1,0.1,0.2c0,0.1,0,0.1,0,0.2c0,1.2,0,2.3,0,3.5c0,0.4,0,0.3-0.3,0.3c-2.4,0-4.8,0-7.2,0c-0.5,0-0.4-0.1-0.4,0.4
		c0,0.8,0,1.6,0,2.4c0,0.4,0,0.4,0.4,0.4c2,0,4,0,6.1,0c0.1,0,0.1,0,0.2,0c0.3,0,0.3,0,0.3,0.3c0,1,0,1.9,0,2.9c0,0.3,0,0.3-0.3,0.3
		c-2,0-4,0-6,0c-0.1,0-0.2,0-0.3,0c-0.3,0-0.3,0-0.3,0.3c0,0.9,0,1.8,0,2.7c0,0.1,0,0.2,0,0.3c0,0.1,0,0.2,0.2,0.2
		c0.1,0,0.2,0,0.3,0c2.5,0,4.9,0,7.4,0c0.5,0,0.4,0,0.4,0.4c0,1.2,0,2.3,0,3.5c0,0.3,0,0.3-0.3,0.3c-4.3,0-8.6,0-12.8,0
		c-0.3,0-0.3,0-0.3-0.3C124,116.5,124,113.5,124,110.5z"/>
	<path class="st0" d="M90.9,110.5c0-2.9,0-5.9,0-8.8c0,0,0-0.1,0-0.1c0-0.3,0-0.3,0.3-0.3c4.2,0,8.3,0,12.5,0c0.3,0,0.3,0,0.3,0.3
		c0,1.3,0,2.6,0,3.9c0,0.3,0,0.3-0.3,0.3c-2.3,0-4.6,0-6.9,0c-0.5,0-0.4,0-0.4,0.4c0,1,0,1.9,0,2.9c0,0.3,0,0.3,0.3,0.3
		c1.8,0,3.6,0,5.3,0c0.1,0,0.1,0,0.2,0c0.3,0,0.3,0,0.3,0.3c0,0.7,0,1.4,0,2.1c0,0.4,0,0.9,0,1.3c0,0.3,0,0.3-0.3,0.3
		c-1.7,0-3.4,0-5.1,0c-0.2,0-0.3,0-0.5,0c-0.1,0-0.2,0.1-0.2,0.2c0,0.1,0,0.2,0,0.3c0,1.9,0,3.7,0,5.6c0,0.1,0,0.2,0,0.3
		c0,0.1-0.1,0.2-0.2,0.2c-0.2,0-0.4,0-0.5,0c-1.4,0-2.8,0-4.2,0c-0.1,0-0.1,0-0.2,0c-0.2,0-0.3,0-0.3-0.2c0-0.1,0-0.1,0-0.2
		C90.9,116.4,90.9,113.4,90.9,110.5z"/>
	<path class="st0" d="M141,89.5c0-2.9,0-5.9,0-8.8c0,0,0-0.1,0-0.1c0-0.4,0-0.4,0.3-0.4c1.6,0,3.2,0,4.7,0c0.4,0,0.3,0,0.3,0.4
		c0,4.4,0,8.8,0,13.2c0,0,0,0.1,0,0.1c0,0.5,0,0.4,0.4,0.4c2.2,0,4.4,0,6.5,0c0.1,0,0.1,0,0.2,0c0.2,0,0.2,0.1,0.2,0.3
		c0,1.3,0,2.7,0,4c0,0.3,0,0.3-0.3,0.3c-1,0-2.1,0-3.1,0c-3,0-6,0-9,0c-0.1,0-0.2,0-0.3,0c-0.1,0-0.2,0-0.2-0.2c0-0.1,0-0.2,0-0.3
		C141,95.4,141,92.4,141,89.5z"/>
	<path class="st0" d="M126.3,89.5c0-2.9,0-5.9,0-8.8c0-0.1,0-0.1,0-0.2c0-0.3,0-0.3,0.3-0.3c1.6,0,3.2,0,4.8,0c0.3,0,0.3,0,0.3,0.3
		c0,2.7,0,5.5,0,8.2c0,1.7,0,3.4,0,5.1c0,0.1,0,0.2,0,0.3c0,0.1,0,0.2,0.2,0.2c0.1,0,0.2,0,0.3,0c2.2,0,4.3,0,6.5,0
		c0.1,0,0.2,0,0.3,0c0.1,0,0.2,0,0.2,0.2c0,0.1,0,0.3,0,0.4c0,1.2,0,2.4,0,3.6c0,0.4,0,0.4-0.3,0.4c-3.8,0-7.6,0-11.4,0
		c-0.3,0-0.6,0-0.9,0c-0.1,0-0.2-0.1-0.2-0.2c0-0.1,0-0.2,0-0.3C126.3,95.4,126.3,92.4,126.3,89.5z"/>
</g>
<g>
	<g>
		<path class="st3" d="M56.1,75.7c4.6,0,9.3,1.2,13.2,3.7c2,1.4,4.2,2.4,6.7,2.7c2.2,0.4,5-0.5,5.7,2.4c0.2,0.9,0,1.6-0.5,2.4
			c-1.1,1.8-1.8,3.8-2.1,6c-0.3,2,0.2,4,0,6c-0.9,14.5-14.9,25.9-29.1,25.3c-5-0.1-9.8-1.9-13.9-4.7c-1.8-1-3.7-1.6-5.7-1.8
			c-2-0.1-4.3,0.3-5.1-2.2c-0.4-1.2,0.2-2.3,0.9-3.3c1.1-2.1,1.7-4.4,1.7-6.7C26,89.7,40.5,75.6,56.1,75.7z"/>
	</g>
	<g>
		<path class="st4" d="M70.5,115.6c-2.6,2.3-5.6,4.1-8.9,5.4c-3.3,1.3-6.7,2-10.1,2c-0.3,0-0.6,0-1,0l0,0c-4.8-0.1-9.6-1.8-13.8-4.7
			l-0.1,0l-0.1,0c-2-1.1-4.2-1.8-6.5-2.1l0,0l0,0c-0.4,0-0.8,0-1.2,0c-0.8,0-1.5,0-2.1-0.2c-0.3-0.1-0.6-0.3-0.9-1.1l0,0
			c-0.2-0.6,0.1-1.2,0.8-2.3l0,0l0,0c1.3-2.3,1.9-5,2-7.7l0-0.1l0-0.1c-0.4-3.6,0-7.2,1.2-10.7c1.1-3.1,2.7-6,4.9-8.6
			c-4.9,5.4-7.8,12.6-6.9,20.2c0,2.3-0.6,4.7-1.7,6.7c-0.6,1-1.2,2.1-0.9,3.3c0.8,2.5,3,2,5.1,2.2c2,0.2,4,0.8,5.7,1.8
			c4.1,2.9,8.9,4.6,13.9,4.7c11.8,0.4,23.5-7.3,27.6-18.3c-0.2,0.5-0.5,1.1-0.8,1.6C75.3,110.6,73.1,113.3,70.5,115.6z"/>
	</g>
	<g>
		<path class="st4" d="M80.6,87.8c0.4-0.6,0.6-1.3,0.5-1.9c-0.8,1.4-1.4,2.8-1.7,4.4C79.7,89.4,80.2,88.6,80.6,87.8z"/>
		<path class="st4" d="M78.5,99.8c-0.1,2.4-0.7,4.8-1.5,7c1.2-2.7,1.8-5.4,2-8.2l0,0l0,0c0.1-0.9,0-1.8,0-2.8
			c-0.1-1.2-0.1-2.3,0-3.6c0.1-0.7,0.2-1.3,0.3-1.9c-0.4,1.1-0.7,2.3-0.9,3.5C78.3,95.8,78.7,97.8,78.5,99.8z"/>
		<path class="st4" d="M81.8,84c-0.3-1.2-0.9-1.3-2.9-1.4c-0.6,0-1.3,0-1.9-0.1c-2.6-0.4-5.1-1.4-7.5-3.1c-1.8-1.1-3.7-2-5.8-2.6
			c0,0.1-0.1,0.1-0.1,0.2c0.8,0.6,1.6,1.2,2.4,1.8c1,0.4,1.9,0.9,2.9,1.5c2,1.4,4.2,2.4,6.7,2.7c2.2,0.4,5-0.5,5.7,2.4
			c0,0.2,0.1,0.3,0.1,0.4c0.1-0.2,0.2-0.3,0.3-0.5C81.8,84.9,81.9,84.4,81.8,84z"/>
	</g>
</g>
</svg>
