<?xml version="1.0" encoding="utf-8"?>
<!-- Generator: Adobe Illustrator 27.7.0, SVG Export Plug-In . SVG Version: 6.00 Build 0)  -->
<svg version="1.1" id="图层_1" xmlns="http://www.w3.org/2000/svg" xmlns:xlink="http://www.w3.org/1999/xlink" x="0px" y="0px"
	 viewBox="0 0 200 200" style="enable-background:new 0 0 200 200;" xml:space="preserve">
<style type="text/css">
	.st0{fill:#003942;}
</style>
<g>
	<path class="st0" d="M176.7,123.3c-0.1,0-0.3-0.1-0.3,0.1c0,3.2,0,6.4,0,9.6c0,0-0.1,0-0.1,0c-2-3.2-3.9-6.4-5.9-9.6
		c0-0.1-0.1-0.1-0.2-0.1c-1.3,0-2.5,0-3.8,0c-0.1,0-0.2,0-0.2,0.1c0,0.2,0,0.3,0,0.5c0,4.2,0,8.5,0,12.7c0,0.8,0,1.6,0,2.3
		c0,0.1,0.1,0.1,0.2,0.1c1.1,0,2.1,0,3.2,0c0.1,0,0.2,0,0.2-0.1c0-3.1,0-6.2,0-9.3c0,0,0.1,0,0.1,0c2,3.1,3.9,6.2,5.9,9.3
		c0.1,0.1,0.2,0.1,0.3,0.1c1.3,0,2.6,0,3.9,0c0,0,0-0.1,0-0.1c0-5.2,0-10.4,0-15.5c0,0,0-0.1,0-0.1
		C178.9,123.3,177.8,123.3,176.7,123.3z"/>
	<path class="st0" d="M106,107.3c0.1,0,0.2,0,0.2,0c5.9,0,11.8,0,17.6,0c0.7,0,0.6,0.1,0.6-0.6c0-15.2,0-30.4,0-45.5
		c0-0.2,0-0.3,0-0.5c0,0,0-0.1,0-0.1c0,0,0,0,0,0.1c-0.1,0.2-0.2,0.3-0.3,0.5c-5.5,8.4-11.1,16.8-16.6,25.1
		c-1.2,1.8-1.8,3.7-1.8,5.8c0,4.9,0,9.9,0,14.8C105.7,107.3,105.7,107.3,106,107.3z"/>
	<path class="st0" d="M92.8,86.6c-3.8-5.7-7.5-11.4-11.3-17.1c-1.9-2.9-3.8-5.8-5.7-8.7c0,0,0-0.1-0.1-0.1c0,0,0,0-0.1,0
		c0,0.2,0,0.3,0,0.5c0,15.2,0,30.4,0,45.6c0,0.6-0.1,0.5,0.5,0.5c5.9,0,11.8,0,17.7,0c0.1,0,0.2,0,0.3,0c0.1,0,0.2-0.1,0.2-0.2
		c0-0.1,0-0.2,0-0.2c0-5,0-10,0-15C94.4,90,93.8,88.2,92.8,86.6z"/>
	<path class="st0" d="M108.9,123.4c-0.2-0.1-0.5,0-0.7-0.2c-0.2-0.1-0.4-0.1-0.6-0.1c0,0,0,0,0,0c-0.4-0.2-0.9-0.1-1.3-0.1
		c-0.3,0-0.7-0.1-1,0.1c-0.2,0-0.5,0.1-0.7,0.1c-3.2,0.5-5.5,2.6-6.2,5.7c-0.1,0-0.1,0.1,0,0.1c-0.3,1.4-0.3,2.8,0,4.3
		c0,0.1,0,0.1,0,0.1c0.2,0.7,0.4,1.4,0.8,2.1c0.9,1.6,2.3,2.7,4.1,3.3c0.4,0.2,0.9,0.3,1.3,0.3c0.2,0.1,0.4,0.1,0.7,0.1
		c0,0,0.1,0,0.1,0c0.7,0.1,1.3,0.1,2,0c0,0,0,0,0,0c0.2,0,0.4,0,0.6-0.1c0.2,0,0.3-0.1,0.5-0.1c2.5-0.6,4.4-2,5.4-4.5
		c0.9-2.2,0.9-4.4,0.1-6.7C113.2,125.5,111.4,124,108.9,123.4z M110.5,131.6c-0.1,0.1-0.1,0.1,0,0.2c-0.1,0.8-0.2,1.5-0.6,2.1
		c-0.7,1.2-1.7,1.8-3.1,1.9c-0.6,0-1.1,0-1.7-0.1c-1.4-0.5-2.3-1.5-2.6-2.9c-0.3-1.3-0.3-2.6,0.2-3.8c0.5-1.2,1.4-2,2.7-2.3
		c0,0,0.1,0,0.1,0c0.6,0,1.1,0,1.7,0c0.3,0.1,0.6,0.1,0.8,0.2c1.1,0.5,1.8,1.3,2.2,2.4C110.5,130,110.6,130.8,110.5,131.6z"/>
	<path class="st0" d="M90.4,132.8c-0.1-0.1-0.2-0.2-0.2-0.4c0.2-0.1,0.4-0.1,0.6-0.2c1.3-0.5,2.3-1.4,2.7-2.8
		c0.2-0.6,0.2-1.3,0.1-1.9c-0.1-1.5-0.9-2.6-2.2-3.3c-0.8-0.4-1.6-0.6-2.5-0.7c-0.2-0.1-0.4-0.1-0.5-0.1c-2.3,0-4.7,0-7,0
		c-0.1,0-0.3-0.1-0.3,0.1c0,0.2,0,0.3,0,0.5c0,4.4,0,8.7,0,13.1c0,0.7,0,1.3,0,2c0.1,0.2,0.2,0.1,0.3,0.1c1,0,2,0,3,0
		c0.1,0,0.2,0,0.3-0.1c0-0.2,0-0.3,0-0.5c0-1.6,0-3.3,0-4.9c0-0.1,0-0.3,0-0.4c0-0.2,0.1-0.3,0.3-0.3c0.3,0,0.6,0,0.8,0
		c0.3,0,0.5,0.1,0.6,0.4c1.1,1.9,2.3,3.8,3.5,5.8c0,0.1,0.1,0.1,0.2,0.1c1.3,0,2.6,0,3.9,0c0.1,0,0.2,0,0.2-0.1
		c-0.1-0.1-0.1-0.3-0.2-0.4C92.8,136.6,91.6,134.7,90.4,132.8z M89.5,128.8L89.5,128.8c-0.1,0-0.1,0.1,0,0.1c-0.2,0.9-1,1.2-1.6,1.2
		c-1,0-1.9,0-2.9,0c-0.2,0-0.3-0.1-0.3-0.3c0-1.1,0-2.1,0-3.2c0-0.1,0.1-0.1,0.1-0.1c-0.1,0-0.1,0-0.1,0.1c0.2,0,0.4,0,0.6,0
		c0.9,0,1.8,0,2.7,0c0.6,0.1,1.1,0.4,1.3,1C89.5,128,89.6,128.4,89.5,128.8z"/>
	<path class="st0" d="M75.7,126.8c0-0.1,0-0.1,0-0.1c-0.5-1.5-1.5-2.4-2.9-2.9c-0.5-0.2-1.1-0.2-1.6-0.3c-0.1-0.1-0.3-0.1-0.5-0.1
		c-2.2,0-4.3,0-6.5,0c-0.1,0-0.3-0.1-0.3,0.1c0,0.2,0,0.3,0,0.5c0,4.3,0,8.6,0,13c0,0.7,0,1.4,0,2.1c0,0,0,0.1,0.1,0.1
		c1.2,0,2.3,0,3.5,0c0.1,0,0.1,0,0.1-0.1c0-1.7,0-3.4,0-5.1c0-0.4,0-0.4,0.4-0.4c0.9,0,1.8,0,2.7,0c0.3,0,0.6,0,0.8-0.1c0,0,0,0,0,0
		c0.2,0,0.3,0,0.5-0.1c0.1,0,0.3-0.1,0.4-0.1c1.6-0.5,2.8-1.4,3.3-3.1c0.1,0,0.1-0.1,0-0.1C75.9,128.9,75.9,127.9,75.7,126.8z
		 M71.6,129.4c-0.3,0.6-0.8,1-1.5,1c-0.8,0.1-1.6,0-2.4,0c-0.2,0-0.2-0.1-0.2-0.2c0-0.6,0-1.1,0-1.7c0-0.6,0-1.1,0-1.7
		c0-0.2,0.1-0.3,0.3-0.3c0.7,0,1.5,0,2.2,0C71.4,126.7,72.2,128,71.6,129.4z"/>
	<path class="st0" d="M130.6,123.3c-4,0-8.1,0-12.1,0c-0.1,0-0.3,0-0.4,0c-0.1,0-0.1,0-0.1,0.1c0,0.9,0,1.8,0,2.7
		c0,0.4,0,0.4,0.4,0.4c1.3,0,2.6,0,3.8,0c0.6,0,0.5,0,0.5,0.5c0,2,0,4.1,0,6.1c0,1.9,0,3.9,0,5.8c0,0.1,0.1,0.1,0.2,0.1
		c1.1,0,2.2,0,3.3,0c0.1,0,0.2,0,0.2-0.1c0-3.9,0-7.8,0-11.7c0-0.7,0-0.7,0.7-0.7c1.2,0,2.5,0,3.7,0c0.2,0,0.4,0,0.3-0.2
		c0-0.9,0-1.9,0-2.8C131,123.2,130.8,123.3,130.6,123.3z"/>
	<path class="st0" d="M147.5,135.7c-1.6,0-3.1,0-4.7,0c-0.9,0-1.8,0-2.7,0c0-0.9,0-1.7,0-2.6c0-0.6-0.1-0.5,0.5-0.5c2,0,4,0,6,0
		c0.4,0,0.4,0,0.4-0.4c0-0.9,0-1.7,0-2.6c-0.1-0.2-0.3-0.1-0.5-0.1c-2.1,0-4.3,0-6.4,0c0-0.9,0-1.9,0-2.8c0.6,0,1.2,0,1.8,0
		c1.8,0,3.6,0,5.4,0c0.2,0,0.3,0.1,0.5-0.1c-0.2,0-0.4,0-0.6,0c0.2,0,0.4,0,0.6,0c0-1,0-2.1,0-3.1c-0.1-0.2-0.3-0.1-0.5-0.1
		c-3.5,0-6.9,0-10.4,0c-0.1,0-0.2,0-0.4,0c-0.1,0-0.1,0.1-0.1,0.1c0,5.2,0,10.3,0,15.5c0.1,0.3,0.3,0.1,0.5,0.1c3.5,0,7.1,0,10.6,0
		c0.1,0,0.2,0,0.4,0c0.1,0,0.1-0.1,0.1-0.1c0-1,0-2.1,0-3.1C147.8,135.6,147.6,135.7,147.5,135.7z"/>
	<path class="st0" d="M58.4,123.3c-1.2,0-2.5,0-3.7,0c-0.1,0-0.2,0-0.2,0.1c-1.1,2-2.1,3.9-3.2,6c-1.1-2-2.1-4-3.2-6
		c-0.1-0.1-0.2-0.1-0.3-0.1c-1.2,0-2.4,0-3.5,0c-0.1,0-0.2,0-0.2,0c-0.1,0-0.1,0.1,0,0.2c0.6,1,1.1,2,1.7,3c1.2,2.1,2.4,4.3,3.6,6.4
		c0,0.1,0,0.1,0.1,0.1c0,0.2,0,0.4,0,0.7c0,1.7,0,3.5,0,5.2c0.1,0.1,0.2,0.1,0.3,0.1c1,0,2.1,0,3.1,0c0.1,0,0.2,0,0.2-0.1
		c0-0.2,0-0.3,0-0.5c0-1.8,0-3.6,0-5.4c0.1,0,0.1-0.1,0-0.1c1.8-3.1,3.6-6.3,5.4-9.4c0,0,0.1-0.1,0-0.2
		C58.5,123.3,58.5,123.3,58.4,123.3z"/>
	<path class="st0" d="M38.5,123.3c-1.2,0-2.4,0-3.6,0c-0.1,0-0.2,0-0.3,0.1c-0.1,0.1-0.1,0.2-0.2,0.3c-1.6,2.9-3.2,5.8-4.7,8.8
		c-0.1,0.1-0.1,0.3-0.3,0.4c-0.1-0.2-0.2-0.3-0.2-0.4c-1.6-2.9-3.1-5.8-4.7-8.7c-0.2-0.3-0.4-0.5-0.8-0.5c-1.2,0-2.5,0-3.7,0
		c0,5.2,0,10.4,0,15.6c0,0,0,0.1,0,0.1c1.1,0,2.2,0,3.3,0c0.1,0,0.3,0.1,0.4-0.1c0-3.1,0-6.1,0-9.2c0,0,0.1,0,0.1,0
		c1.3,2.5,2.6,4.9,4,7.4c0.1,0.1,0.2,0.1,0.3,0.1c0.9,0,1.8,0,2.7,0c0.1,0,0.2,0,0.3-0.1c0.1-0.1,0.2-0.3,0.3-0.4
		c1.2-2.3,2.5-4.6,3.7-6.9c0,0,0.1,0,0.1,0c0,2.9,0,5.8,0,8.7c0,0.2,0,0.3,0,0.5c1.1,0,2.1,0,3.2,0c-1.1,0-2.1,0-3.2,0
		c0,0.1,0.1,0.1,0.2,0.1c1.1,0,2.2,0,3.3,0c0.1,0,0.2,0,0.2-0.1c0-5.2,0-10.3,0-15.5C38.8,123.3,38.6,123.3,38.5,123.3z"/>
	<path class="st0" d="M158.7,123.3c-1.1,0-2.2,0-3.2,0c-0.1,0-0.2,0-0.2,0.1c0,5.2,0,10.4,0,15.5c0,0.1,0.1,0.1,0.1,0.1
		c1.1,0,2.3,0,3.4,0c0.1,0,0.1,0,0.1-0.1c0-5.2,0-10.3,0-15.5C158.9,123.3,158.8,123.3,158.7,123.3z"/>
</g>
</svg>
