<?xml version="1.0" encoding="utf-8"?>
<!-- Generator: Adobe Illustrator 24.3.0, SVG Export Plug-In . SVG Version: 6.00 Build 0)  -->
<svg version="1.1" id="Layer_1" xmlns="http://www.w3.org/2000/svg" xmlns:xlink="http://www.w3.org/1999/xlink" x="0px" y="0px"
	 viewBox="0 0 200 200" style="enable-background:new 0 0 200 200;" xml:space="preserve">
<style type="text/css">
	.st0{fill:#CA684D;}
</style>
<g>
	<path class="st0" d="M103.6,81.3c-7.5,3.8-5.7-6.6-11.6-5.8c-7.6-0.2-11.4,4.9-9.6-0.9c0.1-0.6,0.2-2.8-0.8-2.3
		c-4.9,2.2-3.9,17.6,0,6.5c0.5,2.2,1.3,4.4,3.6,5.1c1.7,2.5-2.2,3.3,3.6,7.3c0.4,0.2,0.5-0.3,0.4-0.6c-0.4-1.8,1.5-3.7,3.2-3.6
		c-2.1,2-1.9,5.5,1.2,6.4c0.1-1.2-1.7-3.9,0-5.3c0.7,1-0.8,2.9,0.7,4c1.8,1.6,5.1,3.2,7.2,1.4c1.9-2.2,3.9-4.6,6.5-1.8
		c1.2,2.4-2.1,3.7-4.2,3.1c-2.3-0.3-3.8,1.7-5.7,2.7c1.1,2.1,3.8,2.6,6,2.7c1.6-0.1,3.2,2.2,1.7,3.3c-1.9,1.3-4,0.5-6,0.2
		c-2.4,0.8-1.5,1.7-2.3,3.4c-3.4,3.1-5.6-1.9-8.4-2.5c-8,0.3-9.5-11-7.6-7.4c2.2,8.8,17.7,4,6.3-3c-0.5,0.9,0.5,1.4,1,1.9
		c1.8,2,0.4,4.4-2.2,3.1c-0.5-0.2-0.8-0.5-0.8-1.1c-0.1-1.6-1.2-2.7-2.2-3.8c-3.4-3.6-4.7,4.9-6.6,2.1c-1.2-3,1.9-4.4,3.5-6.1
		c-3-4.1,0.8-2.1-0.1-7.2c-1.8,0.3-2.6,2.3-3.9,3.4c-2.6,2.4-6.8-2.8-2.8-3.7c1.8,0.6,5.2-0.9,4.3-3.2c-5.6-23,2-0.8,6-18
		c0.2-3.1-3.2,0.1-3.6,1.5c-0.8,1.6-2.6,2-4.1,2.8c-1.8,0.4-1.3-5-1.7-6.4c-1.6-7.9,2.4-12.2,9.9-8c3.2,1.6,1.1,6,1.5,8.9
		c-0.1,2.7,3.9,4.5,5.4,2c1.5,0.5,3.2,3.1,2,4.5c-2.5-0.9-3.9-3.5-3.2,1.2c1.2,1.1,2,2.9,3.4,3.8c1.1,0.3,2,0.8,2.7,1.8
		C99.1,76.2,98.4,82.1,103.6,81.3L103.6,81.3z M83.8,71.1c-0.9,3.1,2.6,5.9,3.4,1.7c0.2-2.1,2.6-0.5,3.6-1.6
		c-0.2-2.4-4.4-4.2-5.5-1.5C85.1,70.5,84.4,70.8,83.8,71.1z M78.2,58.7c0.8,0.5,1,0.4,0.7,1.4c-0.2,1,4.2,0.1,4.5-0.5
		C82.5,57.5,79.3,55.8,78.2,58.7z M79,54.7c-1.5-0.4-3.6,1.8-2.8,3.3c1.1-0.5,1.3-1.9,2.4-2.5C78.8,55.4,79.1,55.2,79,54.7z"/>
	<path class="st0" d="M40,155c-3.5,0-6.9,0-10.6,0c0.9-0.2,1.4-0.6,1.8-1.1c0.4-0.6,0.6-1.3,0.6-2c0-3.5,0-7.1-0.1-10.6
		c0-4.2-0.1-8.4-0.2-12.6c0-0.4,0-0.7-0.1-1.1c-0.1-0.9-0.6-1.7-1.4-2.3c-0.1-0.1-0.2-0.2-0.5-0.3c0.3,0,0.5,0,0.6,0
		c4,0,7.9,0,11.9,0c2.4,0,4.7,0.5,6.8,1.6c1,0.6,2,1.3,2.7,2.1c0.9,1.1,1.6,2.3,1.8,3.7c0.2,1.4-0.1,2.7-0.8,3.9
		c-0.9,1.5-2.1,2.6-3.6,3.4c-1.4,0.8-3,1.3-4.6,1.6c-0.9,0.2-1.9,0.2-2.8,0.2c-1.1,0-2.3,0-3.4,0c-0.6,0-0.8,0.2-0.8,0.8
		c0,1,0,2,0,3.1c0,2.1,0.1,4.1,0.1,6.2c0,0.2,0,0.4,0,0.7c0.2,1.2,0.7,2.1,1.9,2.6c0.1,0,0.2,0.1,0.3,0.1
		C39.9,154.9,39.9,154.9,40,155z M37.4,126.2c-0.3,0.4-0.2,0.8-0.2,1.1c0.1,4,0.1,7.9,0.2,11.9c0,0.1,0,0.3,0,0.4
		c0,0.5,0.2,0.6,0.7,0.6c1.3,0,2.6,0,3.9,0c0.2,0,0.4-0.1,0.6-0.1c2-0.5,3.4-1.8,4.2-3.6c1.2-2.7,1-5.3-0.5-7.8
		c-0.5-0.8-1.1-1.5-1.9-1.9c-0.6-0.4-1.3-0.6-2.1-0.6c-1.4,0-2.8,0-4.3,0C37.9,126.1,37.7,126.2,37.4,126.2z"/>
	<path class="st0" d="M158.4,154.9c0.3-0.1,0.7-0.1,1.1-0.2c0.9-0.2,1.7-1.2,1.2-2.5c-0.1-0.2-0.2-0.4-0.3-0.6
		c-0.9-2.1-1.9-4.2-2.8-6.3c-0.1-0.1-0.1-0.3-0.2-0.4c-0.2-0.5-0.5-0.7-1.1-0.7c-2.8,0-5.7,0-8.5,0c-0.2,0-0.4,0-0.6,0.1
		c-0.1,0.2-0.3,0.5-0.4,0.8c-0.7,2-1.3,3.9-2,5.9c-0.1,0.4-0.2,0.9-0.2,1.4c0,1.4,0.8,2.3,2.1,2.5c0.2,0,0.3,0,0.5,0.1
		c-2.6,0-5.2,0-8,0c2.2-0.5,3.2-1.8,3.9-3.6c2.1-6,4.2-11.9,6.3-17.9c1-2.7,1.9-5.4,2.9-8.1c0.1-0.4,0.3-0.7,0.4-1.1
		c0.1-0.1,0.2-0.1,0.3-0.1c0.6-0.1,1,0.1,1.3,0.7c0.9,2.1,1.9,4.2,2.8,6.3c3.1,6.9,6.3,13.8,9.4,20.7c0.3,0.6,0.6,1.2,1.1,1.8
		c0.6,0.7,1.4,1.1,2.5,1.4C166.1,154.9,162.2,154.9,158.4,154.9z M156.4,143c0.1-0.4,0-0.7-0.1-1c-0.4-0.9-0.8-1.7-1.1-2.6
		c-1-2.2-1.9-4.5-2.9-6.7c-0.1-0.3-0.2-0.7-0.6-0.9c-0.4,0.1-0.4,0.4-0.5,0.7c-1.1,3.1-2.1,6.2-3.2,9.3c-0.3,1-0.3,1.1,0.8,1.1
		c0.1,0,0.1,0,0.2,0c2.1,0,4.2,0,6.3,0C155.8,143.1,156.1,143.1,156.4,143z"/>
	<path class="st0" d="M83.8,154.9c-4.1,0-8,0-11.7,0c0.3-0.1,0.8-0.1,1.2-0.2c1.1-0.4,1.5-1.3,1.1-2.4c-0.2-0.5-0.4-1.1-0.7-1.6
		c-0.7-1.7-1.5-3.4-2.2-5.1c-0.2-0.4-0.4-0.8-0.6-1.3c-0.4,0-0.6-0.1-0.9-0.1c-2.7,0-5.3,0-8,0c-0.2,0-0.4,0-0.5,0
		c-0.3,0-0.5,0.2-0.7,0.5c-0.1,0.2-0.2,0.4-0.2,0.6c-0.6,1.8-1.2,3.6-1.8,5.4c-0.1,0.3-0.2,0.6-0.2,0.8c-0.4,1.7,0.4,2.9,2.1,3.3
		c0.1,0,0.2,0,0.4,0.1c-2.6,0-5.1,0-7.7,0c0.5-0.2,1.1-0.4,1.5-0.7c0.9-0.6,1.5-1.5,1.9-2.5c0.4-1,0.7-2.1,1.1-3.1
		c2.8-7.8,5.5-15.6,8.3-23.4c0.1-0.4,0.3-0.7,0.4-1.1c0.4,0,0.8,0,1.1,0c0.4,0.4,0.5,0.8,0.7,1.2c2.1,4.5,4.1,9,6.2,13.5
		c2,4.3,4,8.7,5.9,13C81,153.5,81.8,154.2,83.8,154.9z M65.1,131.9c-0.1,0.2-0.2,0.4-0.3,0.6c-1.1,3.2-2.2,6.3-3.2,9.5
		c-0.1,0.3-0.2,0.6,0,0.9c0.1,0,0.2,0.1,0.4,0.1c2.5,0,5.1,0,7.6,0c0.2,0,0.3-0.1,0.5-0.1c0-0.4-0.2-0.8-0.3-1.1c-0.9-2-1.7-4-2.6-6
		c-0.5-1.1-1-2.2-1.4-3.3C65.6,132.3,65.5,132,65.1,131.9z"/>
	<path class="st0" d="M88.2,147.6c0.2,0.5,0.4,0.9,0.7,1.4c1.3,2.4,3.2,4,5.9,4.7c2.1,0.6,4.2,0.4,6.1-0.7c1.3-0.7,2.3-1.8,2.6-3.3
		c0.2-1.2,0-2.2-0.7-3.1c-0.3-0.4-0.6-0.7-1-1c-0.7-0.5-1.4-1-2.2-1.4c-1.4-0.7-2.9-1.4-4.3-2.1c-1.6-0.7-3.1-1.6-4.5-2.7
		c-0.4-0.3-0.7-0.6-1-1c-1.6-1.5-2.1-3.4-1.9-5.6c0.1-1.4,0.5-2.8,1.3-4c1.3-2,3.2-3.1,5.4-3.7c1.4-0.4,2.8-0.6,4.2-0.5
		c2,0.2,3.9,0.6,5.8,1.5c0.5,0.2,0.7,0.6,0.7,1.1c0,0.1,0,0.1,0,0.2c0,1.7,0,3.4,0,5.3c-0.2-0.5-0.3-0.8-0.4-1.2
		c-0.5-1.6-1.4-2.9-2.6-4.1c-2.1-2-5.3-2.3-7.6-1c-1.8,1-2.8,2.6-2.9,4.7c-0.1,0.9,0.2,1.7,0.9,2.4c0.5,0.5,1.1,0.9,1.7,1.3
		c1.3,0.9,2.8,1.5,4.3,2.2c1.6,0.7,3.1,1.4,4.6,2.4c1.1,0.7,2,1.5,2.9,2.5c1,1.2,1.6,2.6,1.5,4.2c0,0.7,0,1.3-0.1,2
		c-0.4,2.2-1.6,3.8-3.4,5c-1.4,0.9-3,1.4-4.7,1.7c-1.3,0.2-2.5,0.3-3.8,0.2c-2.3-0.1-4.5-0.6-6.5-1.5c-0.6-0.3-0.8-0.6-0.8-1.3
		c0-1.5,0-2.9,0-4.4c0-0.1,0-0.3,0-0.4C88.1,147.6,88.1,147.6,88.2,147.6z"/>
	<path class="st0" d="M138.8,125.1c0.4,2,0.4,4,0.7,6.1c-0.2-0.3-0.2-0.4-0.3-0.5c-0.1-0.1-0.1-0.3-0.1-0.4c-0.3-0.7-0.6-1.4-1-2.1
		c-0.9-1.4-2.1-2.1-3.8-2.1c-1.7,0-3.4,0-5.1,0c-0.3,0-0.6,0-1,0.1c-0.1,0.3-0.1,0.6-0.2,0.9c0,0.4,0,0.8,0,1.2
		c0.1,5.2,0.1,10.5,0.2,15.7c0,2.5,0.1,5,0.2,7.5c0,0.4,0.1,0.9,0.2,1.3c0.2,1.2,0.8,1.9,2.3,2.1c-3.5,0-6.9,0-10.4,0
		c1.7-0.5,2.3-1.7,2.3-3.3c0-1.8,0-3.6,0-5.5c0-1.9-0.1-3.7-0.1-5.6c0-2.5,0-5.1-0.1-7.6c0-2-0.1-3.9-0.1-5.9c0-0.3-0.1-0.6-0.1-0.9
		c-0.3,0-0.5-0.1-0.8-0.1c-1.9,0-3.8,0-5.7,0c-1.4,0-2.4,0.6-3.3,1.7c-0.5,0.6-0.8,1.3-1,2c-0.1,0.4-0.2,0.7-0.4,1.1
		c0.1-1.9,0.2-3.9,0.5-5.8c0.2-0.1,0.4-0.1,0.6-0.2c0.3,0,0.6,0,0.9,0c8.1,0,16.2,0,24.3,0C137.8,124.9,138.2,124.8,138.8,125.1z"/>
	<path class="st0" d="M123.7,59.1c-0.8,1.3-1.8,1.1-2.9,1.1c-2.2,0.9,1.6,5.3-0.9,7c-1.9,1.6-4,1.2-3.6-1.7c0-1.3-0.6-2.4-1.7-3.1
		c-3.2-2.5-5.3-8.7-1.8-11.6c1.8,4.7,7,5.6,11,3.2c0.2-0.1,0.4,0.1,0.4,0.4c-0.8,3.2-4.5,2.6-6.9,2.6
		C115.6,59.5,122,59.9,123.7,59.1z"/>
	<path class="st0" d="M77.7,47.1c0.6-2.3,1.8-3.9,4.1-4.4c1.2-1-0.4-1.6-1.3-1c-1.5-1.8-2.5-5.6,0.9-5.8c1.6-1.6-2.6-2.1-3.6-1.9
		c1.5-2.9,5.3,1,7.2-1c3.4-3.4,5.6,1.3,4.9,4.6C88.3,41.9,80.9,41.7,77.7,47.1z"/>
	<path class="st0" d="M101,36.9c2.4,0.2,4.8,0.9,7.2,1c1.2,0.7-0.6,2.1-1.5,1.7c-0.5-0.1-2-0.8-1.7,0.3c1.8,3.3,6,0.2,8.5,0.6
		c-3.9,3.1,4.1,1.8,4.4,4.3c-0.1,1.1-0.3,3.7-2,2.8c-3.6-6.1-10.1-1.8-13-6.8C102.4,39.5,102.1,38.1,101,36.9z"/>
	<path class="st0" d="M95.6,168.5c1,0,2,0,3,0c-0.1,0.3-0.3,0.6-0.4,0.9c-0.1,0.4,0,0.8,0,1.2c0,0.7,0,1.5,0,2.2
		c0,0.6-0.2,1-0.8,1.1c-0.7,0.2-1.4,0.5-2.1,0.6c-2.3,0.3-4.6,0.1-6.6-1.2c-1.5-0.9-2.5-2.2-2.9-3.9c-0.7-3.1,0.5-5.6,2.9-7
		c1.1-0.7,2.4-1.1,3.7-1.1c1.2-0.1,2.4-0.1,3.6,0.3c0.5,0.1,1,0.3,1.4,0.5c0.3,0.1,0.5,0.4,0.5,0.8c0,0.4,0,0.8,0,1.2
		c-0.3,0-0.3-0.2-0.5-0.4c-1.6-1.6-3.5-2.1-5.7-1.5c-1.2,0.3-2.1,1.1-2.7,2.1c-0.5,0.8-0.7,1.7-0.8,2.6c0,1.2-0.1,2.3,0.2,3.5
		c0.2,0.7,0.5,1.3,0.9,1.9c0.9,1.3,2.2,2,3.8,2c0.4,0,0.9,0,1.3,0c0.5,0,0.9-0.1,1.4-0.4c0-0.2,0.1-0.4,0.1-0.7c0-0.6,0-1.2,0-1.9
		C96.1,169.7,96.1,169.6,95.6,168.5z"/>
	<path class="st0" d="M72.8,174.6c-0.6,0-1.1,0-1.6,0c0.5-0.9,0.5-0.9,0.5-2c0-2.4,0-4.7-0.1-7.1c0-1,0-2-0.1-2.9
		c0-0.4-0.2-0.8-0.3-1.2c0.4-0.1,1.9-0.2,2.3-0.1c0.2,0,0.3,0.2,0.5,0.3c0.2,0.2,0.4,0.5,0.5,0.7c1.8,2.5,3.7,5,5.6,7.6
		c0.2,0.3,0.4,0.8,0.8,0.9c0.3-0.1,0.3-0.3,0.3-0.5c0-2.5,0-4.9-0.1-7.4c0-0.5-0.2-1-0.3-1.5c0.3-0.1,0.7-0.1,1.2,0
		c-0.5,0.9-0.4,1.9-0.3,2.8c0,0.8,0,1.5,0,2.3c0,2.5,0,4.9,0.1,7.4c0,0.2,0,0.4,0,0.7c0,0.2,0,0.4-0.3,0.5c-0.2,0.1-0.4-0.1-0.6-0.2
		c-0.2-0.3-0.5-0.6-0.7-0.9c-2.3-3.1-4.6-6.2-6.9-9.3c-0.2-0.3-0.4-0.6-0.7-0.8c-0.1-0.1-0.2-0.1-0.3-0.1c-0.1,0-0.2,0.1-0.2,0.2
		c0,0.3,0,0.5,0,0.8c0.1,2.8,0.1,5.6,0.2,8.4C72.2,173.6,72.4,174.1,72.8,174.6z"/>
	<path class="st0" d="M103,161.2c3,0,5.7,0,8.4,0c0.1,0,0.3,0.1,0.4,0.1c0.3,0.5,0.2,0.9,0.1,1.5c-0.2-0.2-0.3-0.3-0.5-0.4
		c-0.5-0.6-1.2-0.8-2-0.9c-1,0-2,0-2.9,0c-0.6,0-0.7,0.2-0.7,0.7c0,1.4,0,2.8,0,4.1c0,0.6,0.2,0.8,0.8,0.8c0.9,0,1.7,0,2.6-0.1
		c0.4,0,0.8-0.3,1.3-0.4c0.2,0.5,0.1,1,0.1,1.6c-0.3-0.2-0.4-0.2-0.6-0.3c-0.4-0.2-0.9-0.4-1.3-0.4c-0.9,0-1.7-0.1-2.6,0.1
		c-0.3,0.3-0.3,0.6-0.3,1c0,1.7,0.1,3.3,0.1,5c0,0.1,0,0.1,0.1,0.3c0.2,0,0.4,0.1,0.7,0.1c1,0,2,0,2.9,0c0.9,0,1.7-0.3,2.3-1
		c0.1-0.1,0.2-0.2,0.3-0.3c0.2,0.1,0.1,0.2,0.1,0.4c-0.2,1.5-0.1,1.4-1.6,1.4c-2.6,0-5.2,0-7.8,0c0.2-0.4,0.4-0.7,0.5-1
		c0.1-0.3,0.1-0.7,0.1-1.1c0-2.8,0-5.7,0-8.5C103.6,163.1,103.6,162.2,103,161.2z"/>
	<path class="st0" d="M37.2,168.5c-0.9-0.8-1.7-0.9-2.6-0.8c-0.6,0-1.3,0-2,0.1c-0.1,0.3-0.2,0.5-0.2,0.8c0,1.8-0.1,3.7,0.2,5.6
		c0.3,0,0.6,0.1,0.9,0.1c0.9,0,1.8,0,2.7,0c0.9,0,1.6-0.2,2.2-0.9c0.1-0.1,0.2-0.1,0.3-0.2c0.3,0.1,0.2,0.3,0.2,0.4
		c0,0.4-0.1,0.7-0.3,1c-0.9,0.2-6.2,0.2-9,0.1c0.2-0.4,0.4-0.8,0.5-1.3c0.1-0.4,0-0.9,0-1.3c0-2,0-4-0.1-6c0-1.1-0.1-2.3-0.1-3.4
		c0-0.4-0.2-0.8-0.3-1.3c0,0,0,0,0,0c0,0,0.1,0,0.1,0c2.8,0,5.5,0,8.3,0c0.1,0,0.2,0.1,0.3,0.1c0.3,0.4,0.1,0.9,0.2,1.3
		c-0.3,0.2-0.4-0.1-0.5-0.2c-0.6-0.6-1.3-0.9-2-0.9c-1,0-2,0-2.9,0c-0.2,0-0.4,0.1-0.6,0.2c-0.2,1-0.2,4.4,0,5.3
		c1.1,0.5,2.9,0.4,4.6-0.3c0,0.3,0.1,0.5,0.1,0.7C37.2,167.7,37.2,167.9,37.2,168.5z"/>
	<path class="st0" d="M67.8,174.6c-1.4,0-2.6,0-3.8,0c0.3-0.9,0.3-0.9-0.1-1.7c-0.4-0.9-0.8-1.7-1.2-2.6c-0.1-0.3-0.4-0.5-0.8-0.5
		c-1.3,0-2.6,0-4,0c-0.1,0.3-0.3,0.5-0.4,0.7c-0.3,0.7-0.5,1.4-0.7,2.2c-0.2,0.7-0.3,1.3,0.4,1.9c-0.4,0.1-0.7,0.1-1,0.1
		c-0.3,0-0.7,0-1,0c-0.1-0.3,0.1-0.3,0.2-0.4c0.5-0.4,0.7-0.9,0.9-1.5c1.1-3.1,2.2-6.2,3.3-9.3c0.2-0.4,0.3-0.9,0.5-1.3
		c0.1-0.2,0.1-0.4,0.2-0.6c0.1-0.2,0.2-0.4,0.4-0.4c0.2-0.1,0.4,0.2,0.5,0.4c0.1,0.2,0.2,0.5,0.3,0.7c1.3,2.9,2.7,5.9,4,8.8
		c0.3,0.7,0.6,1.3,0.9,2C66.8,173.5,67.1,174.1,67.8,174.6z M62.1,169.2c-0.2-0.7-1.4-3.7-1.9-4.6c-0.1-0.1-0.2-0.2-0.3-0.3
		c-0.1,0.2-0.2,0.3-0.3,0.4c-0.5,1.4-0.9,2.8-1.4,4.2c0,0.1,0,0.2,0,0.3C59.1,169.4,61.1,169.4,62.1,169.2z"/>
	<path class="st0" d="M169.5,162.1c0,0.5,0,1,0,1.5c-0.4,0-0.4-0.4-0.5-0.5c-0.5-0.6-1-1.2-1.8-1.4c-1.1-0.3-2.1-0.2-2.9,0.6
		c-0.5,0.4-0.7,1-0.8,1.6c-0.1,0.5,0.1,1,0.5,1.4c0.5,0.4,0.9,0.7,1.5,1c0.7,0.4,1.4,0.6,2.1,1c0.8,0.4,1.5,0.9,2.1,1.5
		c1.4,1.3,1.3,3.9-0.6,5.1c-0.6,0.4-1.2,0.6-1.8,0.7c-1.6,0.3-3.1,0.2-4.6-0.4c-0.5-0.2-0.7-0.5-0.7-1c0-0.4,0-0.8,0-1.4
		c0.3,0.4,0.5,0.7,0.7,0.9c0.8,1.1,1.9,1.6,3.2,1.7c0.9,0.1,1.7-0.2,2.3-0.7c0.9-0.7,1.2-2.2,0.1-3.1c-0.4-0.3-0.8-0.6-1.3-0.8
		c-0.6-0.3-1.2-0.5-1.8-0.9c-0.7-0.4-1.4-0.7-2-1.2c-1.5-1.2-1.7-3.4-0.4-4.9c0.6-0.8,1.5-1.2,2.4-1.4c1.3-0.2,2.5-0.2,3.7,0.3
		c0.1,0.1,0.3,0.1,0.4,0.2C169.3,161.9,169.3,161.9,169.5,162.1z"/>
	<path class="st0" d="M137,172.1c0.2,0.3,0.4,0.5,0.6,0.8c0.8,1,2.7,1.9,4.4,1.3c0.7-0.3,1.2-0.6,1.5-1.3c0.4-0.7,0.3-1.4-0.3-2
		c-0.3-0.4-0.8-0.7-1.2-0.9c-0.7-0.4-1.5-0.7-2.2-1.1c-0.7-0.4-1.4-0.7-1.9-1.2c-1.7-1.4-1.6-3.9,0-5.3c0.6-0.5,1.2-0.8,2-0.9
		c1.3-0.2,2.6-0.2,3.9,0.4c0.2,0.1,0.3,0.2,0.5,0.3c0.2,0.6,0.1,1.2,0.1,2c-0.3-0.5-0.5-0.8-0.8-1.1c-0.7-1-1.7-1.4-2.9-1.3
		c-1.1,0.1-2.1,0.9-2.4,2c-0.2,0.7,0,1.4,0.6,1.9c0.4,0.3,0.9,0.6,1.4,0.9c0.6,0.3,1.3,0.6,2,0.9c0.8,0.4,1.5,0.9,2.2,1.5
		c1.3,1.2,1.3,4-0.5,5.2c-0.7,0.4-1.4,0.7-2.2,0.8c-1.2,0.1-2.4,0.1-3.6-0.2c-0.3-0.1-0.5-0.2-0.8-0.3c-0.3-0.1-0.4-0.4-0.5-0.7
		C136.8,172.9,136.8,172.5,137,172.1z"/>
	<path class="st0" d="M52.9,161.3c0.5-0.1,1.1-0.1,1.7-0.1c-0.3,0.4-0.5,0.7-0.7,1c-0.2,0.3-0.3,0.7-0.4,1c-0.1,0.4-0.3,0.8-0.4,1.1
		c-1.1,3.1-2.2,6.2-3.2,9.3c-0.1,0.3-0.2,0.6-0.3,0.8c-0.1,0.1-0.2,0.3-0.3,0.4c-0.4-0.1-0.5-0.5-0.6-0.8c-1-2.1-2-4.2-3-6.3
		c-0.7-1.5-1.3-2.9-2-4.4c-0.3-0.7-0.6-1.5-1.3-2c0.9-0.2,2.6-0.2,3.6-0.1c-0.1,0.8-0.2,0.8,0.2,1.6c1.2,2.6,2.3,5.2,3.5,7.8
		c0.1,0.3,0.2,0.6,0.6,0.8c0.1-0.2,0.3-0.4,0.3-0.6c0.4-1.1,0.7-2.1,1.1-3.2c0.5-1.3,0.9-2.7,1.4-4
		C53.4,162.4,53.4,162.4,52.9,161.3z"/>
	<path class="st0" d="M146.9,162.8c0.1-0.5,0.2-0.9,0.2-1.4c0.2,0,0.4-0.1,0.6-0.1c3.6,0,7.1,0,10.7,0c0.2,0,0.4,0,0.5,0.1
		c0.3,0.5,0.4,0.9,0.3,1.5c-1.2-1.2-1.3-1.2-3-1.2c-0.4,0-0.8,0-1.2,0c-0.6,0-0.7,0.2-0.7,0.7c0,0.2,0,0.4,0,0.7
		c0,2.8,0,5.5,0.1,8.3c0,0.7,0.1,1.5,0.1,2.2c0,0.4,0.2,0.8,0.3,1.2c-0.1,0-0.2,0.1-0.3,0.1c-1,0-2,0-3,0c0.5-0.9,0.5-0.9,0.5-2
		c0-3.1,0-6.1-0.1-9.2c0-2.1,0-1.9-2-1.9c-0.1,0-0.2,0-0.3,0c-1,0-1.9,0.2-2.5,1.1C147.2,162.7,147,162.7,146.9,162.8L146.9,162.8z"
		/>
	<path class="st0" d="M125.9,172.9c-0.1,0.3-0.1,0.6-0.2,0.9c0,0.2-0.1,0.4-0.1,0.5c0,0.1-0.1,0.2-0.2,0.3c-0.8,0.1-7.8,0.2-9,0
		c0.5-0.9,0.5-0.9,0.5-1.9c0-3.1-0.1-6.1-0.1-9.2c0-0.7,0-1.5-0.6-2.2c0.6-0.1,1.1,0,1.7-0.1c0.5,0,1,0,1.5,0c0.2,0.3,0,0.4,0,0.5
		c-0.1,0.4-0.2,0.7-0.2,1.1c0,2.8,0.1,5.6,0.2,8.4c0,0.5,0,1.1,0,1.6c0,0.4,0,0.7,0,1.1c0.3,0.1,0.5,0.1,0.7,0.2c1,0,2,0,3.1,0
		c0.8,0,1.5-0.3,2.1-0.8C125.5,173.2,125.7,173,125.9,172.9L125.9,172.9z"/>
	<path class="st0" d="M132.9,174.6c-1.1,0-2.2,0-3.4,0c0.5-1.1,0.5-1.1,0.5-2.4c-0.1-3.1-0.1-6.2-0.2-9.3c0-0.6-0.1-1.1-0.5-1.6
		c0.6-0.2,1.2-0.1,1.7-0.1c0.5,0,1,0,1.6,0c-0.1,0.4-0.3,0.6-0.3,0.9c-0.1,0.4,0,0.7,0,1.1c0,0.3,0,0.7,0,1c0,2.6,0.1,5.2,0.1,7.7
		C132.4,173.4,132.4,173.4,132.9,174.6z"/>
	<path class="st0" d="M95.4,32.1c-0.1-1.6-3.8-5.4-1.7-6.1C96.4,26.4,99.3,31.4,95.4,32.1z"/>
	<path class="st0" d="M104.4,57.6c-1.9-4.7-7.5-6.2-7.3,0.3c0.4,0.2,0.7,0.4,1,0.6c-1.8,0.8-0.8-1.8-2.4-1.8
		C96.2,50.6,105.1,51.9,104.4,57.6z"/>
	<path class="st0" d="M122.7,49.3c0.8,0.6,1.9,0.6,2.1,1.6c-4.2-1.5-4.1-0.4-3.2-5.2C123.4,43.6,125.4,47.7,122.7,49.3z"/>
	<path class="st0" d="M79.1,25c0.3,2.8,4.8,3.8,3,7C79.3,31.1,78.4,27.5,79.1,25z"/>
	<path class="st0" d="M102.8,89.7c-2.4,2.8-7.2,1.6-6-2.7c0.3-0.2,0.4,0.2,0.5,0.4C98.5,89.6,100.8,89.3,102.8,89.7z"/>
	<path class="st0" d="M117.9,71.4c2.3,0.8,0.7,10.3-2.2,6.6c1.1-1.7,3.3-1.3,2-4.2c-0.4-0.2-0.4,0.3-0.7,0.4
		C116.9,73.2,117,71.9,117.9,71.4z"/>
	<path class="st0" d="M101.9,48.1c-2.8,0.9-6.1,0.7-8.3,3C92.5,49,100.8,46.1,101.9,48.1z"/>
	<path class="st0" d="M119.6,39.8c-0.5-2.7-2.6-3.3-4.6-4.5C112.9,32,122.2,37.1,119.6,39.8z"/>
	<path class="st0" d="M125.5,63.6c1.3,0.5,0.8,4.2-0.5,4.4C122.7,66.4,124.3,65.3,125.5,63.6z"/>
	<path class="st0" d="M99.1,51c3.6-0.6,7.4,3.4,7.5,6.7C104,53.6,104.2,52.7,99.1,51z"/>
	<path class="st0" d="M114.2,49.6c-1.3-2.3-3.7-3.4-5.8-4.9c0.2-0.6,0.6-0.2,0.9,0C111.2,46,114.7,46.7,114.2,49.6z"/>
	<path class="st0" d="M89,30.2c-2,0.7-3.4-2.3-5.5-2.3C85.4,27.2,88,28.3,89,30.2z"/>
	<path class="st0" d="M97,33.8c0.4-0.6,0.5-1.6,1.2-1.9C99,32.5,98.1,34.2,97,33.8z"/>
	<path class="st0" d="M103.6,81.3c0.1,0,0.2,0,0.3,0C103.8,81.3,103.7,81.3,103.6,81.3z"/>
	<path class="st0" d="M146.9,162.8c0,0.1,0,0.2,0,0.3c0,0,0,0,0,0C146.9,163,146.9,162.9,146.9,162.8
		C146.9,162.8,146.9,162.8,146.9,162.8z"/>
	<path class="st0" d="M125.9,172.9C125.9,172.9,125.9,172.9,125.9,172.9C125.9,172.9,125.9,172.9,125.9,172.9z"/>
</g>
</svg>
