<?xml version="1.0" encoding="utf-8"?>
<!-- Generator: Adobe Illustrator 15.1.0, SVG Export Plug-In . SVG Version: 6.00 Build 0)  -->
<!DOCTYPE svg PUBLIC "-//W3C//DTD SVG 1.1//EN" "http://www.w3.org/Graphics/SVG/1.1/DTD/svg11.dtd">
<svg version="1.1" xmlns="http://www.w3.org/2000/svg" xmlns:xlink="http://www.w3.org/1999/xlink" x="0px" y="0px" width="200px"
	 height="200px" viewBox="0 0 200 200" enable-background="new 0 0 200 200" xml:space="preserve">
<g id="Logo">
	<g id="_x32_px_Stroke" display="none">
		<path display="inline" fill="#A9A9A9" d="M198,2v196H2V2H198 M200,0H0v200h200V0L200,0z"/>
	</g>
	<g>
		<g>
		</g>
		<g>
		</g>
	</g>
	<g>
		<path fill="#7DC143" d="M145.289,105.27l4.222-13.953l4.224,13.953H145.289z M114.375,109.84h-2.604V90.535h2.573
			c3.887,0,8.217,1.613,8.217,9.608C122.561,107.231,118.736,109.84,114.375,109.84 M45.812,105.27l4.314-14.123l4.238,14.123
			H45.812z M157.195,80.518h-14.498l-8.29,23.915c0.384-1.983,0.452-3.566,0.452-4.264c0-10.019-5.748-19.651-19.258-19.651h-15.494
			l0.026,23.792c-1.328-6.759-7.504-8.575-15.189-10.909c-2.877-0.874-4.453-2.283-3.881-3.596c0.496-1.143,2.252-1.498,4.394-1.198
			c3.254,0.457,5.859,1.553,8.372,2.913l3.421-8.473c-0.767-0.397-6.319-3.707-13.276-3.707c-9.708,0-15.9,4.714-15.9,11.695
			c0,6.211,3.835,9.833,10.886,11.869c7.573,2.184,9.503,3.071,9.272,5.252c-0.199,1.873-4.912,4.157-16.4-2.895l-3.402,7.049
			L57.867,80.518H43.371l-13.702,39.524h11.425l1.789-5.591h14.414l1.699,5.591h12.008l-1.368-3.867
			c4.053,2.342,9.094,4.485,15.106,4.485c9.21,0,14.193-5.024,15.391-9.847v9.229h15.458c9.219,0,14.039-4.391,16.556-9.083
			l-3.149,9.083h11.424l1.844-5.591h14.385l1.673,5.591h12.011L157.195,80.518z"/>
	</g>
</g>
<g id="Guides">
</g>
</svg>
