<?xml version="1.0" encoding="utf-8"?>
<!-- Generator: Adobe Illustrator 15.1.0, SVG Export Plug-In . SVG Version: 6.00 Build 0)  -->
<!DOCTYPE svg PUBLIC "-//W3C//DTD SVG 1.1//EN" "http://www.w3.org/Graphics/SVG/1.1/DTD/svg11.dtd">
<svg version="1.1" xmlns="http://www.w3.org/2000/svg" xmlns:xlink="http://www.w3.org/1999/xlink" x="0px" y="0px" width="200px"
	 height="200px" viewBox="0 0 200 200" enable-background="new 0 0 200 200" xml:space="preserve">
<g id="Logo">
	<g id="_x32_px_Stroke" display="none">
		<path display="inline" fill="#A9A9A9" d="M198,2v196H2V2H198 M200,0H0v200h200V0L200,0z"/>
	</g>
	<g>
		<g>
		</g>
		<g>
		</g>
	</g>
	<g>
		<g>
			<g>
				<path fill="#FFFFFF" d="M95.231,79.827h0.684V68.975c0-2.11,1.716-3.826,3.824-3.826c2.112,0,3.827,1.716,3.827,3.826v10.853
					c0,0,9.493,0,10.686,0c0,1.209,0,11.874,0,11.874s35.984,0,36.684,0c2.006,2.969,4.518,5.481,7.485,7.485
					c0,0.673,0,16.482,0,17.157c-2.968,2-5.484,4.519-7.488,7.489c-0.703,0-47.366,0-47.366,0v7.362
					c0,2.108-1.715,3.824-3.827,3.824c-2.108,0-3.824-1.716-3.824-3.824v-7.362c0,0-46.663,0-47.368,0
					c-2.003-2.971-4.518-5.485-7.484-7.486c0-0.676,0-16.49,0-17.162c2.964-2.001,5.477-4.514,7.479-7.483c0.7,0,36.69,0,36.69,0
					s0-10.665,0-11.874C86.426,79.827,95.231,79.827,95.231,79.827z"/>
			</g>
			<path fill="#231F20" d="M80.497,63.691c-0.937,0-12.913,0-12.913,0s0,10.676,0,11.887c-1.31,0-31.471,0-31.471,0v0.685
				c0,5.783-4.704,10.491-10.493,10.491h-0.68v42.019h0.68c5.786,0,10.493,4.705,10.493,10.49v0.681c0,0,44.936,0,45.753,0
				c3.351,6.765,10.312,11.116,17.873,11.116c7.568,0,14.528-4.352,17.876-11.116c0.82,0,45.748,0,45.748,0v-0.681
				c0-5.785,4.709-10.49,10.493-10.49h0.68l0.007-0.682V86.755h-0.687c-5.784,0-10.493-4.708-10.493-10.491v-0.685
				c0,0-30.15,0-31.46,0c0-1.211,0-11.887,0-11.887s-11.982,0-12.916,0c-2.342-8.712-10.169-14.753-19.249-14.753
				C90.665,48.938,82.838,54.979,80.497,63.691z M81.01,65.055h0.538l0.125-0.523c2.015-8.378,9.443-14.229,18.066-14.229
				c8.625,0,16.059,5.85,18.072,14.229l0.125,0.523c0,0,11.4,0,12.604,0c0,1.211,0,11.888,0,11.888s30.252,0,31.495,0
				c0.344,5.995,5.15,10.798,11.142,11.14c0,1.237,0,38.125,0,39.363c-5.991,0.342-10.798,5.145-11.142,11.138
				c-1.255,0-45.268,0-45.268,0l-0.183,0.392c-3.049,6.514-9.657,10.722-16.845,10.722c-7.183,0-13.791-4.208-16.837-10.722
				l-0.186-0.392c0,0-44.014,0-45.272,0c-0.344-5.993-5.147-10.796-11.14-11.138c0-1.237,0-38.125,0-39.363
				c5.993-0.344,10.796-5.147,11.14-11.14c1.247,0,31.504,0,31.504,0s0-10.677,0-11.888C70.15,65.055,81.01,65.055,81.01,65.055z"/>
			<g>
				<path fill="#231F20" d="M94.549,68.975c0,0,0,8.297,0,9.489c-1.194,0-10.68,0-10.68,0s0,10.661,0,11.873
					c-1.315,0-36.054,0-36.054,0l-0.2,0.309c-2,3.052-4.562,5.611-7.611,7.609l-0.309,0.203v18.613l0.309,0.201
					c3.052,2,5.612,4.561,7.613,7.613l0.201,0.312c0,0,45.405,0,46.73,0c0,1.1,0,5.998,0,5.998c0,2.863,2.331,5.189,5.189,5.189
					c2.863,0,5.196-2.326,5.196-5.189c0,0,0-4.898,0-5.998c1.324,0,46.724,0,46.724,0l0.199-0.312
					c2.001-3.053,4.564-5.613,7.62-7.615l0.31-0.204V98.459l-0.31-0.203c-3.052-1.998-5.611-4.56-7.612-7.612l-0.204-0.309
					c0,0-34.733,0-36.047,0c0-1.211,0-11.873,0-11.873s-9.484,0-10.68,0c0-1.192,0-9.489,0-9.489c0-2.86-2.333-5.19-5.196-5.19
					C96.88,63.784,94.549,66.114,94.549,68.975z M95.231,79.827h0.684V68.975c0-2.11,1.716-3.826,3.824-3.826
					c2.112,0,3.827,1.716,3.827,3.826v10.853c0,0,9.493,0,10.686,0c0,1.209,0,11.874,0,11.874s35.984,0,36.684,0
					c2.006,2.969,4.518,5.481,7.485,7.485c0,0.673,0,16.482,0,17.157c-2.968,2-5.484,4.519-7.488,7.489c-0.703,0-47.366,0-47.366,0
					v7.362c0,2.108-1.715,3.824-3.827,3.824c-2.108,0-3.824-1.716-3.824-3.824v-7.362c0,0-46.663,0-47.368,0
					c-2.003-2.971-4.518-5.485-7.484-7.486c0-0.676,0-16.49,0-17.162c2.964-2.001,5.477-4.514,7.479-7.483c0.7,0,36.69,0,36.69,0
					s0-10.665,0-11.874C86.426,79.827,95.231,79.827,95.231,79.827z"/>
			</g>
			<g>
				<path fill="#FFFFFF" d="M83.869,90.336c0-1.211,0-11.873,0-11.873s0.198,0,0.542,0L68.948,65.172c0,1.659,0,11.771,0,11.771
					s-2.192,0-5.424,0l15.569,13.393C81.772,90.336,83.587,90.336,83.869,90.336z"/>
				<path fill="#FFFFFF" d="M119.616,125.196l15.562,13.387c6.706,0,13.928,0,19.192,0l-15.577-13.387
					C132.854,125.196,125.768,125.196,119.616,125.196z"/>
				<path fill="#FFFFFF" d="M173.176,127.445v-6.256l-13.389-11.5v7.376l-0.31,0.204c-1.868,1.224-3.552,2.658-5.033,4.287
					l10.962,9.424C167.404,128.939,170.136,127.616,173.176,127.445z"/>
				<path fill="#FFFFFF" d="M37.443,138.583c0.021,0,0.059,0,0.104,0l-0.111-0.097C37.438,138.518,37.443,138.551,37.443,138.583z"
					/>
				<path fill="#FFFFFF" d="M173.176,88.083c-5.991-0.342-10.798-5.145-11.142-11.14c-0.728,0-11.356,0-20.067,0l31.209,26.917
					V88.083z"/>
				<path fill="#FFFFFF" d="M104.935,131.194c0,2.863-2.333,5.189-5.196,5.189c-2.859,0-5.189-2.326-5.189-5.189
					c0,0,0-4.898,0-5.998c-0.467,0-6.415,0-13.924,0l26.622,22.902c3.877-1.722,7.136-4.746,9.103-8.645l-11.415-9.829
					C104.935,130.523,104.935,131.194,104.935,131.194z"/>
				<path fill="#FFFFFF" d="M47.819,125.196l-0.201-0.312c-2.001-3.053-4.561-5.613-7.613-7.613l-0.309-0.201v-10.077L26.304,95.457
					v16.438l31.026,26.688c6.86,0,14.062,0,19.034,0l-15.539-13.387C53.462,125.196,47.819,125.196,47.819,125.196z"/>
				<path fill="#FFFFFF" d="M47.616,90.645l0.2-0.309c0,0,5.125,0,11.511,0L43.778,76.943c-3.475,0-5.993,0-6.335,0
					c-0.178,3.119-1.565,5.914-3.699,7.926l10.978,9.441C45.785,93.183,46.752,91.961,47.616,90.645z"/>
				<path fill="#E03A3E" d="M141.967,76.943c-6.198,0-11.428,0-11.428,0V65.055h-12.604l-0.125-0.523
					c-2.013-8.378-9.446-14.229-18.072-14.229c-2.599,0-5.09,0.535-7.358,1.508l44.864,38.525c7.664,0,14.416,0,14.416,0
					l0.204,0.309c2.001,3.052,4.561,5.614,7.612,7.612l0.31,0.203v11.23l13.389,11.5v-17.33L141.967,76.943z"/>
				<path fill="#E03A3E" d="M79.093,90.336L63.523,76.943c-5.481,0-13.947,0-19.745,0l15.548,13.393
					C66.007,90.336,74.069,90.336,79.093,90.336z"/>
				<path fill="#E03A3E" d="M104.935,125.196c0,0.692,0,2.893,0,4.429l11.415,9.829c0.077-0.159,0.16-0.319,0.234-0.479l0.183-0.392
					c0,0,8.661,0,18.411,0l-15.562-13.387C111.753,125.196,105.418,125.196,104.935,125.196z"/>
				<path fill="#E03A3E" d="M60.825,125.196l15.539,13.387c3.843,0,6.352,0,6.352,0l0.186,0.392
					c3.047,6.514,9.655,10.722,16.837,10.722c2.631,0,5.183-0.563,7.508-1.598l-26.622-22.902
					C74.349,125.196,66.984,125.196,60.825,125.196z"/>
				<path fill="#E03A3E" d="M39.696,98.457l0.309-0.203c1.735-1.137,3.312-2.456,4.717-3.944l-10.978-9.441
					c-1.966,1.855-4.567,3.049-7.441,3.213v7.375l13.393,11.536V98.457z"/>
				<path fill="#E03A3E" d="M26.304,127.445c5.959,0.34,10.743,5.095,11.132,11.041l0.111,0.097c1.169,0,10.139,0,19.783,0
					l-31.026-26.688V127.445z"/>
				<path fill="#E03A3E" d="M94.549,78.463c0-0.922,0-6.112,0-8.402l-11.316-9.729c-0.671,1.308-1.205,2.714-1.56,4.199
					l-0.125,0.523H81.01c0,0-10.86,0-12.062,0c0,0.032,0,0.074,0,0.118l15.463,13.291C86.444,78.463,93.529,78.463,94.549,78.463z"
					/>
				<path fill="#FFFFFF" d="M92.381,51.811c-3.92,1.681-7.166,4.678-9.148,8.521l11.316,9.729c0-0.664,0-1.086,0-1.086
					c0-2.86,2.331-5.19,5.189-5.19c2.863,0,5.196,2.33,5.196,5.19c0,0,0,8.297,0,9.489c1.195,0,10.68,0,10.68,0v11.873h21.631
					L92.381,51.811z"/>
				<path fill="#E03A3E" d="M151.857,124.885l-0.199,0.312c0,0-5.569,0-12.865,0l15.577,13.387c4.339,0,7.347,0,7.664,0
					c0.171-2.957,1.426-5.616,3.372-7.603l-10.962-9.424C153.499,122.591,152.636,123.702,151.857,124.885z"/>
			</g>
		</g>
		<g>
			<path fill="#231F20" d="M86.958,82.692h6.353v1.744h-2.039v7.265h-2.278v-7.265h-2.037V82.692z"/>
			<path fill="#231F20" d="M92.616,89.5h2.203v2.202h-2.203V89.5z"/>
			<path fill="#231F20" d="M102.222,91.841h-0.949l-0.442-0.836c-0.507,0.582-1.293,0.874-1.975,0.874
				c-2.354,0-3.316-1.847-3.316-4.453c0-2.392,0.735-4.91,3.506-4.91c2.237,0,3.238,1.393,3.238,3.391h-2.201
				c-0.065-1.064-0.139-1.722-0.987-1.722c-0.963,0-1.102,1.355-1.102,3.025c0,1.846,0.087,2.998,1.15,2.998
				c0.772,0,1.102-0.898,1.102-1.467h-1.139v-1.518h3.114V91.841z"/>
			<path fill="#231F20" d="M103.27,89.5h2.204v2.202h-2.204V89.5z"/>
			<path fill="#231F20" d="M106.688,82.692h2.274v9.009h-2.274V82.692z"/>
			<path fill="#231F20" d="M110.178,89.5h2.205v2.202h-2.205V89.5z"/>
		</g>
		<g>
			<path fill="#231F20" d="M48.562,97.4h13.22v4.253h-7.673v4.438h5.456v4.254h-5.456v9.001h-5.547V97.4z"/>
			<path fill="#231F20" d="M68.932,101.47h0.926c1.851,0,3.607,0.184,3.607,2.464c0,1.757-1.356,2.404-3.455,2.404h-1.079V101.47z
				 M63.385,119.346h5.547v-9.493h1.851l2.745,9.493h5.486l-3.668-10.666c2.155-0.801,3.668-2.743,3.668-5.053
				c0-4.316-3.206-6.227-7.368-6.227h-8.261V119.346z"/>
			<path fill="#231F20" d="M80.924,103.873h4.992v15.473h-4.992V103.873z M80.924,97.4h4.992v4.438h-4.992V97.4z"/>
			<path fill="#231F20" d="M94.084,101.285h0.463c3.666,0,4.035,4.004,4.035,6.533c0,2.896,0,7.643-3.882,7.643h-0.616V101.285z
				 M88.537,119.346h6.688c6.719,0,9.337-5.056,9.337-11.312c0-6.441-3.205-10.633-10.015-10.633h-6.01V119.346z"/>
			<path fill="#231F20" d="M112.729,102.085h0.063l1.603,8.938h-3.545L112.729,102.085z M104.531,119.346h4.593l0.957-4.438h5.084
				l0.863,4.438h5.608L116.955,97.4h-7.276L104.531,119.346z"/>
			<path fill="#231F20" d="M125.436,110.809L119.948,97.4h5.796l2.896,8.631l3.482-8.631h4.932l-6.073,13.099v8.847h-5.545V110.809z
				"/>
			<path fill="#231F20" d="M141.122,112.379c0.801,1.849,1.664,3.146,3.791,3.146c1.262,0,2.282-0.804,2.282-1.853
				c0-4.469-9.742-2.002-9.742-10.479c0-3.299,3.298-6.225,7.088-6.225c3.701,0,6.477,2.094,7.431,4.838l-4.409,1.848
				c-0.586-1.293-1.414-2.433-3.021-2.433c-0.953,0-1.91,0.585-1.91,1.851c0,3.11,9.926,2.403,9.926,9.275
				c0,4.502-3.697,7.43-8.016,7.43c-3.728,0-6.718-1.974-8.011-5.55L141.122,112.379z"/>
			<path fill="#231F20" d="M138.452,93.674h2.104v1.833l-1.208,2.208h-1.098l0.953-1.94h-0.751V93.674z"/>
		</g>
		<path fill="#231F20" d="M167.849,134.916c0,0.287,0.224,0.399,0.478,0.399c0.167,0,0.421-0.049,0.421-0.27
			c0-0.232-0.324-0.271-0.64-0.357c-0.321-0.083-0.646-0.21-0.646-0.613c0-0.444,0.418-0.655,0.81-0.655
			c0.449,0,0.863,0.197,0.863,0.695h-0.457c-0.021-0.257-0.203-0.326-0.43-0.326c-0.149,0-0.324,0.064-0.324,0.246
			c0,0.168,0.101,0.188,0.644,0.329c0.157,0.039,0.642,0.134,0.642,0.629c0,0.396-0.312,0.691-0.898,0.691
			c-0.481,0-0.926-0.234-0.922-0.769H167.849z"/>
		<path fill="#231F20" d="M169.49,133.471h0.669l0.507,1.487h0.004l0.481-1.487h0.668v2.163h-0.445V134.1h-0.004l-0.531,1.534
			h-0.368l-0.526-1.519h-0.008v1.519h-0.446V133.471z"/>
	</g>
</g>
<g id="Guides">
</g>
</svg>
