<?xml version="1.0" encoding="utf-8"?>
<!-- Generator: Adobe Illustrator 26.5.0, SVG Export Plug-In . SVG Version: 6.00 Build 0)  -->
<svg version="1.1" id="Layer_1" xmlns="http://www.w3.org/2000/svg" xmlns:xlink="http://www.w3.org/1999/xlink" x="0px" y="0px"
	 viewBox="0 0 200 200" style="enable-background:new 0 0 200 200;" xml:space="preserve">
<style type="text/css">
	.st0{fill:#06C167;}
</style>
<g>
	<path class="st0" d="M45.8,64.2h108.5c19.8,0,35.8,16,35.8,35.8l0,0c0,19.8-16,35.8-35.8,35.8H45.8C26,135.8,10,119.7,10,100l0,0
		C10,80.3,26,64.2,45.8,64.2z"/>
	<path d="M133.9,102.6c0-2.7-2.1-5-4.9-5c-2.7,0-5,2.1-5,4.9c0,2.7,2.1,5,4.9,5c0,0,0,0,0.1,0C131.7,107.5,133.9,105.4,133.9,102.6
		C133.9,102.7,133.9,102.7,133.9,102.6 M137.9,94.6v16h-4.1v-1.4c-1.5,1.2-3.3,1.9-5.2,1.8c-4.6,0-8.4-3.7-8.4-8.4s3.7-8.4,8.4-8.4
		l0,0c1.9,0,3.7,0.6,5.2,1.8v-1.4C133.8,94.7,137.9,94.6,137.9,94.6z M151.6,107h-3.1c-0.9,0-1.5-0.4-1.5-1.3v-7.5h4.6v-3.6H147
		v-4.5h-4.1v4.5h-3.1v3.6h3.1v8.5c0,2.1,1.5,3.8,4.3,3.8h4.4L151.6,107L151.6,107z M160.9,111c4.7,0,7.4-2.2,7.4-5.3
		c0-2.2-1.6-3.8-4.9-4.5l-3.5-0.7c-2-0.4-2.7-0.7-2.7-1.5c0-1,1-1.6,2.8-1.6c2,0,3.4,0.5,3.8,2.3h4.1c-0.2-3.3-2.7-5.5-7.6-5.5
		c-4.3,0-7.3,1.8-7.3,5.1c0,2.3,1.7,3.8,5.2,4.6l3.9,0.9c1.5,0.3,2,0.7,2,1.3c0,1-1.2,1.6-3,1.6c-2.4,0-3.7-0.5-4.2-2.3h-4.1
		C153.3,108.8,155.8,111,160.9,111 M103.5,89h15.5v3.7h-11.3V98h11v3.6h-11v5.3h11.3v3.7h-15.5V89z"/>
	<path d="M96.1,97.6v-2.9H95c-1.6-0.1-3,0.7-3.8,2.1v-1.9h-3.1v15.7h3.2v-8.9c0-2.4,1.5-4,3.6-4L96.1,97.6L96.1,97.6z M73.3,101.3
		c0.5-2.3,2.5-4,4.9-4c2.4,0,4.4,1.7,4.9,4H73.3z M78.3,94.5c-4.5,0.1-8.1,3.8-8,8.3c0.1,4.5,3.8,8.1,8.3,8.1
		c2.7,0.1,5.3-1.2,6.9-3.4l-2.3-1.7c-1.1,1.5-2.8,2.3-4.6,2.3c-2.6,0-4.9-1.8-5.3-4.4h13v-1c0.2-4.3-3.2-8-7.6-8.2
		C78.6,94.5,78.4,94.5,78.3,94.5 M60.1,108.2c-3,0-5.4-2.5-5.4-5.5c0-3,2.5-5.4,5.5-5.4c3,0,5.4,2.5,5.4,5.5
		C65.6,105.8,63.2,108.2,60.1,108.2L60.1,108.2 M51.5,110.6h3.1v-2c1.5,1.5,3.6,2.4,5.7,2.3c4.5,0.3,8.4-3.2,8.7-7.7
		c0.3-4.5-3.2-8.4-7.7-8.7c-0.3,0-0.6,0-0.9,0c-2.1,0-4.2,0.8-5.7,2.3V89h-3.2C51.5,89,51.5,110.6,51.5,110.6z M40.3,108.1
		c3,0,5.4-2.3,5.4-5.7V89H49v21.6h-3.2v-2c-3.3,3.2-8.5,3.2-11.8-0.1c-1.5-1.6-2.4-3.7-2.4-5.9V89H35v13.3
		C35,105.8,37.3,108.1,40.3,108.1"/>
</g>
</svg>
