<?xml version="1.0" encoding="utf-8"?>
<!-- Generator: Adobe Illustrator 27.9.0, SVG Export Plug-In . SVG Version: 6.00 Build 0)  -->
<svg version="1.1" id="Layer_1" xmlns="http://www.w3.org/2000/svg" xmlns:xlink="http://www.w3.org/1999/xlink" x="0px" y="0px"
	 viewBox="0 0 200 200" style="enable-background:new 0 0 200 200;" xml:space="preserve">
<g>
	<path d="M199.8,200c-66.5,0-133.1,0-199.6,0c0-66.7,0-133.3,0-200c66.5,0,133.1,0,199.6,0C199.8,66.7,199.8,133.3,199.8,200z
		 M100.7,101.4c-0.1,0-0.2,0-0.3,0c-0.6-3.1-1.3-6.1-1.9-9.2c-1-5.2-1-5.2-6.3-5c-0.1,0-0.2,0.1-0.4,0.2c0,8.4,0,16.8,0,25.3
		c1.2,0,2.3,0,3.7,0c0-6.2,0-12.3,0-18.4c0.1,0,0.2,0,0.4,0c1.2,6.1,2.4,12.2,3.7,18.4c0.7,0,1.3,0,2.1,0c1.2-6.2,2.5-12.3,3.7-18.5
		c0.1,0,0.3,0,0.4,0c0,6.2,0,12.3,0,18.5c1.3,0,2.4,0,3.5,0c0-8.5,0-16.9,0-25.4c-1.9,0-3.7,0-5.6,0
		C102.7,92,101.7,96.7,100.7,101.4z M184.3,112.7c0-5,0-10,0-14.9c0.5,0.3,0.7,0.6,0.8,0.9c1.3,3.8,2.6,7.5,4,11.3
		c1.1,3.2,1.3,3.3,4.6,2.5c0-8.4,0-16.8,0-25.2c-1.3,0-2.5,0-3.9,0c0,4.5,0,9,0,13.5c-1.7-3.6-3.2-7.2-4.3-10.9
		c-0.7-2.2-1.8-3-3.9-2.6c-0.3,0.1-0.6,0.1-0.9,0.2c0,8.5,0,16.9,0,25.3C181.9,112.7,183,112.7,184.3,112.7z M129.4,112.8
		c2.3,0,4.4,0,6.5,0c3.9-0.1,6.3-1.9,6.5-5.8c0.3-4.8,0.2-9.7-0.1-14.5c-0.2-3-2.1-4.8-5-5.1c-2.6-0.2-5.3-0.1-8-0.1
		C129.4,95.8,129.4,104.1,129.4,112.8z M147.2,87.2c0,8.6,0,17.1,0,25.6c2.3,0,4.4,0,6.5,0c3.9-0.1,6.4-2.4,6.5-6.3
		c0.1-4.3,0.1-8.7,0-13c-0.1-3.7-2.3-6-5.7-6.2C152.1,87.1,149.7,87.2,147.2,87.2z M116.5,87.3c-1.6,8.6-3.1,16.9-4.7,25.4
		c1.6,0,2.8,0,4.2,0c0.3-1.9,0.6-3.7,0.9-5.4c4.7-0.4,4.7-0.4,5.4,3.8c0.1,0.5,0.2,1,0.3,1.6c1.4,0,2.7,0,4.2,0
		c-1.6-8.6-3.1-17-4.7-25.4C120.1,87.3,118.4,87.3,116.5,87.3z M50.8,87.5c1.7,8.3,3.5,16.8,5.2,25.2c1.6,0,3,0,4.4,0
		c1.8-8.5,3.5-16.9,5.3-25.4c-1.6,0-2.9,0-4.3,0c-1,5.6-2,11.2-3,16.7c-1.2-4.4-2-8.9-2.7-13.3c-0.7-3.8-0.6-3.8-4.5-3.4
		C51.1,87.3,51.1,87.4,50.8,87.5z M19.3,93c-0.5-4.3-3-6.5-6.7-6.2c-4,0.3-6.3,2.7-5.9,6.7C6.9,95.5,8,97.4,9.1,99
		c1.1,1.6,3,2.7,4.3,4.1c0.8,0.9,1.5,2,1.9,3.2c0.4,1.3,0,2.5-1.6,2.9c-1.5,0.4-2.4-0.4-3-1.7c-0.3-0.6-0.4-1.3-0.6-2.1
		c-1.4,0.2-2.6,0.4-3.8,0.6c0.1,4.1,2.6,6.9,6.1,7.1c4.2,0.2,6.9-2,7.3-6c0.2-2.5-0.8-4.6-2.4-6.3c-1.3-1.4-2.9-2.5-4.2-3.9
		c-0.9-0.9-1.7-2.1-2.1-3.3c-0.4-1.2-0.1-2.5,1.4-2.9c1.3-0.3,2.3,0.2,2.8,1.6c0.1,0.4,0.3,0.7,0.5,1C16.8,93.3,18,93.2,19.3,93z
		 M37.1,87.3c0,8.6,0,17,0,25.4c4,0,7.9,0,11.7,0c0-1.3,0-2.5,0-3.9c-2.6,0-5,0-7.5,0c0-2.5,0-4.8,0-7.4c1.8,0,3.6,0,5.4,0
		c0-1.4,0-2.5,0-3.9c-1.9,0-3.6,0-5.4,0c0-2.2,0-4.3,0-6.5c2.4,0,4.7,0,7.1,0c0-1.4,0-2.5,0-3.7C44.6,87.3,40.9,87.3,37.1,87.3z
		 M164.8,87.3c0,8.6,0,17,0,25.4c4.1,0,8,0,11.9,0c0-1.3,0-2.5,0-3.8c-2.6,0-5,0-7.5,0c0-2.6,0-4.9,0-7.5c1.9,0,3.6,0,5.4,0
		c0-1.4,0-2.5,0-3.8c-1.9,0-3.6,0-5.4,0c0-2.2,0-4.3,0-6.6c2.4,0,4.8,0,7.2,0c0-1.4,0-2.5,0-3.7C172.4,87.3,168.7,87.3,164.8,87.3z
		 M79.9,91c0-1.4,0-2.5,0-3.6c-3.9,0-7.6,0-11.4,0c0,8.5,0,17,0,25.3c4,0,7.9,0,11.8,0c0-1.3,0-2.5,0-3.8c-2.6,0-5,0-7.5,0
		c0-2.5,0-4.9,0-7.5c1.9,0,3.6,0,5.5,0c0-1.4,0-2.4,0-3.7c-1.9,0-3.6,0-5.5,0c0-2.3,0-4.4,0-6.6C75.2,91,77.5,91,79.9,91z
		 M21.4,87.3c0,1.3,0,2.4,0,3.6c1.3,0.1,2.6,0.1,4.1,0.2c0,7.3,0,14.4,0,21.6c1.6,0,2.9,0,4.4,0c0-7.3,0-14.4,0-21.6
		c1.5-0.1,2.7-0.1,4.1-0.2c0-1.3,0-2.4,0-3.6C29.8,87.3,25.7,87.3,21.4,87.3z"/>
	<path d="M133.7,91c3.4-0.5,4.5,0.3,4.5,3.6c0,3.5,0,7.1,0,10.6c0,3.4-0.9,4.1-4.5,3.8C133.7,103,133.7,97,133.7,91z"/>
	<path d="M151.4,108.9c0-6.1,0-12,0-17.9c3.5-0.5,4.5,0.2,4.5,3.6c0,3.6,0,7.2,0,10.8C155.9,108.7,155,109.4,151.4,108.9z"/>
	<path d="M119.5,93.4c0.5,3.2,1,6.4,1.5,9.8c-1.2,0-2.2,0-3.5,0c0.5-3.3,1-6.6,1.5-9.8C119.2,93.3,119.3,93.4,119.5,93.4z"/>
</g>
</svg>
